Jost-700-Bold.ufo
<glyph name="exclam" format="1">
  <advance width="343"/>
  <unicode hex="0021"/>
  <outline>
    <contour>
      <point x="78" y="700" type="line"/>
      <point x="265" y="700" type="line"/>
      <point x="233" y="231" type="line"/>
      <point x="111" y="231" type="line"/>
    </contour>
    <contour>
      <point x="78" y="62" type="curve" smooth="yes"/>
      <point x="78" y="112"/>
      <point x="118" y="148"/>
      <point x="172" y="148" type="curve" smooth="yes"/>
      <point x="226" y="148"/>
      <point x="266" y="112"/>
      <point x="266" y="62" type="curve" smooth="yes"/>
      <point x="266" y="12"/>
      <point x="226" y="-24"/>
      <point x="172" y="-24" type="curve" smooth="yes"/>
      <point x="118" y="-24"/>
      <point x="78" y="12"/>
    </contour>
  </outline>
</glyph>
<glyph name="ampersand" format="1">
  <advance width="751"/>
  <unicode hex="0026"/>
  <outline>
    <contour>
      <point x="223" y="372" type="line" smooth="yes"/>
      <point x="176" y="423"/>
      <point x="126" y="473"/>
      <point x="126" y="544" type="curve" smooth="yes"/>
      <point x="126" y="632"/>
      <point x="207" y="717"/>
      <point x="341" y="717" type="curve" smooth="yes"/>
      <point x="471" y="717"/>
      <point x="543" y="632"/>
      <point x="543" y="548" type="curve" smooth="yes"/>
      <point x="543" y="456"/>
      <point x="483" y="418"/>
      <point x="371" y="344" type="curve" smooth="yes"/>
      <point x="299" y="298"/>
      <point x="198" y="283"/>
      <point x="198" y="201" type="curve" smooth="yes"/>
      <point x="198" y="153"/>
      <point x="236" y="114"/>
      <point x="304" y="114" type="curve" smooth="yes"/>
      <point x="418" y="114"/>
      <point x="528" y="216"/>
      <point x="608" y="340" type="curve"/>
      <point x="708" y="263" type="line"/>
      <point x="620" y="135"/>
      <point x="482" y="-13"/>
      <point x="284" y="-13" type="curve" smooth="yes"/>
      <point x="150" y="-13"/>
      <point x="40" y="63"/>
      <point x="40" y="188" type="curve" smooth="yes"/>
      <point x="40" y="348"/>
      <point x="221" y="386"/>
      <point x="291" y="420" type="curve" smooth="yes"/>
      <point x="366" y="456"/>
      <point x="406" y="497"/>
      <point x="406" y="534" type="curve" smooth="yes"/>
      <point x="406" y="566"/>
      <point x="380" y="597"/>
      <point x="340" y="597" type="curve" smooth="yes"/>
      <point x="294" y="597"/>
      <point x="272" y="566"/>
      <point x="272" y="534" type="curve" smooth="yes"/>
      <point x="272" y="494"/>
      <point x="311" y="458"/>
      <point x="365" y="400" type="curve" smooth="yes"/>
      <point x="735" y="0" type="line"/>
      <point x="562" y="0" type="line"/>
    </contour>
  </outline>
</glyph>
<glyph name="quotesingle" format="1">
  <advance width="306"/>
  <unicode hex="0027"/>
  <outline>
    <contour>
      <point x="106" y="700" type="line"/>
      <point x="265" y="700" type="line"/>
      <point x="160" y="382" type="line"/>
      <point x="62" y="382" type="line"/>
    </contour>
  </outline>
</glyph>
<glyph name="asterisk" format="1">
  <advance width="592"/>
  <unicode hex="002A"/>
  <outline>
    <contour>
      <point x="498" y="604" type="line"/>
      <point x="541" y="472" type="line"/>
      <point x="308" y="429" type="line"/>
      <point x="284" y="500" type="line"/>
    </contour>
    <contour>
      <point x="490" y="315" type="line"/>
      <point x="378" y="234" type="line"/>
      <point x="266" y="443" type="line"/>
      <point x="326" y="487" type="line"/>
    </contour>
    <contour>
      <point x="214" y="234" type="line"/>
      <point x="102" y="315" type="line"/>
      <point x="266" y="487" type="line"/>
      <point x="326" y="443" type="line"/>
    </contour>
    <contour>
      <point x="51" y="472" type="line"/>
      <point x="94" y="604" type="line"/>
      <point x="308" y="500" type="line"/>
      <point x="284" y="429" type="line"/>
    </contour>
    <contour>
      <point x="227" y="700" type="line"/>
      <point x="365" y="700" type="line"/>
      <point x="334" y="465" type="line"/>
      <point x="258" y="465" type="line"/>
    </contour>
  </outline>
</glyph>
<glyph name="plus" format="1">
  <advance width="673"/>
  <unicode hex="002B"/>
  <outline>
    <contour>
      <point x="65" y="196" type="line"/>
      <point x="65" y="341" type="line"/>
      <point x="609" y="341" type="line"/>
      <point x="609" y="196" type="line"/>
    </contour>
    <contour>
      <point x="259" y="540" type="line"/>
      <point x="415" y="540" type="line"/>
      <point x="415" y="-2" type="line"/>
      <point x="259" y="-2" type="line"/>
    </contour>
  </outline>
</glyph>
<glyph name="hyphen" format="1">
  <advance width="221"/>
  <unicode hex="002D"/>
  <outline>
    <contour>
      <point x="5" y="172" type="line"/>
      <point x="5" y="302" type="line"/>
      <point x="218" y="302" type="line"/>
      <point x="218" y="172" type="line"/>
    </contour>
  </outline>
</glyph>
<glyph name="period" format="1">
  <advance width="321"/>
  <unicode hex="002E"/>
  <outline>
    <contour>
      <point x="68" y="68" type="curve" smooth="yes"/>
      <point x="68" y="118"/>
      <point x="108" y="160"/>
      <point x="162" y="160" type="curve" smooth="yes"/>
      <point x="216" y="160"/>
      <point x="255" y="118"/>
      <point x="255" y="68" type="curve" smooth="yes"/>
      <point x="255" y="18"/>
      <point x="216" y="-24"/>
      <point x="162" y="-24" type="curve" smooth="yes"/>
      <point x="108" y="-24"/>
      <point x="68" y="18"/>
    </contour>
  </outline>
</glyph>
<glyph name="zero" format="1">
  <advance width="662"/>
  <unicode hex="0030"/>
  <outline>
    <contour>
      <point x="203" y="350" type="curve" smooth="yes"/>
      <point x="203" y="218"/>
      <point x="254" y="132"/>
      <point x="331" y="132" type="curve" smooth="yes"/>
      <point x="408" y="132"/>
      <point x="460" y="218"/>
      <point x="460" y="350" type="curve" smooth="yes"/>
      <point x="460" y="482"/>
      <point x="408" y="568"/>
      <point x="331" y="568" type="curve" smooth="yes"/>
      <point x="254" y="568"/>
      <point x="203" y="482"/>
    </contour>
    <contour>
      <point x="40" y="350" type="curve" smooth="yes"/>
      <point x="40" y="578"/>
      <point x="158" y="713"/>
      <point x="331" y="713" type="curve" smooth="yes"/>
      <point x="510" y="713"/>
      <point x="622" y="578"/>
      <point x="622" y="350" type="curve" smooth="yes"/>
      <point x="622" y="122"/>
      <point x="510" y="-13"/>
      <point x="331" y="-13" type="curve" smooth="yes"/>
      <point x="158" y="-13"/>
      <point x="40" y="122"/>
    </contour>
  </outline>
</glyph>
<glyph name="two" format="1">
  <advance width="655"/>
  <unicode hex="0032"/>
  <outline>
    <contour>
      <point x="20" y="0" type="line"/>
      <point x="332" y="323" type="line" smooth="yes"/>
      <point x="388" y="383"/>
      <point x="422" y="424"/>
      <point x="422" y="480" type="curve" smooth="yes"/>
      <point x="422" y="525"/>
      <point x="390" y="569"/>
      <point x="326" y="569" type="curve" smooth="yes"/>
      <point x="260" y="569"/>
      <point x="220" y="517"/>
      <point x="220" y="442" type="curve"/>
      <point x="54" y="442" type="line"/>
      <point x="54" y="591"/>
      <point x="149" y="714"/>
      <point x="331" y="714" type="curve" smooth="yes"/>
      <point x="504" y="714"/>
      <point x="596" y="598"/>
      <point x="596" y="492" type="curve" smooth="yes"/>
      <point x="596" y="417"/>
      <point x="556" y="353"/>
      <point x="496" y="301" type="curve" smooth="yes"/>
      <point x="332" y="154" type="line"/>
      <point x="613" y="154" type="line"/>
      <point x="613" y="0" type="line"/>
    </contour>
  </outline>
</glyph>
<glyph name="three" format="1">
  <advance width="619"/>
  <unicode hex="0033"/>
  <outline>
    <contour>
      <point x="274" y="339" type="curve"/>
      <point x="274" y="414" type="line"/>
      <point x="352" y="414"/>
      <point x="404" y="458"/>
      <point x="404" y="508" type="curve" smooth="yes"/>
      <point x="404" y="550"/>
      <point x="378" y="578"/>
      <point x="325" y="578" type="curve" smooth="yes"/>
      <point x="273" y="578"/>
      <point x="233" y="543"/>
      <point x="233" y="495" type="curve"/>
      <point x="78" y="495" type="line"/>
      <point x="78" y="619"/>
      <point x="175" y="713"/>
      <point x="324" y="713" type="curve" smooth="yes"/>
      <point x="481" y="713"/>
      <point x="571" y="628"/>
      <point x="571" y="520" type="curve" smooth="yes"/>
      <point x="571" y="400"/>
      <point x="440" y="339"/>
    </contour>
    <contour>
      <point x="317" y="-16" type="curve" smooth="yes"/>
      <point x="148" y="-16"/>
      <point x="48" y="98"/>
      <point x="48" y="222" type="curve"/>
      <point x="214" y="222" type="line"/>
      <point x="214" y="153"/>
      <point x="265" y="120"/>
      <point x="323" y="120" type="curve" smooth="yes"/>
      <point x="381" y="120"/>
      <point x="424" y="148"/>
      <point x="424" y="208" type="curve" smooth="yes"/>
      <point x="424" y="266"/>
      <point x="376" y="306"/>
      <point x="274" y="306" type="curve"/>
      <point x="274" y="392" type="line"/>
      <point x="459" y="392"/>
      <point x="591" y="333"/>
      <point x="591" y="191" type="curve" smooth="yes"/>
      <point x="591" y="69"/>
      <point x="488" y="-16"/>
    </contour>
  </outline>
</glyph>
<glyph name="four" format="1">
  <advance width="698"/>
  <unicode hex="0034"/>
  <outline>
    <contour>
      <point x="14" y="124" type="line"/>
      <point x="152" y="246" type="line"/>
      <point x="462" y="246" type="line" smooth="yes"/>
      <point x="479" y="268" type="line" smooth="yes"/>
      <point x="656" y="268" type="line"/>
      <point x="656" y="124" type="line"/>
    </contour>
    <contour>
      <point x="185" y="174" type="line"/>
      <point x="14" y="124" type="line"/>
      <point x="420" y="700" type="line"/>
      <point x="546" y="700" type="line"/>
      <point x="546" y="0" type="line"/>
      <point x="370" y="0" type="line"/>
      <point x="370" y="160" type="line" smooth="yes"/>
      <point x="389" y="172" type="line" smooth="yes"/>
      <point x="389" y="454" type="line"/>
    </contour>
  </outline>
</glyph>
<glyph name="five" format="1">
  <advance width="644"/>
  <unicode hex="0035"/>
  <outline>
    <contour>
      <point x="604" y="224" type="curve" smooth="yes"/>
      <point x="604" y="59"/>
      <point x="457" y="-13"/>
      <point x="322" y="-13" type="curve" smooth="yes"/>
      <point x="193" y="-13"/>
      <point x="106" y="29"/>
      <point x="42" y="78" type="curve"/>
      <point x="108" y="217" type="line"/>
      <point x="164" y="169"/>
      <point x="233" y="142"/>
      <point x="285" y="142" type="curve" smooth="yes"/>
      <point x="369" y="142"/>
      <point x="420" y="174"/>
      <point x="420" y="242" type="curve" smooth="yes"/>
      <point x="420" y="310"/>
      <point x="353" y="340"/>
      <point x="285" y="340" type="curve" smooth="yes"/>
      <point x="231" y="340"/>
      <point x="159" y="332"/>
      <point x="88" y="296" type="curve"/>
      <point x="186" y="700" type="line"/>
      <point x="590" y="700" type="line"/>
      <point x="590" y="554" type="line"/>
      <point x="310" y="554" type="line"/>
      <point x="270" y="428" type="line"/>
      <point x="307" y="446"/>
      <point x="348" y="453"/>
      <point x="392" y="453" type="curve" smooth="yes"/>
      <point x="503" y="453"/>
      <point x="604" y="369"/>
    </contour>
  </outline>
</glyph>
<glyph name="six" format="1">
  <advance width="668"/>
  <unicode hex="0036"/>
  <outline>
    <contour>
      <point x="216" y="246" type="curve" smooth="yes"/>
      <point x="216" y="174"/>
      <point x="267" y="128"/>
      <point x="334" y="128" type="curve" smooth="yes"/>
      <point x="401" y="128"/>
      <point x="452" y="174"/>
      <point x="452" y="246" type="curve" smooth="yes"/>
      <point x="452" y="318"/>
      <point x="401" y="365"/>
      <point x="334" y="365" type="curve" smooth="yes"/>
      <point x="267" y="365"/>
      <point x="216" y="318"/>
    </contour>
    <contour>
      <point x="333" y="697" type="line"/>
      <point x="547" y="697" type="line"/>
      <point x="320" y="444" type="line"/>
      <point x="286" y="429" type="line"/>
      <point x="324" y="465"/>
      <point x="352" y="473"/>
      <point x="402" y="473" type="curve" smooth="yes"/>
      <point x="507" y="473"/>
      <point x="619" y="388"/>
      <point x="619" y="246" type="curve" smooth="yes"/>
      <point x="619" y="74"/>
      <point x="490" y="-16"/>
      <point x="334" y="-16" type="curve" smooth="yes"/>
      <point x="178" y="-16"/>
      <point x="50" y="74"/>
      <point x="50" y="246" type="curve" smooth="yes"/>
      <point x="50" y="322"/>
      <point x="85" y="384"/>
      <point x="131" y="440" type="curve" smooth="yes"/>
    </contour>
  </outline>
</glyph>
<glyph name="nine" format="1">
  <advance width="668"/>
  <unicode hex="0039"/>
  <outline>
    <contour>
      <point x="452" y="454" type="curve" smooth="yes"/>
      <point x="452" y="526"/>
      <point x="401" y="572"/>
      <point x="334" y="572" type="curve" smooth="yes"/>
      <point x="267" y="572"/>
      <point x="216" y="526"/>
      <point x="216" y="454" type="curve" smooth="yes"/>
      <point x="216" y="382"/>
      <point x="267" y="335"/>
      <point x="334" y="335" type="curve" smooth="yes"/>
      <point x="401" y="335"/>
      <point x="452" y="382"/>
    </contour>
    <contour>
      <point x="336" y="3" type="line"/>
      <point x="122" y="3" type="line"/>
      <point x="349" y="256" type="line"/>
      <point x="383" y="271" type="line"/>
      <point x="345" y="235"/>
      <point x="316" y="227"/>
      <point x="266" y="227" type="curve" smooth="yes"/>
      <point x="161" y="227"/>
      <point x="50" y="312"/>
      <point x="50" y="454" type="curve" smooth="yes"/>
      <point x="50" y="626"/>
      <point x="178" y="716"/>
      <point x="334" y="716" type="curve" smooth="yes"/>
      <point x="490" y="716"/>
      <point x="619" y="626"/>
      <point x="619" y="454" type="curve" smooth="yes"/>
      <point x="619" y="378"/>
      <point x="584" y="316"/>
      <point x="538" y="260" type="curve" smooth="yes"/>
    </contour>
  </outline>
</glyph>
<glyph name="colon" format="1">
  <advance width="321"/>
  <unicode hex="003A"/>
  <outline>
    <contour>
      <point x="68" y="68" type="curve" smooth="yes"/>
      <point x="68" y="118"/>
      <point x="108" y="160"/>
      <point x="162" y="160" type="curve" smooth="yes"/>
      <point x="216" y="160"/>
      <point x="255" y="118"/>
      <point x="255" y="68" type="curve" smooth="yes"/>
      <point x="255" y="18"/>
      <point x="216" y="-24"/>
      <point x="162" y="-24" type="curve" smooth="yes"/>
      <point x="108" y="-24"/>
      <point x="68" y="18"/>
    </contour>
    <contour>
      <point x="68" y="442" type="curve" smooth="yes"/>
      <point x="68" y="492"/>
      <point x="108" y="534"/>
      <point x="162" y="534" type="curve" smooth="yes"/>
      <point x="216" y="534"/>
      <point x="255" y="492"/>
      <point x="255" y="442" type="curve" smooth="yes"/>
      <point x="255" y="392"/>
      <point x="216" y="350"/>
      <point x="162" y="350" type="curve" smooth="yes"/>
      <point x="108" y="350"/>
      <point x="68" y="392"/>
    </contour>
  </outline>
</glyph>
<glyph name="semicolon" format="1">
  <advance width="392"/>
  <unicode hex="003B"/>
  <outline>
    <contour>
      <point x="119" y="436" type="curve" smooth="yes"/>
      <point x="119" y="486"/>
      <point x="159" y="528"/>
      <point x="213" y="528" type="curve" smooth="yes"/>
      <point x="267" y="528"/>
      <point x="307" y="486"/>
      <point x="307" y="436" type="curve" smooth="yes"/>
      <point x="307" y="386"/>
      <point x="267" y="344"/>
      <point x="213" y="344" type="curve" smooth="yes"/>
      <point x="159" y="344"/>
      <point x="119" y="386"/>
    </contour>
    <contour>
      <point x="142" y="110" type="line"/>
      <point x="293" y="78" type="line"/>
      <point x="168" y="-172" type="line"/>
      <point x="54" y="-149" type="line"/>
    </contour>
  </outline>
</glyph>
<glyph name="less" format="1">
  <advance width="640"/>
  <unicode hex="003C"/>
  <outline>
    <contour>
      <point x="280" y="268" type="line"/>
      <point x="575" y="148" type="line"/>
      <point x="575" y="-0" type="line"/>
      <point x="65" y="214" type="line"/>
      <point x="65" y="314" type="line"/>
      <point x="575" y="528" type="line"/>
      <point x="575" y="380" type="line"/>
    </contour>
  </outline>
</glyph>
<glyph name="question" format="1">
  <advance width="626"/>
  <unicode hex="003F"/>
  <outline>
    <contour>
      <point x="420" y="500" type="curve" smooth="yes"/>
      <point x="420" y="558"/>
      <point x="380" y="592"/>
      <point x="308" y="592" type="curve" smooth="yes"/>
      <point x="247" y="592"/>
      <point x="187" y="561"/>
      <point x="150" y="505" type="curve"/>
      <point x="48" y="589" type="line"/>
      <point x="118" y="671"/>
      <point x="199" y="719"/>
      <point x="318" y="719" type="curve" smooth="yes"/>
      <point x="449" y="719"/>
      <point x="573" y="638"/>
      <point x="573" y="500" type="curve" smooth="yes"/>
      <point x="573" y="378"/>
      <point x="464" y="304"/>
      <point x="358" y="286" type="curve"/>
      <point x="354" y="201" type="line"/>
      <point x="232" y="201" type="line"/>
      <point x="212" y="379" type="line"/>
      <point x="244" y="379" type="line" smooth="yes"/>
      <point x="364" y="379"/>
      <point x="420" y="448"/>
    </contour>
    <contour>
      <point x="200" y="58" type="curve" smooth="yes"/>
      <point x="200" y="102"/>
      <point x="239" y="141"/>
      <point x="293" y="141" type="curve" smooth="yes"/>
      <point x="347" y="141"/>
      <point x="388" y="102"/>
      <point x="388" y="58" type="curve" smooth="yes"/>
      <point x="388" y="14"/>
      <point x="347" y="-24"/>
      <point x="293" y="-24" type="curve" smooth="yes"/>
      <point x="239" y="-24"/>
      <point x="200" y="14"/>
    </contour>
  </outline>
</glyph>
<glyph name="at" format="1">
  <advance width="770"/>
  <unicode hex="0040"/>
  <outline>
    <contour>
      <point x="316" y="320" type="curve" smooth="yes"/>
      <point x="316" y="276"/>
      <point x="332" y="252"/>
      <point x="361" y="252" type="curve" smooth="yes"/>
      <point x="395" y="252"/>
      <point x="435" y="295"/>
      <point x="435" y="364" type="curve" smooth="yes"/>
      <point x="435" y="411"/>
      <point x="416" y="432"/>
      <point x="388" y="432" type="curve" smooth="yes"/>
      <point x="348" y="432"/>
      <point x="316" y="382"/>
    </contour>
    <contour>
      <point x="196" y="312" type="curve" smooth="yes"/>
      <point x="196" y="451"/>
      <point x="281" y="530"/>
      <point x="360" y="530" type="curve" smooth="yes"/>
      <point x="432" y="530"/>
      <point x="482" y="455"/>
      <point x="482" y="370" type="curve" smooth="yes"/>
      <point x="482" y="231"/>
      <point x="410" y="154"/>
      <point x="328" y="154" type="curve" smooth="yes"/>
      <point x="248" y="154"/>
      <point x="196" y="213"/>
    </contour>
    <contour>
      <point x="20" y="320" type="curve" smooth="yes"/>
      <point x="20" y="545"/>
      <point x="185" y="722"/>
      <point x="415" y="722" type="curve" smooth="yes"/>
      <point x="629" y="722"/>
      <point x="750" y="555"/>
      <point x="750" y="390" type="curve" smooth="yes"/>
      <point x="750" y="212"/>
      <point x="653" y="144"/>
      <point x="559" y="144" type="curve" smooth="yes"/>
      <point x="492" y="144"/>
      <point x="438" y="198"/>
      <point x="448" y="264" type="curve"/>
      <point x="434" y="294" type="line"/>
      <point x="458" y="520" type="line"/>
      <point x="574" y="520" type="line"/>
      <point x="548" y="308" type="line" smooth="yes"/>
      <point x="547" y="301"/>
      <point x="546" y="288"/>
      <point x="546" y="280" type="curve" smooth="yes"/>
      <point x="546" y="256"/>
      <point x="552" y="240"/>
      <point x="572" y="240" type="curve" smooth="yes"/>
      <point x="596" y="240"/>
      <point x="640" y="270"/>
      <point x="640" y="390" type="curve" smooth="yes"/>
      <point x="640" y="517"/>
      <point x="565" y="624"/>
      <point x="415" y="624" type="curve" smooth="yes"/>
      <point x="239" y="624"/>
      <point x="130" y="497"/>
      <point x="130" y="320" type="curve" smooth="yes"/>
      <point x="130" y="170"/>
      <point x="214" y="74"/>
      <point x="378" y="74" type="curve" smooth="yes"/>
      <point x="448" y="74"/>
      <point x="504" y="88"/>
      <point x="562" y="118" type="curve"/>
      <point x="600" y="28" type="line"/>
      <point x="540" y="-6"/>
      <point x="467" y="-26"/>
      <point x="365" y="-26" type="curve" smooth="yes"/>
      <point x="139" y="-26"/>
      <point x="20" y="121"/>
    </contour>
  </outline>
</glyph>
<glyph name="B" format="1">
  <advance width="664"/>
  <unicode hex="0042"/>
  <outline>
    <contour>
      <point x="192" y="396" type="line"/>
      <point x="348" y="396" type="line" smooth="yes"/>
      <point x="483" y="396"/>
      <point x="620" y="339"/>
      <point x="620" y="197" type="curve" smooth="yes"/>
      <point x="620" y="58"/>
      <point x="514" y="0"/>
      <point x="348" y="0" type="curve" smooth="yes"/>
      <point x="192" y="0" type="line"/>
      <point x="192" y="132" type="line"/>
      <point x="330" y="132" type="line" smooth="yes"/>
      <point x="395" y="132"/>
      <point x="445" y="153"/>
      <point x="445" y="220" type="curve" smooth="yes"/>
      <point x="445" y="281"/>
      <point x="395" y="304"/>
      <point x="330" y="304" type="curve" smooth="yes"/>
      <point x="192" y="304" type="line"/>
    </contour>
    <contour>
      <point x="192" y="348" type="line"/>
      <point x="192" y="422" type="line"/>
      <point x="313" y="422" type="line" smooth="yes"/>
      <point x="371" y="422"/>
      <point x="405" y="450"/>
      <point x="405" y="497" type="curve" smooth="yes"/>
      <point x="405" y="544"/>
      <point x="371" y="568"/>
      <point x="313" y="568" type="curve" smooth="yes"/>
      <point x="192" y="568" type="line"/>
      <point x="192" y="700" type="line"/>
      <point x="332" y="700" type="line" smooth="yes"/>
      <point x="476" y="700"/>
      <point x="580" y="641"/>
      <point x="580" y="522" type="curve" smooth="yes"/>
      <point x="580" y="410"/>
      <point x="476" y="348"/>
      <point x="332" y="348" type="curve" smooth="yes"/>
    </contour>
    <contour>
      <point x="74" y="700" type="line"/>
      <point x="243" y="700" type="line"/>
      <point x="243" y="0" type="line"/>
      <point x="74" y="0" type="line"/>
    </contour>
  </outline>
</glyph>
<glyph name="D" format="1">
  <advance width="732"/>
  <unicode hex="0044"/>
  <outline>
    <contour>
      <point x="74" y="700" type="line"/>
      <point x="248" y="700" type="line"/>
      <point x="248" y="0" type="line"/>
      <point x="74" y="0" type="line"/>
    </contour>
    <contour>
      <point x="324" y="0" type="curve" smooth="yes"/>
      <point x="186" y="0" type="line"/>
      <point x="186" y="150" type="line"/>
      <point x="318" y="150" type="line" smooth="yes"/>
      <point x="426" y="150"/>
      <point x="524" y="200"/>
      <point x="524" y="350" type="curve" smooth="yes"/>
      <point x="524" y="500"/>
      <point x="426" y="550"/>
      <point x="318" y="550" type="curve" smooth="yes"/>
      <point x="186" y="550" type="line"/>
      <point x="186" y="700" type="line"/>
      <point x="324" y="700" type="line" smooth="yes"/>
      <point x="552" y="700"/>
      <point x="699" y="565"/>
      <point x="699" y="350" type="curve" smooth="yes"/>
      <point x="699" y="135"/>
      <point x="552" y="0"/>
    </contour>
  </outline>
</glyph>
<glyph name="J" format="1">
  <advance width="329"/>
  <unicode hex="004A"/>
  <outline>
    <contour>
      <point x="-72" y="-64" type="line"/>
      <point x="-52" y="-82"/>
      <point x="-21" y="-97"/>
      <point x="9" y="-97" type="curve" smooth="yes"/>
      <point x="39" y="-97"/>
      <point x="74" y="-76"/>
      <point x="74" y="-16" type="curve" smooth="yes"/>
      <point x="74" y="700" type="line"/>
      <point x="256" y="700" type="line"/>
      <point x="256" y="-54" type="line" smooth="yes"/>
      <point x="256" y="-188"/>
      <point x="151" y="-238"/>
      <point x="26" y="-238" type="curve" smooth="yes"/>
      <point x="-52" y="-238"/>
      <point x="-124" y="-208"/>
      <point x="-164" y="-182" type="curve"/>
    </contour>
  </outline>
</glyph>
<glyph name="L" format="1">
  <advance width="527"/>
  <unicode hex="004C"/>
  <outline>
    <contour>
      <point x="74" y="700" type="line"/>
      <point x="242" y="700" type="line"/>
      <point x="242" y="145" type="line"/>
      <point x="524" y="145" type="line"/>
      <point x="524" y="0" type="line"/>
      <point x="74" y="0" type="line"/>
    </contour>
  </outline>
</glyph>
<glyph name="M" format="1">
  <advance width="891"/>
  <unicode hex="004D"/>
  <outline>
    <contour>
      <point x="620" y="486" type="line"/>
      <point x="744" y="735" type="line"/>
      <point x="858" y="0" type="line"/>
      <point x="678" y="0" type="line"/>
    </contour>
    <contour>
      <point x="147" y="735" type="line"/>
      <point x="270" y="486" type="line"/>
      <point x="212" y="0" type="line"/>
      <point x="34" y="0" type="line"/>
    </contour>
    <contour>
      <point x="744" y="735" type="line"/>
      <point x="744" y="510" type="line"/>
      <point x="446" y="65" type="line"/>
      <point x="147" y="510" type="line"/>
      <point x="147" y="735" type="line"/>
      <point x="446" y="308" type="line"/>
    </contour>
  </outline>
</glyph>
<glyph name="N" format="1">
  <advance width="792"/>
  <unicode hex="004E"/>
  <outline>
    <contour>
      <point x="557" y="700" type="line"/>
      <point x="720" y="700" type="line"/>
      <point x="720" y="-35" type="line"/>
      <point x="236" y="394" type="line"/>
      <point x="236" y="0" type="line"/>
      <point x="74" y="0" type="line"/>
      <point x="74" y="735" type="line"/>
      <point x="557" y="306" type="line"/>
    </contour>
  </outline>
</glyph>
<glyph name="P" format="1">
  <advance width="621"/>
  <unicode hex="0050"/>
  <outline>
    <contour>
      <point x="74" y="700" type="line"/>
      <point x="242" y="700" type="line"/>
      <point x="242" y="0" type="line"/>
      <point x="74" y="0" type="line"/>
    </contour>
    <contour>
      <point x="180" y="561" type="line"/>
      <point x="180" y="700" type="line"/>
      <point x="316" y="700" type="line" smooth="yes"/>
      <point x="494" y="700"/>
      <point x="588" y="614"/>
      <point x="588" y="472" type="curve" smooth="yes"/>
      <point x="588" y="330"/>
      <point x="494" y="243"/>
      <point x="316" y="243" type="curve" smooth="yes"/>
      <point x="180" y="243" type="line"/>
      <point x="180" y="382" type="line"/>
      <point x="316" y="382" type="line" smooth="yes"/>
      <point x="384" y="382"/>
      <point x="426" y="414"/>
      <point x="426" y="472" type="curve" smooth="yes"/>
      <point x="426" y="530"/>
      <point x="384" y="561"/>
      <point x="316" y="561" type="curve" smooth="yes"/>
    </contour>
  </outline>
</glyph>
<glyph name="R" format="1">
  <advance width="646"/>
  <unicode hex="0052"/>
  <outline>
    <contour>
      <point x="248" y="318" type="line"/>
      <point x="424" y="318" type="line"/>
      <point x="643" y="0" type="line"/>
      <point x="445" y="0" type="line"/>
    </contour>
    <contour>
      <point x="74" y="700" type="line"/>
      <point x="242" y="700" type="line"/>
      <point x="242" y="0" type="line"/>
      <point x="74" y="0" type="line"/>
    </contour>
    <contour>
      <point x="180" y="556" type="line"/>
      <point x="180" y="700" type="line"/>
      <point x="329" y="700" type="line" smooth="yes"/>
      <point x="507" y="700"/>
      <point x="601" y="607"/>
      <point x="601" y="472" type="curve" smooth="yes"/>
      <point x="601" y="337"/>
      <point x="507" y="243"/>
      <point x="329" y="243" type="curve" smooth="yes"/>
      <point x="180" y="243" type="line"/>
      <point x="180" y="374" type="line"/>
      <point x="316" y="374" type="line" smooth="yes"/>
      <point x="384" y="374"/>
      <point x="426" y="408"/>
      <point x="426" y="466" type="curve" smooth="yes"/>
      <point x="426" y="524"/>
      <point x="384" y="556"/>
      <point x="316" y="556" type="curve" smooth="yes"/>
    </contour>
  </outline>
</glyph>
<glyph name="S" format="1">
  <advance width="624"/>
  <unicode hex="0053"/>
  <outline>
    <contour>
      <point x="153" y="250" type="line"/>
      <point x="201" y="166"/>
      <point x="248" y="124"/>
      <point x="322" y="124" type="curve" smooth="yes"/>
      <point x="378" y="124"/>
      <point x="408" y="147"/>
      <point x="408" y="193" type="curve" smooth="yes"/>
      <point x="408" y="252"/>
      <point x="344" y="270"/>
      <point x="264" y="302" type="curve" smooth="yes"/>
      <point x="196" y="328"/>
      <point x="74" y="378"/>
      <point x="74" y="518" type="curve" smooth="yes"/>
      <point x="74" y="636"/>
      <point x="179" y="716"/>
      <point x="327" y="716" type="curve" smooth="yes"/>
      <point x="465" y="716"/>
      <point x="539" y="637"/>
      <point x="577" y="562" type="curve"/>
      <point x="450" y="490" type="line"/>
      <point x="420" y="542"/>
      <point x="378" y="573"/>
      <point x="324" y="573" type="curve" smooth="yes"/>
      <point x="276" y="573"/>
      <point x="247" y="550"/>
      <point x="247" y="514" type="curve" smooth="yes"/>
      <point x="247" y="466"/>
      <point x="324" y="443"/>
      <point x="408" y="413" type="curve" smooth="yes"/>
      <point x="506" y="379"/>
      <point x="586" y="317"/>
      <point x="586" y="196" type="curve" smooth="yes"/>
      <point x="586" y="54"/>
      <point x="472" y="-22"/>
      <point x="324" y="-22" type="curve" smooth="yes"/>
      <point x="196" y="-22"/>
      <point x="78" y="59"/>
      <point x="34" y="168" type="curve"/>
    </contour>
  </outline>
</glyph>
<glyph name="T" format="1">
  <advance width="561"/>
  <unicode hex="0054"/>
  <outline>
    <contour>
      <point x="4" y="548" type="line"/>
      <point x="4" y="700" type="line"/>
      <point x="558" y="700" type="line"/>
      <point x="558" y="548" type="line"/>
      <point x="366" y="548" type="line"/>
      <point x="366" y="0" type="line"/>
      <point x="196" y="0" type="line"/>
      <point x="196" y="548" type="line"/>
    </contour>
  </outline>
</glyph>
<glyph name="U" format="1">
  <advance width="699"/>
  <unicode hex="0055"/>
  <outline>
    <contour>
      <point x="69" y="700" type="line"/>
      <point x="238" y="700" type="line"/>
      <point x="238" y="242" type="line" smooth="yes"/>
      <point x="238" y="170"/>
      <point x="274" y="123"/>
      <point x="350" y="123" type="curve" smooth="yes"/>
      <point x="426" y="123"/>
      <point x="463" y="170"/>
      <point x="463" y="242" type="curve" smooth="yes"/>
      <point x="463" y="700" type="line"/>
      <point x="632" y="700" type="line"/>
      <point x="632" y="230" type="line" smooth="yes"/>
      <point x="632" y="54"/>
      <point x="508" y="-28"/>
      <point x="350" y="-28" type="curve" smooth="yes"/>
      <point x="192" y="-28"/>
      <point x="69" y="54"/>
      <point x="69" y="230" type="curve" smooth="yes"/>
    </contour>
  </outline>
</glyph>
<glyph name="W" format="1">
  <advance width="1063"/>
  <unicode hex="0057"/>
  <outline>
    <contour>
      <point x="729" y="284" type="line"/>
      <point x="860" y="700" type="line"/>
      <point x="1060" y="700" type="line"/>
      <point x="758" y="-41" type="line"/>
      <point x="532" y="382" type="line"/>
      <point x="306" y="-41" type="line"/>
      <point x="4" y="700" type="line"/>
      <point x="204" y="700" type="line"/>
      <point x="336" y="284" type="line"/>
      <point x="532" y="735" type="line"/>
    </contour>
  </outline>
</glyph>
<glyph name="Y" format="1">
  <advance width="659"/>
  <unicode hex="0059"/>
  <outline>
    <contour>
      <point x="466" y="700" type="line"/>
      <point x="660" y="700" type="line"/>
      <point x="416" y="285" type="line"/>
      <point x="416" y="0" type="line"/>
      <point x="244" y="0" type="line"/>
      <point x="244" y="284" type="line"/>
      <point x="-1" y="700" type="line"/>
      <point x="193" y="700" type="line"/>
      <point x="330" y="436" type="line"/>
    </contour>
  </outline>
</glyph>
<glyph name="backslash" format="1">
  <advance width="545"/>
  <unicode hex="005C"/>
  <outline>
    <contour>
      <point x="15" y="700" type="line"/>
      <point x="162" y="700" type="line"/>
      <point x="531" y="0" type="line"/>
      <point x="384" y="0" type="line"/>
    </contour>
  </outline>
</glyph>
<glyph name="underscore" format="1">
  <advance width="530"/>
  <unicode hex="005F"/>
  <outline>
    <contour>
      <point x="0" y="-154" type="line"/>
      <point x="0" y="-58" type="line"/>
      <point x="531" y="-58" type="line"/>
      <point x="531" y="-154" type="line"/>
    </contour>
  </outline>
</glyph>
<glyph name="grave" format="1">
  <advance width="375"/>
  <unicode hex="0060"/>
  <outline>
    <contour>
      <point x="54" y="654" type="line"/>
      <point x="168" y="706" type="line"/>
      <point x="318" y="546" type="line"/>
      <point x="234" y="504" type="line"/>
    </contour>
  </outline>
</glyph>
<glyph name="b" format="1">
  <advance width="616"/>
  <unicode hex="0062"/>
  <outline>
    <contour>
      <point x="209" y="780" type="line"/>
      <point x="209" y="0" type="line"/>
      <point x="58" y="0" type="line"/>
      <point x="58" y="780" type="line"/>
    </contour>
    <contour>
      <point x="585" y="230" type="curve" smooth="yes"/>
      <point x="585" y="75"/>
      <point x="478" y="-10"/>
      <point x="366" y="-10" type="curve" smooth="yes"/>
      <point x="251" y="-10"/>
      <point x="167" y="81"/>
      <point x="167" y="230" type="curve" smooth="yes"/>
      <point x="167" y="379"/>
      <point x="251" y="470"/>
      <point x="366" y="470" type="curve" smooth="yes"/>
      <point x="478" y="470"/>
      <point x="585" y="385"/>
    </contour>
    <contour>
      <point x="426" y="230" type="curve" smooth="yes"/>
      <point x="426" y="302"/>
      <point x="376" y="349"/>
      <point x="316" y="349" type="curve" smooth="yes"/>
      <point x="264" y="349"/>
      <point x="209" y="305"/>
      <point x="209" y="230" type="curve" smooth="yes"/>
      <point x="209" y="155"/>
      <point x="264" y="111"/>
      <point x="316" y="111" type="curve" smooth="yes"/>
      <point x="376" y="111"/>
      <point x="426" y="158"/>
    </contour>
  </outline>
</glyph>
<glyph name="f" format="1">
  <advance width="343"/>
  <unicode hex="0066"/>
  <outline>
    <contour>
      <point x="18" y="460" type="line"/>
      <point x="332" y="460" type="line"/>
      <point x="332" y="335" type="line"/>
      <point x="18" y="335" type="line"/>
    </contour>
    <contour>
      <point x="315" y="635" type="line"/>
      <point x="301" y="653"/>
      <point x="287" y="660"/>
      <point x="269" y="660" type="curve" smooth="yes"/>
      <point x="239" y="660"/>
      <point x="221" y="640"/>
      <point x="221" y="592" type="curve" smooth="yes"/>
      <point x="221" y="0" type="line"/>
      <point x="76" y="0" type="line"/>
      <point x="76" y="630" type="line" smooth="yes"/>
      <point x="76" y="733"/>
      <point x="134" y="796"/>
      <point x="249" y="796" type="curve" smooth="yes"/>
      <point x="317" y="796"/>
      <point x="355" y="766"/>
      <point x="376" y="746" type="curve"/>
    </contour>
  </outline>
</glyph>
<glyph name="h" format="1">
  <advance width="568"/>
  <unicode hex="0068"/>
  <outline>
    <contour>
      <point x="211" y="780" type="line"/>
      <point x="211" y="0" type="line"/>
      <point x="60" y="0" type="line"/>
      <point x="60" y="780" type="line"/>
    </contour>
    <contour>
      <point x="358" y="280" type="line" smooth="yes"/>
      <point x="358" y="334"/>
      <point x="340" y="365"/>
      <point x="290" y="365" type="curve" smooth="yes"/>
      <point x="242" y="365"/>
      <point x="211" y="334"/>
      <point x="211" y="280" type="curve"/>
      <point x="185" y="280" type="line"/>
      <point x="185" y="389"/>
      <point x="237" y="477"/>
      <point x="351" y="477" type="curve" smooth="yes"/>
      <point x="465" y="477"/>
      <point x="509" y="415"/>
      <point x="509" y="302" type="curve" smooth="yes"/>
      <point x="509" y="0" type="line"/>
      <point x="358" y="0" type="line"/>
    </contour>
  </outline>
</glyph>
<glyph name="j" format="1">
  <advance width="271"/>
  <unicode hex="006A"/>
  <outline>
    <contour>
      <point x="46" y="632" type="curve" smooth="yes"/>
      <point x="46" y="680"/>
      <point x="86" y="714"/>
      <point x="134" y="714" type="curve" smooth="yes"/>
      <point x="182" y="714"/>
      <point x="222" y="680"/>
      <point x="222" y="632" type="curve" smooth="yes"/>
      <point x="222" y="584"/>
      <point x="182" y="551"/>
      <point x="134" y="551" type="curve" smooth="yes"/>
      <point x="86" y="551"/>
      <point x="46" y="584"/>
    </contour>
    <contour>
      <point x="-33" y="-77" type="line"/>
      <point x="-19" y="-95"/>
      <point x="-4" y="-103"/>
      <point x="14" y="-103" type="curve" smooth="yes"/>
      <point x="44" y="-103"/>
      <point x="62" y="-82"/>
      <point x="62" y="-34" type="curve" smooth="yes"/>
      <point x="62" y="460" type="line"/>
      <point x="206" y="460" type="line"/>
      <point x="206" y="-72" type="line" smooth="yes"/>
      <point x="206" y="-175"/>
      <point x="148" y="-238"/>
      <point x="33" y="-238" type="curve" smooth="yes"/>
      <point x="-35" y="-238"/>
      <point x="-73" y="-208"/>
      <point x="-94" y="-188" type="curve"/>
    </contour>
  </outline>
</glyph>
<glyph name="t" format="1">
  <advance width="317"/>
  <unicode hex="0074"/>
  <outline>
    <contour>
      <point x="5" y="460" type="line"/>
      <point x="312" y="460" type="line"/>
      <point x="312" y="335" type="line"/>
      <point x="5" y="335" type="line"/>
    </contour>
    <contour>
      <point x="86" y="620" type="line"/>
      <point x="232" y="620" type="line"/>
      <point x="232" y="0" type="line"/>
      <point x="86" y="0" type="line"/>
    </contour>
  </outline>
</glyph>
<glyph name="v" format="1">
  <advance width="526"/>
  <unicode hex="0076"/>
  <outline>
    <contour>
      <point x="-3" y="460" type="line"/>
      <point x="158" y="460" type="line"/>
      <point x="263" y="204" type="line"/>
      <point x="368" y="460" type="line"/>
      <point x="530" y="460" type="line"/>
      <point x="263" y="-54" type="line"/>
    </contour>
  </outline>
</glyph>
<glyph name="w" format="1">
  <advance width="760"/>
  <unicode hex="0077"/>
  <outline>
    <contour>
      <point x="-8" y="460" type="line"/>
      <point x="151" y="460" type="line"/>
      <point x="247" y="224" type="line"/>
      <point x="378" y="495" type="line"/>
      <point x="514" y="224" type="line"/>
      <point x="610" y="460" type="line"/>
      <point x="768" y="460" type="line"/>
      <point x="531" y="-29" type="line"/>
      <point x="379" y="244" type="line"/>
      <point x="230" y="-29" type="line"/>
    </contour>
  </outline>
</glyph>
<glyph name="y" format="1">
  <advance width="520"/>
  <unicode hex="0079"/>
  <outline>
    <contour>
      <point x="530" y="460" type="line"/>
      <point x="230" y="-220" type="line"/>
      <point x="78" y="-220" type="line"/>
      <point x="190" y="38" type="line"/>
      <point x="-9" y="460" type="line"/>
      <point x="157" y="460" type="line"/>
      <point x="306" y="91" type="line"/>
      <point x="228" y="92" type="line"/>
      <point x="374" y="460" type="line"/>
    </contour>
  </outline>
</glyph>
<glyph name="braceleft" format="1">
  <advance width="398"/>
  <unicode hex="007B"/>
  <outline>
    <contour>
      <point x="266" y="610" type="curve" smooth="yes"/>
      <point x="266" y="490" type="line" smooth="yes"/>
      <point x="266" y="401"/>
      <point x="262" y="280"/>
      <point x="122" y="280" type="curve"/>
      <point x="122" y="300" type="line"/>
      <point x="262" y="300"/>
      <point x="266" y="179"/>
      <point x="266" y="90" type="curve" smooth="yes"/>
      <point x="266" y="-30" type="line" smooth="yes"/>
      <point x="266" y="-56"/>
      <point x="284" y="-80"/>
      <point x="314" y="-80" type="curve" smooth="yes"/>
      <point x="348" y="-80" type="line"/>
      <point x="348" y="-200" type="line"/>
      <point x="258" y="-200" type="line" smooth="yes"/>
      <point x="176" y="-200"/>
      <point x="98" y="-159"/>
      <point x="98" y="-60" type="curve" smooth="yes"/>
      <point x="98" y="125" type="line" smooth="yes"/>
      <point x="98" y="201"/>
      <point x="80" y="225"/>
      <point x="38" y="235" type="curve"/>
      <point x="38" y="345" type="line"/>
      <point x="80" y="355"/>
      <point x="98" y="379"/>
      <point x="98" y="455" type="curve" smooth="yes"/>
      <point x="98" y="640" type="line" smooth="yes"/>
      <point x="98" y="739"/>
      <point x="176" y="780"/>
      <point x="258" y="780" type="curve" smooth="yes"/>
      <point x="348" y="780" type="line"/>
      <point x="348" y="660" type="line"/>
      <point x="314" y="660" type="line" smooth="yes"/>
      <point x="284" y="660"/>
      <point x="266" y="636"/>
    </contour>
  </outline>
</glyph>
<glyph name="bar" format="1">
  <advance width="351"/>
  <unicode hex="007C"/>
  <outline>
    <contour>
      <point x="100" y="785" type="line"/>
      <point x="252" y="785" type="line"/>
      <point x="252" y="-215" type="line"/>
      <point x="100" y="-215" type="line"/>
    </contour>
  </outline>
</glyph>
<glyph name="sterling" format="1">
  <advance width="610"/>
  <unicode hex="00A3"/>
  <outline>
    <contour>
      <point x="67" y="370" type="line"/>
      <point x="446" y="370" type="line"/>
      <point x="446" y="270" type="line"/>
      <point x="67" y="270" type="line"/>
    </contour>
    <contour>
      <point x="434" y="466" type="line"/>
      <point x="430" y="520"/>
      <point x="408" y="576"/>
      <point x="334" y="576" type="curve" smooth="yes"/>
      <point x="286" y="576"/>
      <point x="243" y="554"/>
      <point x="243" y="496" type="curve" smooth="yes"/>
      <point x="243" y="411"/>
      <point x="335" y="382"/>
      <point x="335" y="270" type="curve" smooth="yes"/>
      <point x="335" y="164"/>
      <point x="214" y="70"/>
      <point x="140" y="50" type="curve"/>
      <point x="191" y="139" type="line"/>
      <point x="538" y="139" type="line"/>
      <point x="538" y="0" type="line"/>
      <point x="52" y="0" type="line"/>
      <point x="150" y="102"/>
      <point x="190" y="186"/>
      <point x="190" y="286" type="curve" smooth="yes"/>
      <point x="190" y="380"/>
      <point x="85" y="403"/>
      <point x="85" y="521" type="curve" smooth="yes"/>
      <point x="85" y="640"/>
      <point x="195" y="710"/>
      <point x="327" y="710" type="curve" smooth="yes"/>
      <point x="479" y="710"/>
      <point x="566" y="603"/>
      <point x="571" y="517" type="curve"/>
    </contour>
  </outline>
</glyph>
<glyph name="currency" format="1">
  <advance width="576"/>
  <unicode hex="00A4"/>
  <outline>
    <contour>
      <point x="23" y="503" type="line"/>
      <point x="86" y="566" type="line"/>
      <point x="184" y="465" type="line"/>
      <point x="124" y="404" type="line"/>
    </contour>
    <contour>
      <point x="86" y="34" type="line"/>
      <point x="23" y="97" type="line"/>
      <point x="124" y="196" type="line"/>
      <point x="184" y="135" type="line"/>
    </contour>
    <contour>
      <point x="454" y="404" type="line"/>
      <point x="392" y="465" type="line"/>
      <point x="492" y="566" type="line"/>
      <point x="554" y="503" type="line"/>
    </contour>
    <contour>
      <point x="392" y="135" type="line"/>
      <point x="454" y="196" type="line"/>
      <point x="554" y="97" type="line"/>
      <point x="492" y="34" type="line"/>
    </contour>
    <contour>
      <point x="50" y="300" type="curve" smooth="yes"/>
      <point x="50" y="439"/>
      <point x="153" y="540"/>
      <point x="288" y="540" type="curve" smooth="yes"/>
      <point x="423" y="540"/>
      <point x="526" y="439"/>
      <point x="526" y="300" type="curve" smooth="yes"/>
      <point x="526" y="161"/>
      <point x="423" y="60"/>
      <point x="288" y="60" type="curve" smooth="yes"/>
      <point x="153" y="60"/>
      <point x="50" y="161"/>
    </contour>
    <contour>
      <point x="188" y="300" type="curve" smooth="yes"/>
      <point x="188" y="238"/>
      <point x="229" y="197"/>
      <point x="288" y="197" type="curve" smooth="yes"/>
      <point x="347" y="197"/>
      <point x="390" y="238"/>
      <point x="390" y="300" type="curve" smooth="yes"/>
      <point x="390" y="362"/>
      <point x="347" y="403"/>
      <point x="288" y="403" type="curve" smooth="yes"/>
      <point x="229" y="403"/>
      <point x="188" y="362"/>
    </contour>
  </outline>
</glyph>
<glyph name="yen" format="1">
  <advance width="668"/>
  <unicode hex="00A5"/>
  <outline>
    <contour>
      <point x="45" y="266" type="line"/>
      <point x="45" y="365" type="line"/>
      <point x="620" y="365" type="line"/>
      <point x="620" y="266" type="line"/>
    </contour>
    <contour>
      <point x="45" y="116" type="line"/>
      <point x="45" y="215" type="line"/>
      <point x="620" y="215" type="line"/>
      <point x="620" y="116" type="line"/>
    </contour>
    <contour>
      <point x="471" y="700" type="line"/>
      <point x="664" y="700" type="line"/>
      <point x="421" y="288" type="line"/>
      <point x="421" y="0" type="line"/>
      <point x="248" y="0" type="line"/>
      <point x="248" y="284" type="line"/>
      <point x="2" y="700" type="line"/>
      <point x="197" y="700" type="line"/>
      <point x="333" y="436" type="line"/>
    </contour>
  </outline>
</glyph>
<glyph name="section" format="1">
  <advance width="575"/>
  <unicode hex="00A7"/>
  <outline>
    <contour>
      <point x="400" y="549" type="line"/>
      <point x="372" y="579"/>
      <point x="325" y="598"/>
      <point x="294" y="598" type="curve" smooth="yes"/>
      <point x="260" y="598"/>
      <point x="242" y="587"/>
      <point x="242" y="569" type="curve" smooth="yes"/>
      <point x="242" y="543"/>
      <point x="290" y="535"/>
      <point x="344" y="519" type="curve" smooth="yes"/>
      <point x="420" y="497"/>
      <point x="480" y="451"/>
      <point x="480" y="378" type="curve" smooth="yes"/>
      <point x="480" y="274"/>
      <point x="376" y="228"/>
      <point x="268" y="228" type="curve"/>
      <point x="268" y="270" type="line"/>
      <point x="306" y="276"/>
      <point x="342" y="304"/>
      <point x="342" y="344" type="curve" smooth="yes"/>
      <point x="342" y="398"/>
      <point x="273" y="416"/>
      <point x="221" y="436" type="curve" smooth="yes"/>
      <point x="163" y="458"/>
      <point x="99" y="495"/>
      <point x="99" y="578" type="curve" smooth="yes"/>
      <point x="99" y="674"/>
      <point x="194" y="724"/>
      <point x="284" y="724" type="curve" smooth="yes"/>
      <point x="364" y="724"/>
      <point x="444" y="689"/>
      <point x="472" y="648" type="curve"/>
    </contour>
    <contour>
      <point x="128" y="174" type="line"/>
      <point x="177" y="124"/>
      <point x="240" y="102"/>
      <point x="278" y="102" type="curve" smooth="yes"/>
      <point x="316" y="102"/>
      <point x="332" y="115"/>
      <point x="332" y="137" type="curve" smooth="yes"/>
      <point x="332" y="169"/>
      <point x="289" y="178"/>
      <point x="235" y="194" type="curve" smooth="yes"/>
      <point x="159" y="214"/>
      <point x="84" y="257"/>
      <point x="84" y="334" type="curve" smooth="yes"/>
      <point x="84" y="428"/>
      <point x="189" y="480"/>
      <point x="303" y="480" type="curve"/>
      <point x="303" y="442" type="line"/>
      <point x="261" y="428"/>
      <point x="226" y="410"/>
      <point x="226" y="369" type="curve" smooth="yes"/>
      <point x="226" y="309"/>
      <point x="306" y="299"/>
      <point x="357" y="278" type="curve" smooth="yes"/>
      <point x="422" y="251"/>
      <point x="484" y="210"/>
      <point x="484" y="130" type="curve" smooth="yes"/>
      <point x="484" y="25"/>
      <point x="384" y="-22"/>
      <point x="285" y="-22" type="curve" smooth="yes"/>
      <point x="175" y="-22"/>
      <point x="101" y="20"/>
      <point x="56" y="76" type="curve"/>
    </contour>
  </outline>
</glyph>
<glyph name="copyright" format="1">
  <advance width="800"/>
  <unicode hex="00A9"/>
  <outline>
    <contour>
      <point x="289" y="350" type="curve" smooth="yes"/>
      <point x="289" y="272"/>
      <point x="345" y="226"/>
      <point x="415" y="226" type="curve" smooth="yes"/>
      <point x="474" y="226"/>
      <point x="512" y="252"/>
      <point x="540" y="282" type="curve"/>
      <point x="540" y="172" type="line"/>
      <point x="506" y="146"/>
      <point x="470" y="130"/>
      <point x="409" y="130" type="curve" smooth="yes"/>
      <point x="275" y="130"/>
      <point x="178" y="220"/>
      <point x="178" y="350" type="curve" smooth="yes"/>
      <point x="178" y="480"/>
      <point x="275" y="570"/>
      <point x="409" y="570" type="curve" smooth="yes"/>
      <point x="470" y="570"/>
      <point x="506" y="554"/>
      <point x="540" y="528" type="curve"/>
      <point x="540" y="418" type="line"/>
      <point x="512" y="448"/>
      <point x="474" y="474"/>
      <point x="415" y="474" type="curve" smooth="yes"/>
      <point x="345" y="474"/>
      <point x="289" y="428"/>
    </contour>
    <contour>
      <point x="95" y="350" type="curve" smooth="yes"/>
      <point x="95" y="172"/>
      <point x="227" y="40"/>
      <point x="400" y="40" type="curve" smooth="yes"/>
      <point x="573" y="40"/>
      <point x="705" y="172"/>
      <point x="705" y="350" type="curve" smooth="yes"/>
      <point x="705" y="528"/>
      <point x="573" y="660"/>
      <point x="400" y="660" type="curve" smooth="yes"/>
      <point x="227" y="660"/>
      <point x="95" y="528"/>
    </contour>
    <contour>
      <point x="40" y="350" type="curve" smooth="yes"/>
      <point x="40" y="559"/>
      <point x="196" y="710"/>
      <point x="400" y="710" type="curve" smooth="yes"/>
      <point x="604" y="710"/>
      <point x="760" y="559"/>
      <point x="760" y="350" type="curve" smooth="yes"/>
      <point x="760" y="141"/>
      <point x="604" y="-10"/>
      <point x="400" y="-10" type="curve" smooth="yes"/>
      <point x="196" y="-10"/>
      <point x="40" y="141"/>
    </contour>
  </outline>
</glyph>
<glyph name="ordfeminine" format="1">
  <advance width="269"/>
  <unicode hex="00AA"/>
  <outline>
    <contour>
      <point x="94" y="530" type="curve" smooth="yes"/>
      <point x="94" y="514"/>
      <point x="105" y="505"/>
      <point x="127" y="505" type="curve" smooth="yes"/>
      <point x="153" y="505"/>
      <point x="178" y="516"/>
      <point x="178" y="553" type="curve"/>
      <point x="186" y="525" type="line"/>
      <point x="186" y="481"/>
      <point x="150" y="455"/>
      <point x="102" y="455" type="curve" smooth="yes"/>
      <point x="54" y="455"/>
      <point x="18" y="482"/>
      <point x="18" y="528" type="curve" smooth="yes"/>
      <point x="18" y="574"/>
      <point x="60" y="603"/>
      <point x="116" y="603" type="curve" smooth="yes"/>
      <point x="151" y="603"/>
      <point x="184" y="589"/>
      <point x="194" y="579" type="curve"/>
      <point x="194" y="543" type="line"/>
      <point x="176" y="556"/>
      <point x="160" y="562"/>
      <point x="134" y="562" type="curve" smooth="yes"/>
      <point x="110" y="562"/>
      <point x="94" y="548"/>
    </contour>
    <contour>
      <point x="64" y="624" type="curve"/>
      <point x="38" y="678" type="line"/>
      <point x="64" y="690"/>
      <point x="102" y="705"/>
      <point x="144" y="705" type="curve" smooth="yes"/>
      <point x="206" y="705"/>
      <point x="250" y="678"/>
      <point x="250" y="630" type="curve" smooth="yes"/>
      <point x="250" y="460" type="line"/>
      <point x="178" y="460" type="line"/>
      <point x="178" y="610" type="line" smooth="yes"/>
      <point x="178" y="630"/>
      <point x="163" y="646"/>
      <point x="138" y="646" type="curve" smooth="yes"/>
      <point x="105" y="646"/>
      <point x="75" y="630"/>
    </contour>
  </outline>
</glyph>
<glyph name="guillemotleft" format="1">
  <advance width="540"/>
  <unicode hex="00AB"/>
  <outline>
    <contour>
      <point x="352" y="259" type="line"/>
      <point x="502" y="65" type="line"/>
      <point x="408" y="2" type="line"/>
      <point x="231" y="255" type="line"/>
      <point x="408" y="508" type="line"/>
      <point x="502" y="445" type="line"/>
    </contour>
    <contour>
      <point x="148" y="259" type="line"/>
      <point x="298" y="65" type="line"/>
      <point x="206" y="2" type="line"/>
      <point x="28" y="255" type="line"/>
      <point x="206" y="508" type="line"/>
      <point x="298" y="445" type="line"/>
    </contour>
  </outline>
</glyph>
<glyph name="registered" format="1">
  <advance width="800"/>
  <unicode hex="00AE"/>
  <outline>
    <contour>
      <point x="376" y="328" type="line"/>
      <point x="470" y="328" type="line"/>
      <point x="589" y="150" type="line"/>
      <point x="470" y="150" type="line"/>
    </contour>
    <contour>
      <point x="254" y="570" type="line"/>
      <point x="355" y="570" type="line"/>
      <point x="355" y="150" type="line"/>
      <point x="254" y="150" type="line"/>
    </contour>
    <contour>
      <point x="316" y="484" type="line"/>
      <point x="316" y="570" type="line"/>
      <point x="406" y="570" type="line" smooth="yes"/>
      <point x="513" y="570"/>
      <point x="570" y="514"/>
      <point x="570" y="440" type="curve" smooth="yes"/>
      <point x="570" y="359"/>
      <point x="513" y="302"/>
      <point x="406" y="302" type="curve" smooth="yes"/>
      <point x="316" y="302" type="line"/>
      <point x="316" y="380" type="line"/>
      <point x="400" y="380" type="line" smooth="yes"/>
      <point x="441" y="380"/>
      <point x="466" y="397"/>
      <point x="466" y="432" type="curve" smooth="yes"/>
      <point x="466" y="467"/>
      <point x="441" y="485"/>
      <point x="400" y="485" type="curve" smooth="yes"/>
    </contour>
    <contour>
      <point x="95" y="350" type="curve" smooth="yes"/>
      <point x="95" y="172"/>
      <point x="227" y="40"/>
      <point x="400" y="40" type="curve" smooth="yes"/>
      <point x="573" y="40"/>
      <point x="705" y="172"/>
      <point x="705" y="350" type="curve" smooth="yes"/>
      <point x="705" y="528"/>
      <point x="573" y="660"/>
      <point x="400" y="660" type="curve" smooth="yes"/>
      <point x="227" y="660"/>
      <point x="95" y="528"/>
    </contour>
    <contour>
      <point x="40" y="350" type="curve" smooth="yes"/>
      <point x="40" y="559"/>
      <point x="196" y="710"/>
      <point x="400" y="710" type="curve" smooth="yes"/>
      <point x="604" y="710"/>
      <point x="760" y="559"/>
      <point x="760" y="350" type="curve" smooth="yes"/>
      <point x="760" y="141"/>
      <point x="604" y="-10"/>
      <point x="400" y="-10" type="curve" smooth="yes"/>
      <point x="196" y="-10"/>
      <point x="40" y="141"/>
    </contour>
  </outline>
</glyph>
<glyph name="macron" format="1">
  <advance width="531"/>
  <unicode hex="00AF"/>
  <outline>
    <contour>
      <point x="80" y="572" type="line"/>
      <point x="80" y="702" type="line"/>
      <point x="452" y="702" type="line"/>
      <point x="452" y="572" type="line"/>
    </contour>
  </outline>
</glyph>
<glyph name="degree" format="1">
  <advance width="295"/>
  <unicode hex="00B0"/>
  <outline>
    <contour>
      <point x="17" y="597" type="curve" smooth="yes"/>
      <point x="17" y="669"/>
      <point x="72" y="720"/>
      <point x="148" y="720" type="curve" smooth="yes"/>
      <point x="224" y="720"/>
      <point x="280" y="669"/>
      <point x="280" y="597" type="curve" smooth="yes"/>
      <point x="280" y="525"/>
      <point x="224" y="474"/>
      <point x="148" y="474" type="curve" smooth="yes"/>
      <point x="72" y="474"/>
      <point x="17" y="525"/>
    </contour>
    <contour>
      <point x="91" y="597" type="curve" smooth="yes"/>
      <point x="91" y="561"/>
      <point x="116" y="538"/>
      <point x="148" y="538" type="curve" smooth="yes"/>
      <point x="180" y="538"/>
      <point x="205" y="561"/>
      <point x="205" y="597" type="curve" smooth="yes"/>
      <point x="205" y="633"/>
      <point x="180" y="656"/>
      <point x="148" y="656" type="curve" smooth="yes"/>
      <point x="116" y="656"/>
      <point x="91" y="633"/>
    </contour>
  </outline>
</glyph>
<glyph name="uni00B2" format="1">
  <advance width="408"/>
  <unicode hex="00B2"/>
  <outline>
    <contour>
      <point x="25" y="282" type="line"/>
      <point x="212" y="476" type="line" smooth="yes"/>
      <point x="246" y="512"/>
      <point x="266" y="536"/>
      <point x="266" y="570" type="curve" smooth="yes"/>
      <point x="266" y="597"/>
      <point x="248" y="624"/>
      <point x="210" y="624" type="curve" smooth="yes"/>
      <point x="171" y="624"/>
      <point x="145" y="592"/>
      <point x="145" y="547" type="curve"/>
      <point x="46" y="547" type="line"/>
      <point x="46" y="636"/>
      <point x="104" y="711"/>
      <point x="214" y="711" type="curve" smooth="yes"/>
      <point x="318" y="711"/>
      <point x="371" y="641"/>
      <point x="371" y="575" type="curve" smooth="yes"/>
      <point x="371" y="530"/>
      <point x="346" y="493"/>
      <point x="310" y="462" type="curve" smooth="yes"/>
      <point x="213" y="375" type="line"/>
      <point x="381" y="375" type="line"/>
      <point x="381" y="282" type="line"/>
    </contour>
  </outline>
</glyph>
<glyph name="uni00B3" format="1">
  <advance width="364"/>
  <unicode hex="00B3"/>
  <outline>
    <contour>
      <point x="154" y="483" type="curve"/>
      <point x="154" y="528" type="line"/>
      <point x="200" y="528"/>
      <point x="232" y="555"/>
      <point x="232" y="586" type="curve" smooth="yes"/>
      <point x="232" y="612"/>
      <point x="216" y="627"/>
      <point x="184" y="627" type="curve" smooth="yes"/>
      <point x="152" y="627"/>
      <point x="129" y="608"/>
      <point x="129" y="578" type="curve"/>
      <point x="36" y="578" type="line"/>
      <point x="36" y="652"/>
      <point x="94" y="708"/>
      <point x="184" y="708" type="curve" smooth="yes"/>
      <point x="278" y="708"/>
      <point x="332" y="656"/>
      <point x="332" y="592" type="curve" smooth="yes"/>
      <point x="332" y="520"/>
      <point x="254" y="483"/>
    </contour>
    <contour>
      <point x="180" y="270" type="curve" smooth="yes"/>
      <point x="78" y="270"/>
      <point x="18" y="340"/>
      <point x="18" y="414" type="curve"/>
      <point x="118" y="414" type="line"/>
      <point x="118" y="372"/>
      <point x="149" y="352"/>
      <point x="184" y="352" type="curve" smooth="yes"/>
      <point x="219" y="352"/>
      <point x="244" y="367"/>
      <point x="244" y="404" type="curve" smooth="yes"/>
      <point x="244" y="439"/>
      <point x="216" y="464"/>
      <point x="154" y="464" type="curve"/>
      <point x="154" y="515" type="line"/>
      <point x="265" y="515"/>
      <point x="344" y="479"/>
      <point x="344" y="395" type="curve" smooth="yes"/>
      <point x="344" y="323"/>
      <point x="282" y="270"/>
    </contour>
  </outline>
</glyph>
<glyph name="acute" format="1">
  <advance width="375"/>
  <unicode hex="00B4"/>
  <outline>
    <contour>
      <point x="319" y="654" type="line"/>
      <point x="139" y="504" type="line"/>
      <point x="53" y="546" type="line"/>
      <point x="203" y="706" type="line"/>
    </contour>
  </outline>
</glyph>
<glyph name="mu" format="1">
  <advance width="574"/>
  <unicode hex="00B5"/>
  <outline>
    <contour>
      <point x="364" y="0" type="line"/>
      <point x="364" y="460" type="line"/>
      <point x="515" y="460" type="line"/>
      <point x="515" y="0" type="line"/>
    </contour>
    <contour>
      <point x="217" y="180" type="line" smooth="yes"/>
      <point x="217" y="126"/>
      <point x="234" y="95"/>
      <point x="284" y="95" type="curve" smooth="yes"/>
      <point x="332" y="95"/>
      <point x="364" y="126"/>
      <point x="364" y="180" type="curve"/>
      <point x="394" y="186" type="line"/>
      <point x="394" y="77"/>
      <point x="338" y="-10"/>
      <point x="224" y="-10" type="curve" smooth="yes"/>
      <point x="110" y="-10"/>
      <point x="60" y="51"/>
      <point x="60" y="164" type="curve" smooth="yes"/>
      <point x="60" y="460" type="line"/>
      <point x="217" y="460" type="line"/>
    </contour>
    <contour>
      <point x="60" y="460" type="line"/>
      <point x="205" y="460" type="line"/>
      <point x="205" y="-320" type="line"/>
      <point x="60" y="-320" type="line"/>
    </contour>
  </outline>
</glyph>
<glyph name="ordmasculine" format="1">
  <advance width="278"/>
  <unicode hex="00BA"/>
  <outline>
    <contour>
      <point x="18" y="580" type="curve" smooth="yes"/>
      <point x="18" y="652"/>
      <point x="74" y="700"/>
      <point x="150" y="700" type="curve" smooth="yes"/>
      <point x="226" y="700"/>
      <point x="282" y="652"/>
      <point x="282" y="580" type="curve" smooth="yes"/>
      <point x="282" y="508"/>
      <point x="226" y="460"/>
      <point x="150" y="460" type="curve" smooth="yes"/>
      <point x="74" y="460"/>
      <point x="18" y="508"/>
    </contour>
    <contour>
      <point x="96" y="580" type="curve" smooth="yes"/>
      <point x="96" y="544"/>
      <point x="120" y="522"/>
      <point x="150" y="522" type="curve" smooth="yes"/>
      <point x="180" y="522"/>
      <point x="204" y="544"/>
      <point x="204" y="580" type="curve" smooth="yes"/>
      <point x="204" y="616"/>
      <point x="180" y="638"/>
      <point x="150" y="638" type="curve" smooth="yes"/>
      <point x="120" y="638"/>
      <point x="96" y="616"/>
    </contour>
  </outline>
</glyph>
<glyph name="onequarter" format="1">
  <advance width="821"/>
  <unicode hex="00BC"/>
  <outline>
    <contour>
      <point x="630" y="700" type="line"/>
      <point x="726" y="700" type="line"/>
      <point x="206" y="0" type="line"/>
      <point x="110" y="0" type="line"/>
    </contour>
    <contour>
      <point x="24" y="572" type="line"/>
      <point x="24" y="661" type="line"/>
      <point x="226" y="702" type="line"/>
      <point x="226" y="274" type="line"/>
      <point x="128" y="274" type="line"/>
      <point x="128" y="599" type="line"/>
    </contour>
    <contour>
      <point x="406" y="75" type="line"/>
      <point x="490" y="148" type="line"/>
      <point x="675" y="148" type="line" smooth="yes"/>
      <point x="685" y="160" type="line" smooth="yes"/>
      <point x="792" y="160" type="line"/>
      <point x="792" y="75" type="line"/>
    </contour>
    <contour>
      <point x="509" y="104" type="line"/>
      <point x="406" y="75" type="line"/>
      <point x="651" y="420" type="line"/>
      <point x="726" y="420" type="line"/>
      <point x="726" y="0" type="line"/>
      <point x="621" y="0" type="line"/>
      <point x="621" y="97" type="line" smooth="yes"/>
      <point x="632" y="103" type="line" smooth="yes"/>
      <point x="632" y="274" type="line"/>
    </contour>
  </outline>
</glyph>
<glyph name="onehalf" format="1">
  <advance width="892"/>
  <unicode hex="00BD"/>
  <outline>
    <contour>
      <point x="630" y="700" type="line"/>
      <point x="726" y="700" type="line"/>
      <point x="206" y="0" type="line"/>
      <point x="110" y="0" type="line"/>
    </contour>
    <contour>
      <point x="24" y="572" type="line"/>
      <point x="24" y="661" type="line"/>
      <point x="226" y="702" type="line"/>
      <point x="226" y="274" type="line"/>
      <point x="128" y="274" type="line"/>
      <point x="128" y="599" type="line"/>
    </contour>
    <contour>
      <point x="506" y="2" type="line"/>
      <point x="692" y="196" type="line" smooth="yes"/>
      <point x="726" y="232"/>
      <point x="746" y="256"/>
      <point x="746" y="290" type="curve" smooth="yes"/>
      <point x="746" y="317"/>
      <point x="728" y="344"/>
      <point x="690" y="344" type="curve" smooth="yes"/>
      <point x="650" y="344"/>
      <point x="625" y="312"/>
      <point x="625" y="266" type="curve"/>
      <point x="526" y="266" type="line"/>
      <point x="526" y="355"/>
      <point x="584" y="430"/>
      <point x="694" y="430" type="curve" smooth="yes"/>
      <point x="798" y="430"/>
      <point x="851" y="360"/>
      <point x="851" y="295" type="curve" smooth="yes"/>
      <point x="851" y="251"/>
      <point x="827" y="213"/>
      <point x="791" y="182" type="curve" smooth="yes"/>
      <point x="692" y="94" type="line"/>
      <point x="861" y="94" type="line"/>
      <point x="861" y="2" type="line"/>
    </contour>
  </outline>
</glyph>
<glyph name="threequarters" format="1">
  <advance width="878"/>
  <unicode hex="00BE"/>
  <outline>
    <contour>
      <point x="694" y="700" type="line"/>
      <point x="790" y="700" type="line"/>
      <point x="270" y="0" type="line"/>
      <point x="174" y="0" type="line"/>
    </contour>
    <contour>
      <point x="162" y="483" type="curve"/>
      <point x="162" y="528" type="line"/>
      <point x="208" y="528"/>
      <point x="240" y="555"/>
      <point x="240" y="586" type="curve" smooth="yes"/>
      <point x="240" y="612"/>
      <point x="224" y="627"/>
      <point x="192" y="627" type="curve" smooth="yes"/>
      <point x="160" y="627"/>
      <point x="137" y="608"/>
      <point x="137" y="578" type="curve"/>
      <point x="44" y="578" type="line"/>
      <point x="44" y="652"/>
      <point x="102" y="708"/>
      <point x="192" y="708" type="curve" smooth="yes"/>
      <point x="286" y="708"/>
      <point x="340" y="656"/>
      <point x="340" y="592" type="curve" smooth="yes"/>
      <point x="340" y="520"/>
      <point x="262" y="483"/>
    </contour>
    <contour>
      <point x="188" y="270" type="curve" smooth="yes"/>
      <point x="86" y="270"/>
      <point x="26" y="340"/>
      <point x="26" y="414" type="curve"/>
      <point x="126" y="414" type="line"/>
      <point x="126" y="372"/>
      <point x="157" y="352"/>
      <point x="192" y="352" type="curve" smooth="yes"/>
      <point x="227" y="352"/>
      <point x="252" y="367"/>
      <point x="252" y="404" type="curve" smooth="yes"/>
      <point x="252" y="439"/>
      <point x="224" y="464"/>
      <point x="162" y="464" type="curve"/>
      <point x="162" y="515" type="line"/>
      <point x="273" y="515"/>
      <point x="352" y="479"/>
      <point x="352" y="395" type="curve" smooth="yes"/>
      <point x="352" y="323"/>
      <point x="290" y="270"/>
    </contour>
    <contour>
      <point x="464" y="75" type="line"/>
      <point x="547" y="148" type="line"/>
      <point x="733" y="148" type="line" smooth="yes"/>
      <point x="743" y="160" type="line" smooth="yes"/>
      <point x="850" y="160" type="line"/>
      <point x="850" y="75" type="line"/>
    </contour>
    <contour>
      <point x="566" y="104" type="line"/>
      <point x="464" y="75" type="line"/>
      <point x="708" y="420" type="line"/>
      <point x="784" y="420" type="line"/>
      <point x="784" y="0" type="line"/>
      <point x="678" y="0" type="line"/>
      <point x="678" y="97" type="line" smooth="yes"/>
      <point x="690" y="103" type="line" smooth="yes"/>
      <point x="690" y="274" type="line"/>
    </contour>
  </outline>
</glyph>
<glyph name="Aacute" format="1">
  <advance width="735"/>
  <unicode hex="00C1"/>
  <outline>
    <contour>
      <point x="184" y="135" type="line"/>
      <point x="196" y="264" type="line"/>
      <point x="544" y="264" type="line"/>
      <point x="554" y="135" type="line"/>
    </contour>
    <contour>
      <point x="368" y="442" type="line"/>
      <point x="270" y="217" type="line"/>
      <point x="277" y="179" type="line"/>
      <point x="190" y="0" type="line"/>
      <point x="-2" y="0" type="line"/>
      <point x="368" y="744" type="line"/>
      <point x="736" y="0" type="line"/>
      <point x="544" y="0" type="line"/>
      <point x="460" y="172" type="line"/>
      <point x="466" y="216" type="line"/>
    </contour>
    <contour>
      <point x="526" y="954" type="line"/>
      <point x="346" y="804" type="line"/>
      <point x="260" y="847" type="line"/>
      <point x="410" y="1007" type="line"/>
    </contour>
  </outline>
</glyph>
<glyph name="Atilde" format="1">
  <advance width="733"/>
  <unicode hex="00C3"/>
  <outline>
    <contour>
      <point x="184" y="136" type="line"/>
      <point x="196" y="264" type="line"/>
      <point x="543" y="264" type="line"/>
      <point x="554" y="136" type="line"/>
    </contour>
    <contour>
      <point x="367" y="443" type="line"/>
      <point x="269" y="218" type="line"/>
      <point x="277" y="180" type="line"/>
      <point x="190" y="0" type="line"/>
      <point x="-1" y="0" type="line"/>
      <point x="367" y="744" type="line"/>
      <point x="736" y="0" type="line"/>
      <point x="544" y="0" type="line"/>
      <point x="460" y="173" type="line"/>
      <point x="466" y="216" type="line"/>
    </contour>
    <contour>
      <point x="171" y="862" type="line"/>
      <point x="181" y="911"/>
      <point x="226" y="957"/>
      <point x="290" y="957" type="curve" smooth="yes"/>
      <point x="356" y="957"/>
      <point x="371" y="904"/>
      <point x="427" y="904" type="curve" smooth="yes"/>
      <point x="452" y="904"/>
      <point x="472" y="926"/>
      <point x="492" y="958" type="curve"/>
      <point x="564" y="884" type="line"/>
      <point x="548" y="847"/>
      <point x="491" y="798"/>
      <point x="429" y="798" type="curve" smooth="yes"/>
      <point x="374" y="798"/>
      <point x="340" y="852"/>
      <point x="290" y="852" type="curve" smooth="yes"/>
      <point x="252" y="852"/>
      <point x="242" y="815"/>
      <point x="242" y="800" type="curve"/>
    </contour>
  </outline>
</glyph>
<glyph name="Adieresis" format="1">
  <advance width="735"/>
  <unicode hex="00C4"/>
  <outline>
    <contour>
      <point x="184" y="135" type="line"/>
      <point x="196" y="264" type="line"/>
      <point x="544" y="264" type="line"/>
      <point x="554" y="135" type="line"/>
    </contour>
    <contour>
      <point x="368" y="442" type="line"/>
      <point x="270" y="217" type="line"/>
      <point x="277" y="179" type="line"/>
      <point x="190" y="0" type="line"/>
      <point x="-2" y="0" type="line"/>
      <point x="368" y="744" type="line"/>
      <point x="736" y="0" type="line"/>
      <point x="544" y="0" type="line"/>
      <point x="460" y="172" type="line"/>
      <point x="466" y="216" type="line"/>
    </contour>
    <contour>
      <point x="426" y="828" type="curve" smooth="yes"/>
      <point x="426" y="878"/>
      <point x="465" y="920"/>
      <point x="520" y="920" type="curve" smooth="yes"/>
      <point x="575" y="920"/>
      <point x="615" y="878"/>
      <point x="615" y="828" type="curve" smooth="yes"/>
      <point x="615" y="778"/>
      <point x="575" y="736"/>
      <point x="520" y="736" type="curve" smooth="yes"/>
      <point x="465" y="736"/>
      <point x="426" y="778"/>
    </contour>
    <contour>
      <point x="120" y="828" type="curve" smooth="yes"/>
      <point x="120" y="878"/>
      <point x="159" y="920"/>
      <point x="214" y="920" type="curve" smooth="yes"/>
      <point x="269" y="920"/>
      <point x="308" y="878"/>
      <point x="308" y="828" type="curve" smooth="yes"/>
      <point x="308" y="778"/>
      <point x="269" y="736"/>
      <point x="214" y="736" type="curve" smooth="yes"/>
      <point x="159" y="736"/>
      <point x="120" y="778"/>
    </contour>
  </outline>
</glyph>
<glyph name="Aring" format="1">
  <advance width="733"/>
  <unicode hex="00C5"/>
  <outline>
    <contour>
      <point x="184" y="136" type="line"/>
      <point x="196" y="264" type="line"/>
      <point x="543" y="264" type="line"/>
      <point x="554" y="136" type="line"/>
    </contour>
    <contour>
      <point x="367" y="443" type="line"/>
      <point x="269" y="218" type="line"/>
      <point x="277" y="180" type="line"/>
      <point x="190" y="0" type="line"/>
      <point x="-1" y="0" type="line"/>
      <point x="367" y="744" type="line"/>
      <point x="736" y="0" type="line"/>
      <point x="544" y="0" type="line"/>
      <point x="460" y="173" type="line"/>
      <point x="466" y="216" type="line"/>
    </contour>
    <contour>
      <point x="242" y="800" type="curve" smooth="yes"/>
      <point x="242" y="868"/>
      <point x="297" y="916"/>
      <point x="367" y="916" type="curve" smooth="yes"/>
      <point x="437" y="916"/>
      <point x="492" y="868"/>
      <point x="492" y="800" type="curve" smooth="yes"/>
      <point x="492" y="732"/>
      <point x="437" y="685"/>
      <point x="367" y="685" type="curve" smooth="yes"/>
      <point x="297" y="685"/>
      <point x="242" y="732"/>
    </contour>
    <contour>
      <point x="320" y="800" type="curve" smooth="yes"/>
      <point x="320" y="770"/>
      <point x="342" y="754"/>
      <point x="367" y="754" type="curve" smooth="yes"/>
      <point x="392" y="754"/>
      <point x="414" y="770"/>
      <point x="414" y="800" type="curve" smooth="yes"/>
      <point x="414" y="830"/>
      <point x="392" y="848"/>
      <point x="367" y="848" type="curve" smooth="yes"/>
      <point x="342" y="848"/>
      <point x="320" y="830"/>
    </contour>
  </outline>
</glyph>
<glyph name="Ccedilla" format="1">
  <advance width="700"/>
  <unicode hex="00C7"/>
  <outline>
    <contour>
      <point x="219" y="350" type="curve" smooth="yes"/>
      <point x="219" y="222"/>
      <point x="315" y="145"/>
      <point x="428" y="145" type="curve" smooth="yes"/>
      <point x="527" y="145"/>
      <point x="591" y="188"/>
      <point x="637" y="238" type="curve"/>
      <point x="637" y="54" type="line"/>
      <point x="581" y="11"/>
      <point x="520" y="-16"/>
      <point x="418" y="-16" type="curve" smooth="yes"/>
      <point x="193" y="-16"/>
      <point x="34" y="132"/>
      <point x="34" y="350" type="curve" smooth="yes"/>
      <point x="34" y="568"/>
      <point x="193" y="716"/>
      <point x="418" y="716" type="curve" smooth="yes"/>
      <point x="520" y="716"/>
      <point x="581" y="689"/>
      <point x="637" y="646" type="curve"/>
      <point x="637" y="462" type="line"/>
      <point x="591" y="512"/>
      <point x="527" y="555"/>
      <point x="428" y="555" type="curve" smooth="yes"/>
      <point x="315" y="555"/>
      <point x="219" y="478"/>
    </contour>
    <contour>
      <point x="366" y="60" type="line"/>
      <point x="476" y="56" type="line"/>
      <point x="370" y="-90" type="line"/>
      <point x="278" y="-134" type="line"/>
    </contour>
    <contour>
      <point x="518" y="-160" type="curve"/>
      <point x="421" y="-151" type="line"/>
      <point x="421" y="-125"/>
      <point x="391" y="-118"/>
      <point x="360" y="-118" type="curve" smooth="yes"/>
      <point x="350" y="-118"/>
      <point x="314" y="-119"/>
      <point x="278" y="-134" type="curve"/>
      <point x="342" y="-90" type="line"/>
      <point x="369" y="-65"/>
      <point x="394" y="-62"/>
      <point x="426" y="-62" type="curve" smooth="yes"/>
      <point x="466" y="-62"/>
      <point x="518" y="-94"/>
    </contour>
    <contour>
      <point x="518" y="-160" type="line"/>
      <point x="518" y="-232"/>
      <point x="449" y="-268"/>
      <point x="386" y="-268" type="curve" smooth="yes"/>
      <point x="330" y="-268"/>
      <point x="289" y="-260"/>
      <point x="242" y="-230" type="curve"/>
      <point x="288" y="-160" type="line"/>
      <point x="314" y="-178"/>
      <point x="346" y="-186"/>
      <point x="366" y="-186" type="curve" smooth="yes"/>
      <point x="400" y="-186"/>
      <point x="421" y="-175"/>
      <point x="421" y="-151" type="curve"/>
    </contour>
  </outline>
</glyph>
<glyph name="Egrave" format="1">
  <advance width="603"/>
  <unicode hex="00C8"/>
  <outline>
    <contour>
      <point x="186" y="0" type="line"/>
      <point x="186" y="140" type="line"/>
      <point x="540" y="140" type="line"/>
      <point x="540" y="0" type="line"/>
    </contour>
    <contour>
      <point x="186" y="560" type="line"/>
      <point x="186" y="700" type="line"/>
      <point x="540" y="700" type="line"/>
      <point x="540" y="560" type="line"/>
    </contour>
    <contour>
      <point x="186" y="300" type="line"/>
      <point x="186" y="436" type="line"/>
      <point x="520" y="436" type="line"/>
      <point x="520" y="300" type="line"/>
    </contour>
    <contour>
      <point x="74" y="700" type="line"/>
      <point x="237" y="700" type="line"/>
      <point x="237" y="0" type="line"/>
      <point x="74" y="0" type="line"/>
    </contour>
    <contour>
      <point x="145" y="932" type="line"/>
      <point x="260" y="985" type="line"/>
      <point x="410" y="825" type="line"/>
      <point x="325" y="782" type="line"/>
    </contour>
  </outline>
</glyph>
<glyph name="Edieresis" format="1">
  <advance width="603"/>
  <unicode hex="00CB"/>
  <outline>
    <contour>
      <point x="186" y="0" type="line"/>
      <point x="186" y="140" type="line"/>
      <point x="540" y="140" type="line"/>
      <point x="540" y="0" type="line"/>
    </contour>
    <contour>
      <point x="186" y="560" type="line"/>
      <point x="186" y="700" type="line"/>
      <point x="540" y="700" type="line"/>
      <point x="540" y="560" type="line"/>
    </contour>
    <contour>
      <point x="186" y="300" type="line"/>
      <point x="186" y="436" type="line"/>
      <point x="520" y="436" type="line"/>
      <point x="520" y="300" type="line"/>
    </contour>
    <contour>
      <point x="74" y="700" type="line"/>
      <point x="237" y="700" type="line"/>
      <point x="237" y="0" type="line"/>
      <point x="74" y="0" type="line"/>
    </contour>
    <contour>
      <point x="338" y="876" type="curve" smooth="yes"/>
      <point x="338" y="926"/>
      <point x="377" y="969"/>
      <point x="432" y="969" type="curve" smooth="yes"/>
      <point x="487" y="969"/>
      <point x="527" y="926"/>
      <point x="527" y="876" type="curve" smooth="yes"/>
      <point x="527" y="826"/>
      <point x="487" y="784"/>
      <point x="432" y="784" type="curve" smooth="yes"/>
      <point x="377" y="784"/>
      <point x="338" y="826"/>
    </contour>
    <contour>
      <point x="94" y="876" type="curve" smooth="yes"/>
      <point x="94" y="926"/>
      <point x="134" y="969"/>
      <point x="189" y="969" type="curve" smooth="yes"/>
      <point x="244" y="969"/>
      <point x="283" y="926"/>
      <point x="283" y="876" type="curve" smooth="yes"/>
      <point x="283" y="826"/>
      <point x="244" y="784"/>
      <point x="189" y="784" type="curve" smooth="yes"/>
      <point x="134" y="784"/>
      <point x="94" y="826"/>
    </contour>
  </outline>
</glyph>
<glyph name="Iacute" format="1">
  <advance width="320"/>
  <unicode hex="00CD"/>
  <outline>
    <contour>
      <point x="74" y="700" type="line"/>
      <point x="246" y="700" type="line"/>
      <point x="246" y="0" type="line"/>
      <point x="74" y="0" type="line"/>
    </contour>
    <contour>
      <point x="312" y="932" type="line"/>
      <point x="132" y="782" type="line"/>
      <point x="47" y="825" type="line"/>
      <point x="197" y="985" type="line"/>
    </contour>
  </outline>
</glyph>
<glyph name="Ntilde" format="1">
  <advance width="792"/>
  <unicode hex="00D1"/>
  <outline>
    <contour>
      <point x="557" y="700" type="line"/>
      <point x="720" y="700" type="line"/>
      <point x="720" y="-35" type="line"/>
      <point x="236" y="394" type="line"/>
      <point x="236" y="0" type="line"/>
      <point x="74" y="0" type="line"/>
      <point x="74" y="735" type="line"/>
      <point x="557" y="306" type="line"/>
    </contour>
    <contour>
      <point x="172" y="833" type="line"/>
      <point x="182" y="882"/>
      <point x="228" y="927"/>
      <point x="292" y="927" type="curve" smooth="yes"/>
      <point x="358" y="927"/>
      <point x="372" y="876"/>
      <point x="428" y="876" type="curve" smooth="yes"/>
      <point x="453" y="876"/>
      <point x="473" y="896"/>
      <point x="493" y="928" type="curve"/>
      <point x="564" y="854" type="line"/>
      <point x="548" y="817"/>
      <point x="492" y="769"/>
      <point x="430" y="769" type="curve" smooth="yes"/>
      <point x="375" y="769"/>
      <point x="340" y="822"/>
      <point x="290" y="822" type="curve" smooth="yes"/>
      <point x="252" y="822"/>
      <point x="244" y="786"/>
      <point x="244" y="771" type="curve"/>
    </contour>
  </outline>
</glyph>
<glyph name="Ograve" format="1">
  <advance width="820"/>
  <unicode hex="00D2"/>
  <outline>
    <contour>
      <point x="213" y="350" type="curve" smooth="yes"/>
      <point x="213" y="226"/>
      <point x="291" y="139"/>
      <point x="410" y="139" type="curve" smooth="yes"/>
      <point x="529" y="139"/>
      <point x="608" y="226"/>
      <point x="608" y="350" type="curve" smooth="yes"/>
      <point x="608" y="474"/>
      <point x="532" y="561"/>
      <point x="410" y="561" type="curve" smooth="yes"/>
      <point x="291" y="561"/>
      <point x="213" y="474"/>
    </contour>
    <contour>
      <point x="34" y="350" type="curve" smooth="yes"/>
      <point x="34" y="566"/>
      <point x="197" y="716"/>
      <point x="410" y="716" type="curve" smooth="yes"/>
      <point x="626" y="716"/>
      <point x="787" y="566"/>
      <point x="787" y="350" type="curve" smooth="yes"/>
      <point x="787" y="134"/>
      <point x="630" y="-22"/>
      <point x="410" y="-22" type="curve" smooth="yes"/>
      <point x="190" y="-22"/>
      <point x="34" y="134"/>
    </contour>
    <contour>
      <point x="262" y="932" type="line"/>
      <point x="378" y="984" type="line"/>
      <point x="528" y="824" type="line"/>
      <point x="442" y="782" type="line"/>
    </contour>
  </outline>
</glyph>
<glyph name="Ocircumflex" format="1">
  <advance width="821"/>
  <unicode hex="00D4"/>
  <outline>
    <contour>
      <point x="213" y="350" type="curve" smooth="yes"/>
      <point x="213" y="226"/>
      <point x="292" y="140"/>
      <point x="410" y="140" type="curve" smooth="yes"/>
      <point x="528" y="140"/>
      <point x="608" y="226"/>
      <point x="608" y="350" type="curve" smooth="yes"/>
      <point x="608" y="474"/>
      <point x="532" y="560"/>
      <point x="410" y="560" type="curve" smooth="yes"/>
      <point x="292" y="560"/>
      <point x="213" y="474"/>
    </contour>
    <contour>
      <point x="34" y="350" type="curve" smooth="yes"/>
      <point x="34" y="566"/>
      <point x="196" y="716"/>
      <point x="410" y="716" type="curve" smooth="yes"/>
      <point x="626" y="716"/>
      <point x="788" y="566"/>
      <point x="788" y="350" type="curve" smooth="yes"/>
      <point x="788" y="134"/>
      <point x="630" y="-22"/>
      <point x="410" y="-22" type="curve" smooth="yes"/>
      <point x="190" y="-22"/>
      <point x="34" y="134"/>
    </contour>
    <contour>
      <point x="420" y="884" type="line"/>
      <point x="310" y="789" type="line"/>
      <point x="260" y="829" type="line"/>
      <point x="420" y="969" type="line"/>
      <point x="580" y="829" type="line"/>
      <point x="530" y="789" type="line"/>
    </contour>
  </outline>
</glyph>
<glyph name="Otilde" format="1">
  <advance width="820"/>
  <unicode hex="00D5"/>
  <outline>
    <contour>
      <point x="213" y="350" type="curve" smooth="yes"/>
      <point x="213" y="226"/>
      <point x="291" y="139"/>
      <point x="410" y="139" type="curve" smooth="yes"/>
      <point x="529" y="139"/>
      <point x="608" y="226"/>
      <point x="608" y="350" type="curve" smooth="yes"/>
      <point x="608" y="474"/>
      <point x="532" y="561"/>
      <point x="410" y="561" type="curve" smooth="yes"/>
      <point x="291" y="561"/>
      <point x="213" y="474"/>
    </contour>
    <contour>
      <point x="34" y="350" type="curve" smooth="yes"/>
      <point x="34" y="566"/>
      <point x="197" y="716"/>
      <point x="410" y="716" type="curve" smooth="yes"/>
      <point x="626" y="716"/>
      <point x="787" y="566"/>
      <point x="787" y="350" type="curve" smooth="yes"/>
      <point x="787" y="134"/>
      <point x="630" y="-22"/>
      <point x="410" y="-22" type="curve" smooth="yes"/>
      <point x="190" y="-22"/>
      <point x="34" y="134"/>
    </contour>
    <contour>
      <point x="248" y="842" type="line"/>
      <point x="258" y="891"/>
      <point x="307" y="924"/>
      <point x="352" y="924" type="curve" smooth="yes"/>
      <point x="417" y="924"/>
      <point x="422" y="876"/>
      <point x="476" y="876" type="curve" smooth="yes"/>
      <point x="495" y="876"/>
      <point x="512" y="892"/>
      <point x="532" y="924" type="curve"/>
      <point x="578" y="882" type="line"/>
      <point x="562" y="845"/>
      <point x="522" y="808"/>
      <point x="472" y="808" type="curve" smooth="yes"/>
      <point x="417" y="808"/>
      <point x="397" y="856"/>
      <point x="352" y="856" type="curve" smooth="yes"/>
      <point x="311" y="856"/>
      <point x="302" y="819"/>
      <point x="302" y="804" type="curve"/>
    </contour>
  </outline>
</glyph>
<glyph name="Odieresis" format="1">
  <advance width="820"/>
  <unicode hex="00D6"/>
  <outline>
    <contour>
      <point x="213" y="350" type="curve" smooth="yes"/>
      <point x="213" y="226"/>
      <point x="291" y="139"/>
      <point x="410" y="139" type="curve" smooth="yes"/>
      <point x="529" y="139"/>
      <point x="608" y="226"/>
      <point x="608" y="350" type="curve" smooth="yes"/>
      <point x="608" y="474"/>
      <point x="532" y="561"/>
      <point x="410" y="561" type="curve" smooth="yes"/>
      <point x="291" y="561"/>
      <point x="213" y="474"/>
    </contour>
    <contour>
      <point x="34" y="350" type="curve" smooth="yes"/>
      <point x="34" y="566"/>
      <point x="197" y="716"/>
      <point x="410" y="716" type="curve" smooth="yes"/>
      <point x="626" y="716"/>
      <point x="787" y="566"/>
      <point x="787" y="350" type="curve" smooth="yes"/>
      <point x="787" y="134"/>
      <point x="630" y="-22"/>
      <point x="410" y="-22" type="curve" smooth="yes"/>
      <point x="190" y="-22"/>
      <point x="34" y="134"/>
    </contour>
    <contour>
      <point x="444" y="858" type="curve" smooth="yes"/>
      <point x="444" y="906"/>
      <point x="484" y="940"/>
      <point x="532" y="940" type="curve" smooth="yes"/>
      <point x="580" y="940"/>
      <point x="620" y="906"/>
      <point x="620" y="858" type="curve" smooth="yes"/>
      <point x="620" y="810"/>
      <point x="580" y="776"/>
      <point x="532" y="776" type="curve" smooth="yes"/>
      <point x="484" y="776"/>
      <point x="444" y="810"/>
    </contour>
    <contour>
      <point x="201" y="858" type="curve" smooth="yes"/>
      <point x="201" y="906"/>
      <point x="241" y="940"/>
      <point x="289" y="940" type="curve" smooth="yes"/>
      <point x="337" y="940"/>
      <point x="377" y="906"/>
      <point x="377" y="858" type="curve" smooth="yes"/>
      <point x="377" y="810"/>
      <point x="337" y="776"/>
      <point x="289" y="776" type="curve" smooth="yes"/>
      <point x="241" y="776"/>
      <point x="201" y="810"/>
    </contour>
  </outline>
</glyph>
<glyph name="Uacute" format="1">
  <advance width="699"/>
  <unicode hex="00DA"/>
  <outline>
    <contour>
      <point x="69" y="700" type="line"/>
      <point x="238" y="700" type="line"/>
      <point x="238" y="242" type="line" smooth="yes"/>
      <point x="238" y="170"/>
      <point x="274" y="123"/>
      <point x="350" y="123" type="curve" smooth="yes"/>
      <point x="426" y="123"/>
      <point x="463" y="170"/>
      <point x="463" y="242" type="curve" smooth="yes"/>
      <point x="463" y="700" type="line"/>
      <point x="632" y="700" type="line"/>
      <point x="632" y="230" type="line" smooth="yes"/>
      <point x="632" y="54"/>
      <point x="508" y="-28"/>
      <point x="350" y="-28" type="curve" smooth="yes"/>
      <point x="192" y="-28"/>
      <point x="69" y="54"/>
      <point x="69" y="230" type="curve" smooth="yes"/>
    </contour>
    <contour>
      <point x="512" y="926" type="line"/>
      <point x="332" y="776" type="line"/>
      <point x="246" y="818" type="line"/>
      <point x="396" y="978" type="line"/>
    </contour>
  </outline>
</glyph>
<glyph name="Ucircumflex" format="1">
  <advance width="699"/>
  <unicode hex="00DB"/>
  <outline>
    <contour>
      <point x="69" y="700" type="line"/>
      <point x="238" y="700" type="line"/>
      <point x="238" y="242" type="line" smooth="yes"/>
      <point x="238" y="170"/>
      <point x="274" y="123"/>
      <point x="350" y="123" type="curve" smooth="yes"/>
      <point x="426" y="123"/>
      <point x="463" y="170"/>
      <point x="463" y="242" type="curve" smooth="yes"/>
      <point x="463" y="700" type="line"/>
      <point x="632" y="700" type="line"/>
      <point x="632" y="230" type="line" smooth="yes"/>
      <point x="632" y="54"/>
      <point x="508" y="-28"/>
      <point x="350" y="-28" type="curve" smooth="yes"/>
      <point x="192" y="-28"/>
      <point x="69" y="54"/>
      <point x="69" y="230" type="curve" smooth="yes"/>
    </contour>
    <contour>
      <point x="350" y="862" type="line"/>
      <point x="259" y="776" type="line"/>
      <point x="153" y="847" type="line"/>
      <point x="350" y="987" type="line"/>
      <point x="548" y="847" type="line"/>
      <point x="442" y="776" type="line"/>
    </contour>
  </outline>
</glyph>
<glyph name="Thorn" format="1">
  <advance width="612"/>
  <unicode hex="00DE"/>
  <outline>
    <contour>
      <point x="310" y="128" type="curve"/>
      <point x="310" y="260" type="line"/>
      <point x="387" y="260"/>
      <point x="432" y="286"/>
      <point x="432" y="353" type="curve" smooth="yes"/>
      <point x="432" y="420"/>
      <point x="387" y="446"/>
      <point x="310" y="446" type="curve"/>
      <point x="310" y="579" type="line"/>
      <point x="488" y="579"/>
      <point x="583" y="495"/>
      <point x="583" y="353" type="curve" smooth="yes"/>
      <point x="583" y="211"/>
      <point x="488" y="128"/>
    </contour>
    <contour>
      <point x="174" y="128" type="line"/>
      <point x="174" y="260" type="line"/>
      <point x="310" y="260" type="line"/>
      <point x="310" y="128" type="line"/>
    </contour>
    <contour>
      <point x="174" y="446" type="line"/>
      <point x="174" y="579" type="line"/>
      <point x="310" y="579" type="line"/>
      <point x="310" y="446" type="line"/>
    </contour>
    <contour>
      <point x="80" y="700" type="line"/>
      <point x="228" y="700" type="line"/>
      <point x="228" y="0" type="line"/>
      <point x="80" y="0" type="line"/>
    </contour>
  </outline>
</glyph>
<glyph name="germandbls" format="1">
  <advance width="591"/>
  <unicode hex="00DF"/>
  <outline>
    <contour>
      <point x="281" y="127" type="line"/>
      <point x="361" y="127"/>
      <point x="416" y="179"/>
      <point x="416" y="254" type="curve" smooth="yes"/>
      <point x="416" y="316"/>
      <point x="378" y="368"/>
      <point x="268" y="368" type="curve"/>
      <point x="268" y="472" type="line"/>
      <point x="436" y="472"/>
      <point x="568" y="377"/>
      <point x="568" y="225" type="curve" smooth="yes"/>
      <point x="568" y="73"/>
      <point x="453" y="-10"/>
      <point x="281" y="-10" type="curve"/>
    </contour>
    <contour>
      <point x="268" y="412" type="curve"/>
      <point x="268" y="504" type="line"/>
      <point x="354" y="504"/>
      <point x="376" y="540"/>
      <point x="376" y="584" type="curve" smooth="yes"/>
      <point x="376" y="632"/>
      <point x="345" y="659"/>
      <point x="286" y="659" type="curve" smooth="yes"/>
      <point x="232" y="659"/>
      <point x="200" y="633"/>
      <point x="200" y="588" type="curve" smooth="yes"/>
      <point x="200" y="0" type="line"/>
      <point x="56" y="0" type="line"/>
      <point x="56" y="606" type="line" smooth="yes"/>
      <point x="56" y="728"/>
      <point x="162" y="796"/>
      <point x="286" y="796" type="curve" smooth="yes"/>
      <point x="440" y="796"/>
      <point x="522" y="715"/>
      <point x="522" y="606" type="curve" smooth="yes"/>
      <point x="522" y="487"/>
      <point x="436" y="412"/>
    </contour>
  </outline>
</glyph>
<glyph name="agrave" format="1">
  <advance width="543"/>
  <unicode hex="00E0"/>
  <outline>
    <contour>
      <point x="176" y="138" type="curve" smooth="yes"/>
      <point x="176" y="104"/>
      <point x="202" y="88"/>
      <point x="242" y="88" type="curve" smooth="yes"/>
      <point x="298" y="88"/>
      <point x="345" y="112"/>
      <point x="345" y="186" type="curve"/>
      <point x="361" y="130" type="line"/>
      <point x="361" y="41"/>
      <point x="286" y="-10"/>
      <point x="191" y="-10" type="curve" smooth="yes"/>
      <point x="90" y="-10"/>
      <point x="24" y="41"/>
      <point x="24" y="128" type="curve" smooth="yes"/>
      <point x="24" y="222"/>
      <point x="106" y="279"/>
      <point x="223" y="279" type="curve" smooth="yes"/>
      <point x="293" y="279"/>
      <point x="358" y="252"/>
      <point x="378" y="230" type="curve"/>
      <point x="378" y="159" type="line"/>
      <point x="344" y="185"/>
      <point x="310" y="198"/>
      <point x="258" y="198" type="curve" smooth="yes"/>
      <point x="206" y="198"/>
      <point x="176" y="174"/>
    </contour>
    <contour>
      <point x="117" y="319" type="curve"/>
      <point x="66" y="420" type="line"/>
      <point x="118" y="445"/>
      <point x="193" y="473"/>
      <point x="276" y="473" type="curve" smooth="yes"/>
      <point x="400" y="473"/>
      <point x="490" y="419"/>
      <point x="490" y="324" type="curve" smooth="yes"/>
      <point x="490" y="0" type="line"/>
      <point x="345" y="0" type="line"/>
      <point x="345" y="294" type="line" smooth="yes"/>
      <point x="345" y="333"/>
      <point x="314" y="358"/>
      <point x="264" y="358" type="curve" smooth="yes"/>
      <point x="198" y="358"/>
      <point x="139" y="332"/>
    </contour>
    <contour>
      <point x="104" y="683" type="line"/>
      <point x="219" y="736" type="line"/>
      <point x="369" y="576" type="line"/>
      <point x="284" y="533" type="line"/>
    </contour>
  </outline>
</glyph>
<glyph name="atilde" format="1">
  <advance width="543"/>
  <unicode hex="00E3"/>
  <outline>
    <contour>
      <point x="176" y="138" type="curve" smooth="yes"/>
      <point x="176" y="104"/>
      <point x="202" y="88"/>
      <point x="242" y="88" type="curve" smooth="yes"/>
      <point x="298" y="88"/>
      <point x="345" y="112"/>
      <point x="345" y="186" type="curve"/>
      <point x="361" y="130" type="line"/>
      <point x="361" y="41"/>
      <point x="286" y="-10"/>
      <point x="191" y="-10" type="curve" smooth="yes"/>
      <point x="90" y="-10"/>
      <point x="24" y="41"/>
      <point x="24" y="128" type="curve" smooth="yes"/>
      <point x="24" y="222"/>
      <point x="106" y="279"/>
      <point x="223" y="279" type="curve" smooth="yes"/>
      <point x="293" y="279"/>
      <point x="358" y="252"/>
      <point x="378" y="230" type="curve"/>
      <point x="378" y="159" type="line"/>
      <point x="344" y="185"/>
      <point x="310" y="198"/>
      <point x="258" y="198" type="curve" smooth="yes"/>
      <point x="206" y="198"/>
      <point x="176" y="174"/>
    </contour>
    <contour>
      <point x="117" y="319" type="curve"/>
      <point x="66" y="420" type="line"/>
      <point x="118" y="445"/>
      <point x="193" y="473"/>
      <point x="276" y="473" type="curve" smooth="yes"/>
      <point x="400" y="473"/>
      <point x="490" y="419"/>
      <point x="490" y="324" type="curve" smooth="yes"/>
      <point x="490" y="0" type="line"/>
      <point x="345" y="0" type="line"/>
      <point x="345" y="294" type="line" smooth="yes"/>
      <point x="345" y="333"/>
      <point x="314" y="358"/>
      <point x="264" y="358" type="curve" smooth="yes"/>
      <point x="198" y="358"/>
      <point x="139" y="332"/>
    </contour>
    <contour>
      <point x="80" y="598" type="line"/>
      <point x="90" y="647"/>
      <point x="136" y="693"/>
      <point x="200" y="693" type="curve" smooth="yes"/>
      <point x="266" y="693"/>
      <point x="280" y="641"/>
      <point x="336" y="641" type="curve" smooth="yes"/>
      <point x="361" y="641"/>
      <point x="381" y="662"/>
      <point x="401" y="694" type="curve"/>
      <point x="472" y="620" type="line"/>
      <point x="456" y="583"/>
      <point x="400" y="534"/>
      <point x="338" y="534" type="curve" smooth="yes"/>
      <point x="283" y="534"/>
      <point x="248" y="588"/>
      <point x="198" y="588" type="curve" smooth="yes"/>
      <point x="160" y="588"/>
      <point x="152" y="552"/>
      <point x="152" y="537" type="curve"/>
    </contour>
  </outline>
</glyph>
<glyph name="ae" format="1">
  <advance width="895"/>
  <unicode hex="00E6"/>
  <outline>
    <contour>
      <point x="176" y="138" type="curve" smooth="yes"/>
      <point x="176" y="104"/>
      <point x="202" y="88"/>
      <point x="242" y="88" type="curve" smooth="yes"/>
      <point x="298" y="88"/>
      <point x="345" y="112"/>
      <point x="345" y="186" type="curve"/>
      <point x="416" y="130" type="line"/>
      <point x="416" y="41"/>
      <point x="343" y="-10"/>
      <point x="217" y="-10" type="curve" smooth="yes"/>
      <point x="96" y="-10"/>
      <point x="24" y="41"/>
      <point x="24" y="128" type="curve" smooth="yes"/>
      <point x="24" y="222"/>
      <point x="106" y="279"/>
      <point x="223" y="279" type="curve" smooth="yes"/>
      <point x="293" y="279"/>
      <point x="358" y="252"/>
      <point x="378" y="230" type="curve"/>
      <point x="378" y="159" type="line"/>
      <point x="344" y="185"/>
      <point x="310" y="198"/>
      <point x="258" y="198" type="curve" smooth="yes"/>
      <point x="206" y="198"/>
      <point x="176" y="174"/>
    </contour>
    <contour>
      <point x="117" y="319" type="curve"/>
      <point x="66" y="420" type="line"/>
      <point x="118" y="445"/>
      <point x="193" y="473"/>
      <point x="276" y="473" type="curve" smooth="yes"/>
      <point x="400" y="473"/>
      <point x="439" y="419"/>
      <point x="439" y="324" type="curve" smooth="yes"/>
      <point x="439" y="130" type="line"/>
      <point x="345" y="130" type="line"/>
      <point x="345" y="290" type="line" smooth="yes"/>
      <point x="345" y="329"/>
      <point x="314" y="358"/>
      <point x="264" y="358" type="curve" smooth="yes"/>
      <point x="198" y="358"/>
      <point x="139" y="332"/>
    </contour>
    <contour>
      <point x="418" y="198" type="line"/>
      <point x="418" y="282" type="line"/>
      <point x="844" y="282" type="line"/>
      <point x="860" y="198" type="line"/>
    </contour>
    <contour>
      <point x="702" y="244" type="line" smooth="yes"/>
      <point x="702" y="324"/>
      <point x="676" y="369"/>
      <point x="610" y="369" type="curve" smooth="yes"/>
      <point x="548" y="369"/>
      <point x="508" y="328"/>
      <point x="508" y="254" type="curve"/>
      <point x="506" y="230" type="line"/>
      <point x="506" y="136"/>
      <point x="554" y="99"/>
      <point x="613" y="99" type="curve" smooth="yes"/>
      <point x="667" y="99"/>
      <point x="706" y="120"/>
      <point x="728" y="158" type="curve"/>
      <point x="862" y="126" type="line"/>
      <point x="816" y="44"/>
      <point x="748" y="-10"/>
      <point x="616" y="-10" type="curve" smooth="yes"/>
      <point x="448" y="-10"/>
      <point x="389" y="91"/>
      <point x="389" y="230" type="curve" smooth="yes"/>
      <point x="389" y="247"/>
      <point x="393" y="263"/>
      <point x="396" y="279" type="curve" smooth="yes"/>
      <point x="415" y="392"/>
      <point x="498" y="470"/>
      <point x="636" y="470" type="curve" smooth="yes"/>
      <point x="770" y="470"/>
      <point x="862" y="382"/>
      <point x="862" y="237" type="curve" smooth="yes"/>
      <point x="862" y="229"/>
      <point x="862" y="214"/>
      <point x="860" y="198" type="curve"/>
      <point x="702" y="218" type="line"/>
    </contour>
  </outline>
</glyph>
<glyph name="igrave" format="1">
  <advance width="275"/>
  <unicode hex="00EC"/>
  <outline>
    <contour>
      <point x="64" y="460" type="line"/>
      <point x="211" y="460" type="line"/>
      <point x="211" y="0" type="line"/>
      <point x="64" y="0" type="line"/>
    </contour>
    <contour>
      <point x="-42" y="688" type="line"/>
      <point x="72" y="740" type="line"/>
      <point x="222" y="580" type="line"/>
      <point x="138" y="538" type="line"/>
    </contour>
  </outline>
</glyph>
<glyph name="icircumflex" format="1">
  <advance width="276"/>
  <unicode hex="00EE"/>
  <outline>
    <contour>
      <point x="64" y="460" type="line"/>
      <point x="211" y="460" type="line"/>
      <point x="211" y="0" type="line"/>
      <point x="64" y="0" type="line"/>
    </contour>
    <contour>
      <point x="138" y="620" type="line"/>
      <point x="46" y="534" type="line"/>
      <point x="-60" y="606" type="line"/>
      <point x="138" y="746" type="line"/>
      <point x="335" y="606" type="line"/>
      <point x="229" y="534" type="line"/>
    </contour>
  </outline>
</glyph>
<glyph name="idieresis" format="1">
  <advance width="276"/>
  <unicode hex="00EF"/>
  <outline>
    <contour>
      <point x="64" y="460" type="line"/>
      <point x="211" y="460" type="line"/>
      <point x="211" y="0" type="line"/>
      <point x="64" y="0" type="line"/>
    </contour>
    <contour>
      <point x="166" y="634" type="curve" smooth="yes"/>
      <point x="166" y="684"/>
      <point x="205" y="727"/>
      <point x="260" y="727" type="curve" smooth="yes"/>
      <point x="315" y="727"/>
      <point x="354" y="684"/>
      <point x="354" y="634" type="curve" smooth="yes"/>
      <point x="354" y="584"/>
      <point x="315" y="542"/>
      <point x="260" y="542" type="curve" smooth="yes"/>
      <point x="205" y="542"/>
      <point x="166" y="584"/>
    </contour>
    <contour>
      <point x="-78" y="634" type="curve" smooth="yes"/>
      <point x="-78" y="684"/>
      <point x="-39" y="727"/>
      <point x="16" y="727" type="curve" smooth="yes"/>
      <point x="71" y="727"/>
      <point x="110" y="684"/>
      <point x="110" y="634" type="curve" smooth="yes"/>
      <point x="110" y="584"/>
      <point x="71" y="542"/>
      <point x="16" y="542" type="curve" smooth="yes"/>
      <point x="-39" y="542"/>
      <point x="-78" y="584"/>
    </contour>
  </outline>
</glyph>
<glyph name="ograve" format="1">
  <advance width="589"/>
  <unicode hex="00F2"/>
  <outline>
    <contour>
      <point x="32" y="230" type="curve" smooth="yes"/>
      <point x="32" y="375"/>
      <point x="144" y="470"/>
      <point x="294" y="470" type="curve" smooth="yes"/>
      <point x="444" y="470"/>
      <point x="557" y="375"/>
      <point x="557" y="230" type="curve" smooth="yes"/>
      <point x="557" y="85"/>
      <point x="444" y="-10"/>
      <point x="294" y="-10" type="curve" smooth="yes"/>
      <point x="144" y="-10"/>
      <point x="32" y="85"/>
    </contour>
    <contour>
      <point x="188" y="230" type="curve" smooth="yes"/>
      <point x="188" y="158"/>
      <point x="235" y="115"/>
      <point x="294" y="115" type="curve" smooth="yes"/>
      <point x="353" y="115"/>
      <point x="402" y="158"/>
      <point x="402" y="230" type="curve" smooth="yes"/>
      <point x="402" y="302"/>
      <point x="353" y="346"/>
      <point x="294" y="346" type="curve" smooth="yes"/>
      <point x="235" y="346"/>
      <point x="188" y="302"/>
    </contour>
    <contour>
      <point x="134" y="688" type="line"/>
      <point x="250" y="740" type="line"/>
      <point x="400" y="580" type="line"/>
      <point x="314" y="538" type="line"/>
    </contour>
  </outline>
</glyph>
<glyph name="ocircumflex" format="1">
  <advance width="589"/>
  <unicode hex="00F4"/>
  <outline>
    <contour>
      <point x="32" y="230" type="curve" smooth="yes"/>
      <point x="32" y="375"/>
      <point x="144" y="470"/>
      <point x="294" y="470" type="curve" smooth="yes"/>
      <point x="444" y="470"/>
      <point x="557" y="375"/>
      <point x="557" y="230" type="curve" smooth="yes"/>
      <point x="557" y="85"/>
      <point x="444" y="-10"/>
      <point x="294" y="-10" type="curve" smooth="yes"/>
      <point x="144" y="-10"/>
      <point x="32" y="85"/>
    </contour>
    <contour>
      <point x="188" y="230" type="curve" smooth="yes"/>
      <point x="188" y="158"/>
      <point x="235" y="115"/>
      <point x="294" y="115" type="curve" smooth="yes"/>
      <point x="353" y="115"/>
      <point x="402" y="158"/>
      <point x="402" y="230" type="curve" smooth="yes"/>
      <point x="402" y="302"/>
      <point x="353" y="346"/>
      <point x="294" y="346" type="curve" smooth="yes"/>
      <point x="235" y="346"/>
      <point x="188" y="302"/>
    </contour>
    <contour>
      <point x="294" y="624" type="line"/>
      <point x="203" y="538" type="line"/>
      <point x="98" y="609" type="line"/>
      <point x="294" y="749" type="line"/>
      <point x="492" y="609" type="line"/>
      <point x="386" y="538" type="line"/>
    </contour>
  </outline>
</glyph>
<glyph name="otilde" format="1">
  <advance width="589"/>
  <unicode hex="00F5"/>
  <outline>
    <contour>
      <point x="32" y="230" type="curve" smooth="yes"/>
      <point x="32" y="375"/>
      <point x="144" y="470"/>
      <point x="294" y="470" type="curve" smooth="yes"/>
      <point x="444" y="470"/>
      <point x="557" y="375"/>
      <point x="557" y="230" type="curve" smooth="yes"/>
      <point x="557" y="85"/>
      <point x="444" y="-10"/>
      <point x="294" y="-10" type="curve" smooth="yes"/>
      <point x="144" y="-10"/>
      <point x="32" y="85"/>
    </contour>
    <contour>
      <point x="188" y="230" type="curve" smooth="yes"/>
      <point x="188" y="158"/>
      <point x="235" y="115"/>
      <point x="294" y="115" type="curve" smooth="yes"/>
      <point x="353" y="115"/>
      <point x="402" y="158"/>
      <point x="402" y="230" type="curve" smooth="yes"/>
      <point x="402" y="302"/>
      <point x="353" y="346"/>
      <point x="294" y="346" type="curve" smooth="yes"/>
      <point x="235" y="346"/>
      <point x="188" y="302"/>
    </contour>
    <contour>
      <point x="99" y="596" type="line"/>
      <point x="109" y="645"/>
      <point x="154" y="690"/>
      <point x="218" y="690" type="curve" smooth="yes"/>
      <point x="284" y="690"/>
      <point x="298" y="639"/>
      <point x="354" y="639" type="curve" smooth="yes"/>
      <point x="379" y="639"/>
      <point x="400" y="660"/>
      <point x="420" y="692" type="curve"/>
      <point x="491" y="618" type="line"/>
      <point x="475" y="581"/>
      <point x="418" y="532"/>
      <point x="356" y="532" type="curve" smooth="yes"/>
      <point x="301" y="532"/>
      <point x="267" y="586"/>
      <point x="217" y="586" type="curve" smooth="yes"/>
      <point x="179" y="586"/>
      <point x="170" y="549"/>
      <point x="170" y="534" type="curve"/>
    </contour>
  </outline>
</glyph>
<glyph name="divide" format="1">
  <advance width="639"/>
  <unicode hex="00F7"/>
  <outline>
    <contour>
      <point x="225" y="552" type="curve" smooth="yes"/>
      <point x="225" y="602"/>
      <point x="265" y="644"/>
      <point x="319" y="644" type="curve" smooth="yes"/>
      <point x="373" y="644"/>
      <point x="414" y="602"/>
      <point x="414" y="552" type="curve" smooth="yes"/>
      <point x="414" y="502"/>
      <point x="373" y="460"/>
      <point x="319" y="460" type="curve" smooth="yes"/>
      <point x="265" y="460"/>
      <point x="225" y="502"/>
    </contour>
    <contour>
      <point x="225" y="98" type="curve" smooth="yes"/>
      <point x="225" y="148"/>
      <point x="265" y="190"/>
      <point x="319" y="190" type="curve" smooth="yes"/>
      <point x="373" y="190"/>
      <point x="414" y="148"/>
      <point x="414" y="98" type="curve" smooth="yes"/>
      <point x="414" y="48"/>
      <point x="373" y="6"/>
      <point x="319" y="6" type="curve" smooth="yes"/>
      <point x="265" y="6"/>
      <point x="225" y="48"/>
    </contour>
    <contour>
      <point x="26" y="259" type="line"/>
      <point x="26" y="395" type="line"/>
      <point x="613" y="395" type="line"/>
      <point x="613" y="259" type="line"/>
    </contour>
  </outline>
</glyph>
<glyph name="oslash" format="1">
  <advance width="546"/>
  <unicode hex="00F8"/>
  <outline>
    <contour>
      <point x="32" y="230" type="curve" smooth="yes"/>
      <point x="32" y="382"/>
      <point x="146" y="470"/>
      <point x="294" y="470" type="curve" smooth="yes"/>
      <point x="442" y="470"/>
      <point x="557" y="382"/>
      <point x="557" y="230" type="curve" smooth="yes"/>
      <point x="557" y="78"/>
      <point x="442" y="-10"/>
      <point x="294" y="-10" type="curve" smooth="yes"/>
      <point x="146" y="-10"/>
      <point x="32" y="78"/>
    </contour>
    <contour>
      <point x="175" y="230" type="curve" smooth="yes"/>
      <point x="175" y="152"/>
      <point x="228" y="108"/>
      <point x="294" y="108" type="curve" smooth="yes"/>
      <point x="360" y="108"/>
      <point x="414" y="152"/>
      <point x="414" y="230" type="curve" smooth="yes"/>
      <point x="414" y="302"/>
      <point x="360" y="352"/>
      <point x="294" y="352" type="curve" smooth="yes"/>
      <point x="228" y="352"/>
      <point x="175" y="302"/>
    </contour>
    <contour>
      <point x="456" y="506" type="line"/>
      <point x="512" y="474" type="line"/>
      <point x="122" y="-50" type="line"/>
      <point x="66" y="-18" type="line"/>
    </contour>
  </outline>
</glyph>
<glyph name="uacute" format="1">
  <advance width="574"/>
  <unicode hex="00FA"/>
  <outline>
    <contour>
      <point x="364" y="0" type="line"/>
      <point x="364" y="460" type="line"/>
      <point x="515" y="460" type="line"/>
      <point x="515" y="0" type="line"/>
    </contour>
    <contour>
      <point x="217" y="180" type="line" smooth="yes"/>
      <point x="217" y="126"/>
      <point x="234" y="95"/>
      <point x="284" y="95" type="curve" smooth="yes"/>
      <point x="332" y="95"/>
      <point x="364" y="126"/>
      <point x="364" y="180" type="curve"/>
      <point x="394" y="186" type="line"/>
      <point x="394" y="77"/>
      <point x="338" y="-10"/>
      <point x="224" y="-10" type="curve" smooth="yes"/>
      <point x="110" y="-10"/>
      <point x="60" y="51"/>
      <point x="60" y="164" type="curve" smooth="yes"/>
      <point x="60" y="460" type="line"/>
      <point x="217" y="460" type="line"/>
    </contour>
    <contour>
      <point x="432" y="688" type="line"/>
      <point x="252" y="538" type="line"/>
      <point x="166" y="580" type="line"/>
      <point x="316" y="740" type="line"/>
    </contour>
  </outline>
</glyph>
<glyph name="ucircumflex" format="1">
  <advance width="574"/>
  <unicode hex="00FB"/>
  <outline>
    <contour>
      <point x="364" y="0" type="line"/>
      <point x="364" y="460" type="line"/>
      <point x="515" y="460" type="line"/>
      <point x="515" y="0" type="line"/>
    </contour>
    <contour>
      <point x="217" y="180" type="line" smooth="yes"/>
      <point x="217" y="126"/>
      <point x="234" y="95"/>
      <point x="284" y="95" type="curve" smooth="yes"/>
      <point x="332" y="95"/>
      <point x="364" y="126"/>
      <point x="364" y="180" type="curve"/>
      <point x="394" y="186" type="line"/>
      <point x="394" y="77"/>
      <point x="338" y="-10"/>
      <point x="224" y="-10" type="curve" smooth="yes"/>
      <point x="110" y="-10"/>
      <point x="60" y="51"/>
      <point x="60" y="164" type="curve" smooth="yes"/>
      <point x="60" y="460" type="line"/>
      <point x="217" y="460" type="line"/>
    </contour>
    <contour>
      <point x="286" y="624" type="line"/>
      <point x="195" y="538" type="line"/>
      <point x="90" y="609" type="line"/>
      <point x="286" y="749" type="line"/>
      <point x="484" y="609" type="line"/>
      <point x="378" y="538" type="line"/>
    </contour>
  </outline>
</glyph>
<glyph name="udieresis" format="1">
  <advance width="575"/>
  <unicode hex="00FC"/>
  <outline>
    <contour>
      <point x="364" y="0" type="line"/>
      <point x="364" y="460" type="line"/>
      <point x="516" y="460" type="line"/>
      <point x="516" y="0" type="line"/>
    </contour>
    <contour>
      <point x="218" y="180" type="line" smooth="yes"/>
      <point x="218" y="126"/>
      <point x="234" y="96"/>
      <point x="284" y="96" type="curve" smooth="yes"/>
      <point x="332" y="96"/>
      <point x="364" y="126"/>
      <point x="364" y="180" type="curve"/>
      <point x="394" y="186" type="line"/>
      <point x="394" y="77"/>
      <point x="338" y="-10"/>
      <point x="224" y="-10" type="curve" smooth="yes"/>
      <point x="110" y="-10"/>
      <point x="60" y="52"/>
      <point x="60" y="164" type="curve" smooth="yes"/>
      <point x="60" y="460" type="line"/>
      <point x="218" y="460" type="line"/>
    </contour>
    <contour>
      <point x="316" y="630" type="curve" smooth="yes"/>
      <point x="316" y="680"/>
      <point x="355" y="723"/>
      <point x="410" y="723" type="curve" smooth="yes"/>
      <point x="465" y="723"/>
      <point x="504" y="680"/>
      <point x="504" y="630" type="curve" smooth="yes"/>
      <point x="504" y="580"/>
      <point x="465" y="538"/>
      <point x="410" y="538" type="curve" smooth="yes"/>
      <point x="355" y="538"/>
      <point x="316" y="580"/>
    </contour>
    <contour>
      <point x="72" y="630" type="curve" smooth="yes"/>
      <point x="72" y="680"/>
      <point x="111" y="723"/>
      <point x="166" y="723" type="curve" smooth="yes"/>
      <point x="221" y="723"/>
      <point x="260" y="680"/>
      <point x="260" y="630" type="curve" smooth="yes"/>
      <point x="260" y="580"/>
      <point x="221" y="538"/>
      <point x="166" y="538" type="curve" smooth="yes"/>
      <point x="111" y="538"/>
      <point x="72" y="580"/>
    </contour>
  </outline>
</glyph>
<glyph name="ydieresis" format="1">
  <advance width="521"/>
  <unicode hex="00FF"/>
  <outline>
    <contour>
      <point x="530" y="460" type="line"/>
      <point x="230" y="-220" type="line"/>
      <point x="78" y="-220" type="line"/>
      <point x="190" y="37" type="line"/>
      <point x="-10" y="460" type="line"/>
      <point x="158" y="460" type="line"/>
      <point x="306" y="90" type="line"/>
      <point x="228" y="92" type="line"/>
      <point x="375" y="460" type="line"/>
    </contour>
    <contour>
      <point x="288" y="623" type="curve" smooth="yes"/>
      <point x="288" y="673"/>
      <point x="327" y="716"/>
      <point x="382" y="716" type="curve" smooth="yes"/>
      <point x="437" y="716"/>
      <point x="477" y="673"/>
      <point x="477" y="623" type="curve" smooth="yes"/>
      <point x="477" y="573"/>
      <point x="437" y="530"/>
      <point x="382" y="530" type="curve" smooth="yes"/>
      <point x="327" y="530"/>
      <point x="288" y="573"/>
    </contour>
    <contour>
      <point x="44" y="623" type="curve" smooth="yes"/>
      <point x="44" y="673"/>
      <point x="84" y="716"/>
      <point x="139" y="716" type="curve" smooth="yes"/>
      <point x="194" y="716"/>
      <point x="233" y="673"/>
      <point x="233" y="623" type="curve" smooth="yes"/>
      <point x="233" y="573"/>
      <point x="194" y="530"/>
      <point x="139" y="530" type="curve" smooth="yes"/>
      <point x="84" y="530"/>
      <point x="44" y="573"/>
    </contour>
  </outline>
</glyph>
<glyph name="Amacron" format="1">
  <advance width="735"/>
  <unicode hex="0100"/>
  <outline>
    <contour>
      <point x="184" y="135" type="line"/>
      <point x="196" y="264" type="line"/>
      <point x="544" y="264" type="line"/>
      <point x="554" y="135" type="line"/>
    </contour>
    <contour>
      <point x="368" y="442" type="line"/>
      <point x="270" y="217" type="line"/>
      <point x="277" y="179" type="line"/>
      <point x="190" y="0" type="line"/>
      <point x="-2" y="0" type="line"/>
      <point x="368" y="744" type="line"/>
      <point x="736" y="0" type="line"/>
      <point x="544" y="0" type="line"/>
      <point x="460" y="172" type="line"/>
      <point x="466" y="216" type="line"/>
    </contour>
    <contour>
      <point x="182" y="804" type="line"/>
      <point x="182" y="936" type="line"/>
      <point x="553" y="936" type="line"/>
      <point x="553" y="804" type="line"/>
    </contour>
  </outline>
</glyph>
<glyph name="Abreve" format="1">
  <advance width="735"/>
  <unicode hex="0102"/>
  <outline>
    <contour>
      <point x="184" y="135" type="line"/>
      <point x="196" y="264" type="line"/>
      <point x="544" y="264" type="line"/>
      <point x="554" y="135" type="line"/>
    </contour>
    <contour>
      <point x="368" y="442" type="line"/>
      <point x="270" y="217" type="line"/>
      <point x="277" y="179" type="line"/>
      <point x="190" y="0" type="line"/>
      <point x="-2" y="0" type="line"/>
      <point x="368" y="744" type="line"/>
      <point x="736" y="0" type="line"/>
      <point x="544" y="0" type="line"/>
      <point x="460" y="172" type="line"/>
      <point x="466" y="216" type="line"/>
    </contour>
    <contour>
      <point x="203" y="950" type="curve"/>
      <point x="302" y="950" type="line"/>
      <point x="302" y="914"/>
      <point x="329" y="891"/>
      <point x="368" y="891" type="curve" smooth="yes"/>
      <point x="407" y="891"/>
      <point x="432" y="914"/>
      <point x="432" y="950" type="curve"/>
      <point x="532" y="950" type="line"/>
      <point x="532" y="868"/>
      <point x="473" y="804"/>
      <point x="368" y="804" type="curve" smooth="yes"/>
      <point x="263" y="804"/>
      <point x="203" y="868"/>
    </contour>
  </outline>
</glyph>
<glyph name="aogonek" format="1">
  <advance width="544"/>
  <unicode hex="0105"/>
  <outline>
    <contour>
      <point x="176" y="138" type="curve" smooth="yes"/>
      <point x="176" y="104"/>
      <point x="202" y="89"/>
      <point x="242" y="89" type="curve" smooth="yes"/>
      <point x="297" y="89"/>
      <point x="345" y="112"/>
      <point x="345" y="186" type="curve"/>
      <point x="361" y="130" type="line"/>
      <point x="361" y="41"/>
      <point x="286" y="-10"/>
      <point x="191" y="-10" type="curve" smooth="yes"/>
      <point x="89" y="-10"/>
      <point x="24" y="41"/>
      <point x="24" y="128" type="curve" smooth="yes"/>
      <point x="24" y="222"/>
      <point x="105" y="279"/>
      <point x="223" y="279" type="curve" smooth="yes"/>
      <point x="292" y="279"/>
      <point x="358" y="252"/>
      <point x="378" y="230" type="curve"/>
      <point x="378" y="158" type="line"/>
      <point x="344" y="184"/>
      <point x="310" y="197"/>
      <point x="258" y="197" type="curve" smooth="yes"/>
      <point x="206" y="197"/>
      <point x="176" y="174"/>
    </contour>
    <contour>
      <point x="118" y="318" type="curve"/>
      <point x="66" y="420" type="line"/>
      <point x="119" y="445"/>
      <point x="193" y="473"/>
      <point x="276" y="473" type="curve" smooth="yes"/>
      <point x="400" y="473"/>
      <point x="490" y="420"/>
      <point x="490" y="324" type="curve" smooth="yes"/>
      <point x="490" y="0" type="line"/>
      <point x="345" y="0" type="line"/>
      <point x="345" y="294" type="line" smooth="yes"/>
      <point x="345" y="333"/>
      <point x="314" y="358"/>
      <point x="264" y="358" type="curve" smooth="yes"/>
      <point x="198" y="358"/>
      <point x="140" y="331"/>
    </contour>
    <contour>
      <point x="473" y="-110" type="curve"/>
      <point x="506" y="-178" type="line"/>
      <point x="491" y="-198"/>
      <point x="462" y="-218"/>
      <point x="406" y="-218" type="curve" smooth="yes"/>
      <point x="341" y="-218"/>
      <point x="289" y="-184"/>
      <point x="289" y="-118" type="curve"/>
      <point x="388" y="-92" type="line"/>
      <point x="388" y="-117"/>
      <point x="399" y="-130"/>
      <point x="423" y="-130" type="curve" smooth="yes"/>
      <point x="443" y="-130"/>
      <point x="459" y="-123"/>
    </contour>
    <contour>
      <point x="388" y="-92" type="curve"/>
      <point x="289" y="-118" type="line"/>
      <point x="289" y="-52"/>
      <point x="357" y="-9"/>
      <point x="427" y="27" type="curve"/>
      <point x="468" y="2" type="line"/>
      <point x="416" y="-26"/>
      <point x="388" y="-62"/>
    </contour>
  </outline>
</glyph>
<glyph name="cacute" format="1">
  <advance width="492"/>
  <unicode hex="0107"/>
  <outline>
    <contour>
      <point x="186" y="230" type="curve" smooth="yes"/>
      <point x="186" y="156"/>
      <point x="240" y="110"/>
      <point x="308" y="110" type="curve" smooth="yes"/>
      <point x="364" y="110"/>
      <point x="417" y="135"/>
      <point x="444" y="179" type="curve"/>
      <point x="444" y="32" type="line"/>
      <point x="412" y="6"/>
      <point x="365" y="-10"/>
      <point x="296" y="-10" type="curve" smooth="yes"/>
      <point x="142" y="-10"/>
      <point x="30" y="85"/>
      <point x="30" y="230" type="curve" smooth="yes"/>
      <point x="30" y="375"/>
      <point x="142" y="470"/>
      <point x="296" y="470" type="curve" smooth="yes"/>
      <point x="365" y="470"/>
      <point x="412" y="452"/>
      <point x="444" y="430" type="curve"/>
      <point x="444" y="282" type="line"/>
      <point x="417" y="326"/>
      <point x="358" y="350"/>
      <point x="308" y="350" type="curve" smooth="yes"/>
      <point x="240" y="350"/>
      <point x="186" y="298"/>
    </contour>
    <contour>
      <point x="426" y="680" type="line"/>
      <point x="246" y="530" type="line"/>
      <point x="160" y="573" type="line"/>
      <point x="310" y="733" type="line"/>
    </contour>
  </outline>
</glyph>
<glyph name="Dcaron" format="1">
  <advance width="733"/>
  <unicode hex="010E"/>
  <outline>
    <contour>
      <point x="186" y="550" type="line"/>
      <point x="186" y="700" type="line"/>
      <point x="324" y="700" type="line" smooth="yes"/>
      <point x="553" y="700"/>
      <point x="700" y="566"/>
      <point x="700" y="350" type="curve"/>
      <point x="524" y="350" type="line"/>
      <point x="524" y="500"/>
      <point x="426" y="550"/>
      <point x="318" y="550" type="curve" smooth="yes"/>
    </contour>
    <contour>
      <point x="324" y="0" type="curve" smooth="yes"/>
      <point x="186" y="0" type="line"/>
      <point x="186" y="150" type="line"/>
      <point x="318" y="150" type="line" smooth="yes"/>
      <point x="426" y="150"/>
      <point x="524" y="200"/>
      <point x="524" y="350" type="curve"/>
      <point x="700" y="350" type="line"/>
      <point x="700" y="134"/>
      <point x="553" y="0"/>
    </contour>
    <contour>
      <point x="74" y="700" type="line"/>
      <point x="248" y="700" type="line"/>
      <point x="248" y="0" type="line"/>
      <point x="74" y="0" type="line"/>
    </contour>
    <contour>
      <point x="364" y="902" type="line"/>
      <point x="455" y="988" type="line"/>
      <point x="561" y="916" type="line"/>
      <point x="364" y="776" type="line"/>
      <point x="166" y="916" type="line"/>
      <point x="272" y="988" type="line"/>
    </contour>
  </outline>
</glyph>
<glyph name="Dcroat" format="1">
  <advance width="732"/>
  <unicode hex="0110"/>
  <outline>
    <contour>
      <point x="5" y="298" type="line"/>
      <point x="5" y="398" type="line"/>
      <point x="348" y="398" type="line"/>
      <point x="348" y="298" type="line"/>
    </contour>
    <contour>
      <point x="74" y="700" type="line"/>
      <point x="248" y="700" type="line"/>
      <point x="248" y="0" type="line"/>
      <point x="74" y="0" type="line"/>
    </contour>
    <contour>
      <point x="324" y="0" type="curve" smooth="yes"/>
      <point x="186" y="0" type="line"/>
      <point x="186" y="150" type="line"/>
      <point x="318" y="150" type="line" smooth="yes"/>
      <point x="426" y="150"/>
      <point x="524" y="200"/>
      <point x="524" y="350" type="curve" smooth="yes"/>
      <point x="524" y="500"/>
      <point x="426" y="550"/>
      <point x="318" y="550" type="curve" smooth="yes"/>
      <point x="186" y="550" type="line"/>
      <point x="186" y="700" type="line"/>
      <point x="324" y="700" type="line" smooth="yes"/>
      <point x="552" y="700"/>
      <point x="699" y="565"/>
      <point x="699" y="350" type="curve" smooth="yes"/>
      <point x="699" y="135"/>
      <point x="552" y="0"/>
    </contour>
  </outline>
</glyph>
<glyph name="Emacron" format="1">
  <advance width="603"/>
  <unicode hex="0112"/>
  <outline>
    <contour>
      <point x="186" y="0" type="line"/>
      <point x="186" y="140" type="line"/>
      <point x="540" y="140" type="line"/>
      <point x="540" y="0" type="line"/>
    </contour>
    <contour>
      <point x="186" y="560" type="line"/>
      <point x="186" y="700" type="line"/>
      <point x="540" y="700" type="line"/>
      <point x="540" y="560" type="line"/>
    </contour>
    <contour>
      <point x="186" y="300" type="line"/>
      <point x="186" y="436" type="line"/>
      <point x="520" y="436" type="line"/>
      <point x="520" y="300" type="line"/>
    </contour>
    <contour>
      <point x="74" y="700" type="line"/>
      <point x="237" y="700" type="line"/>
      <point x="237" y="0" type="line"/>
      <point x="74" y="0" type="line"/>
    </contour>
    <contour>
      <point x="120" y="776" type="line"/>
      <point x="120" y="908" type="line"/>
      <point x="492" y="908" type="line"/>
      <point x="492" y="776" type="line"/>
    </contour>
  </outline>
</glyph>
<glyph name="Edotaccent" format="1">
  <advance width="603"/>
  <unicode hex="0116"/>
  <outline>
    <contour>
      <point x="186" y="0" type="line"/>
      <point x="186" y="140" type="line"/>
      <point x="540" y="140" type="line"/>
      <point x="540" y="0" type="line"/>
    </contour>
    <contour>
      <point x="186" y="560" type="line"/>
      <point x="186" y="700" type="line"/>
      <point x="540" y="700" type="line"/>
      <point x="540" y="560" type="line"/>
    </contour>
    <contour>
      <point x="186" y="300" type="line"/>
      <point x="186" y="436" type="line"/>
      <point x="520" y="436" type="line"/>
      <point x="520" y="300" type="line"/>
    </contour>
    <contour>
      <point x="74" y="700" type="line"/>
      <point x="237" y="700" type="line"/>
      <point x="237" y="0" type="line"/>
      <point x="74" y="0" type="line"/>
    </contour>
    <contour>
      <point x="212" y="868" type="curve" smooth="yes"/>
      <point x="212" y="918"/>
      <point x="251" y="961"/>
      <point x="306" y="961" type="curve" smooth="yes"/>
      <point x="361" y="961"/>
      <point x="400" y="918"/>
      <point x="400" y="868" type="curve" smooth="yes"/>
      <point x="400" y="818"/>
      <point x="361" y="776"/>
      <point x="306" y="776" type="curve" smooth="yes"/>
      <point x="251" y="776"/>
      <point x="212" y="818"/>
    </contour>
  </outline>
</glyph>
<glyph name="Eogonek" format="1">
  <advance width="602"/>
  <unicode hex="0118"/>
  <outline>
    <contour>
      <point x="186" y="0" type="line"/>
      <point x="186" y="139" type="line"/>
      <point x="539" y="139" type="line"/>
      <point x="539" y="0" type="line"/>
    </contour>
    <contour>
      <point x="186" y="561" type="line"/>
      <point x="186" y="700" type="line"/>
      <point x="539" y="700" type="line"/>
      <point x="539" y="561" type="line"/>
    </contour>
    <contour>
      <point x="186" y="300" type="line"/>
      <point x="186" y="436" type="line"/>
      <point x="519" y="436" type="line"/>
      <point x="519" y="300" type="line"/>
    </contour>
    <contour>
      <point x="74" y="700" type="line"/>
      <point x="236" y="700" type="line"/>
      <point x="236" y="0" type="line"/>
      <point x="74" y="0" type="line"/>
    </contour>
    <contour>
      <point x="399" y="-112" type="curve"/>
      <point x="432" y="-180" type="line"/>
      <point x="417" y="-200"/>
      <point x="388" y="-220"/>
      <point x="332" y="-220" type="curve" smooth="yes"/>
      <point x="266" y="-220"/>
      <point x="214" y="-185"/>
      <point x="214" y="-120" type="curve" smooth="yes"/>
      <point x="214" y="-55"/>
      <point x="283" y="-11"/>
      <point x="353" y="25" type="curve"/>
      <point x="394" y="0" type="line"/>
      <point x="342" y="-28"/>
      <point x="313" y="-63"/>
      <point x="313" y="-94" type="curve" smooth="yes"/>
      <point x="313" y="-118"/>
      <point x="325" y="-132"/>
      <point x="349" y="-132" type="curve" smooth="yes"/>
      <point x="369" y="-132"/>
      <point x="385" y="-125"/>
    </contour>
  </outline>
</glyph>
<glyph name="eogonek" format="1">
  <advance width="573"/>
  <unicode hex="0119"/>
  <outline>
    <contour>
      <point x="96" y="198" type="line"/>
      <point x="96" y="282" type="line"/>
      <point x="522" y="282" type="line"/>
      <point x="538" y="198" type="line"/>
    </contour>
    <contour>
      <point x="380" y="244" type="line" smooth="yes"/>
      <point x="380" y="324"/>
      <point x="353" y="369"/>
      <point x="288" y="369" type="curve" smooth="yes"/>
      <point x="227" y="369"/>
      <point x="187" y="328"/>
      <point x="187" y="254" type="curve"/>
      <point x="185" y="230" type="line"/>
      <point x="185" y="136"/>
      <point x="232" y="100"/>
      <point x="291" y="100" type="curve" smooth="yes"/>
      <point x="345" y="100"/>
      <point x="383" y="120"/>
      <point x="405" y="158" type="curve"/>
      <point x="541" y="126" type="line"/>
      <point x="495" y="44"/>
      <point x="426" y="-10"/>
      <point x="294" y="-10" type="curve" smooth="yes"/>
      <point x="126" y="-10"/>
      <point x="32" y="91"/>
      <point x="32" y="230" type="curve" smooth="yes"/>
      <point x="32" y="247"/>
      <point x="33" y="263"/>
      <point x="36" y="279" type="curve" smooth="yes"/>
      <point x="55" y="392"/>
      <point x="141" y="470"/>
      <point x="291" y="470" type="curve" smooth="yes"/>
      <point x="452" y="470"/>
      <point x="540" y="382"/>
      <point x="540" y="237" type="curve" smooth="yes"/>
      <point x="540" y="229"/>
      <point x="540" y="214"/>
      <point x="538" y="198" type="curve"/>
      <point x="380" y="218" type="line"/>
    </contour>
    <contour>
      <point x="334" y="-116" type="curve"/>
      <point x="366" y="-186" type="line"/>
      <point x="351" y="-206"/>
      <point x="322" y="-226"/>
      <point x="266" y="-226" type="curve" smooth="yes"/>
      <point x="201" y="-226"/>
      <point x="149" y="-192"/>
      <point x="149" y="-126" type="curve"/>
      <point x="248" y="-100" type="line"/>
      <point x="248" y="-125"/>
      <point x="260" y="-136"/>
      <point x="284" y="-136" type="curve" smooth="yes"/>
      <point x="304" y="-136"/>
      <point x="320" y="-129"/>
    </contour>
    <contour>
      <point x="248" y="-100" type="curve"/>
      <point x="149" y="-126" type="line"/>
      <point x="149" y="-60"/>
      <point x="218" y="-16"/>
      <point x="288" y="20" type="curve"/>
      <point x="328" y="-6" type="line"/>
      <point x="276" y="-34"/>
      <point x="248" y="-70"/>
    </contour>
  </outline>
</glyph>
<glyph name="Ecaron" format="1">
  <advance width="602"/>
  <unicode hex="011A"/>
  <outline>
    <contour>
      <point x="186" y="0" type="line"/>
      <point x="186" y="139" type="line"/>
      <point x="539" y="139" type="line"/>
      <point x="539" y="0" type="line"/>
    </contour>
    <contour>
      <point x="186" y="561" type="line"/>
      <point x="186" y="700" type="line"/>
      <point x="539" y="700" type="line"/>
      <point x="539" y="561" type="line"/>
    </contour>
    <contour>
      <point x="186" y="300" type="line"/>
      <point x="186" y="436" type="line"/>
      <point x="519" y="436" type="line"/>
      <point x="519" y="300" type="line"/>
    </contour>
    <contour>
      <point x="74" y="700" type="line"/>
      <point x="236" y="700" type="line"/>
      <point x="236" y="0" type="line"/>
      <point x="74" y="0" type="line"/>
    </contour>
    <contour>
      <point x="306" y="901" type="line"/>
      <point x="398" y="987" type="line"/>
      <point x="503" y="916" type="line"/>
      <point x="306" y="776" type="line"/>
      <point x="108" y="916" type="line"/>
      <point x="214" y="987" type="line"/>
    </contour>
  </outline>
</glyph>
<glyph name="Gcircumflex" format="1">
  <advance width="813"/>
  <unicode hex="011C"/>
  <outline>
    <contour>
      <point x="420" y="254" type="line"/>
      <point x="420" y="382" type="line"/>
      <point x="774" y="382" type="line"/>
      <point x="786" y="160"/>
      <point x="654" y="-22"/>
      <point x="416" y="-22" type="curve" smooth="yes"/>
      <point x="194" y="-22"/>
      <point x="34" y="128"/>
      <point x="34" y="350" type="curve" smooth="yes"/>
      <point x="34" y="572"/>
      <point x="200" y="716"/>
      <point x="422" y="716" type="curve" smooth="yes"/>
      <point x="570" y="716"/>
      <point x="673" y="647"/>
      <point x="739" y="550" type="curve"/>
      <point x="589" y="473" type="line"/>
      <point x="557" y="529"/>
      <point x="504" y="569"/>
      <point x="422" y="569" type="curve" smooth="yes"/>
      <point x="305" y="569"/>
      <point x="210" y="488"/>
      <point x="210" y="350" type="curve" smooth="yes"/>
      <point x="210" y="212"/>
      <point x="298" y="125"/>
      <point x="422" y="125" type="curve" smooth="yes"/>
      <point x="525" y="125"/>
      <point x="583" y="180"/>
      <point x="606" y="254" type="curve"/>
    </contour>
    <contour>
      <point x="422" y="862" type="line"/>
      <point x="331" y="776" type="line"/>
      <point x="226" y="847" type="line"/>
      <point x="422" y="987" type="line"/>
      <point x="620" y="847" type="line"/>
      <point x="514" y="776" type="line"/>
    </contour>
  </outline>
</glyph>
<glyph name="Gbreve" format="1">
  <advance width="814"/>
  <unicode hex="011E"/>
  <outline>
    <contour>
      <point x="420" y="253" type="line"/>
      <point x="420" y="383" type="line"/>
      <point x="775" y="383" type="line"/>
      <point x="686" y="253" type="line"/>
    </contour>
    <contour>
      <point x="775" y="383" type="line"/>
      <point x="787" y="161"/>
      <point x="656" y="-22"/>
      <point x="417" y="-22" type="curve" smooth="yes"/>
      <point x="194" y="-22"/>
      <point x="34" y="128"/>
      <point x="34" y="350" type="curve" smooth="yes"/>
      <point x="34" y="572"/>
      <point x="200" y="716"/>
      <point x="423" y="716" type="curve" smooth="yes"/>
      <point x="571" y="716"/>
      <point x="673" y="647"/>
      <point x="739" y="550" type="curve"/>
      <point x="588" y="472" type="line"/>
      <point x="556" y="527"/>
      <point x="505" y="568"/>
      <point x="423" y="568" type="curve" smooth="yes"/>
      <point x="306" y="568"/>
      <point x="211" y="488"/>
      <point x="211" y="350" type="curve" smooth="yes"/>
      <point x="211" y="212"/>
      <point x="300" y="125"/>
      <point x="423" y="125" type="curve" smooth="yes"/>
      <point x="579" y="125"/>
      <point x="624" y="245"/>
      <point x="624" y="380" type="curve"/>
    </contour>
    <contour>
      <point x="259" y="922" type="curve"/>
      <point x="358" y="922" type="line"/>
      <point x="358" y="886"/>
      <point x="384" y="863"/>
      <point x="423" y="863" type="curve" smooth="yes"/>
      <point x="462" y="863"/>
      <point x="488" y="886"/>
      <point x="488" y="922" type="curve"/>
      <point x="588" y="922" type="line"/>
      <point x="588" y="840"/>
      <point x="528" y="776"/>
      <point x="423" y="776" type="curve" smooth="yes"/>
      <point x="318" y="776"/>
      <point x="259" y="840"/>
    </contour>
  </outline>
</glyph>
<glyph name="gbreve" format="1">
  <advance width="610"/>
  <unicode hex="011F"/>
  <outline>
    <contour>
      <point x="450" y="236" type="curve"/>
      <point x="408" y="236" type="line"/>
      <point x="408" y="311"/>
      <point x="352" y="348"/>
      <point x="301" y="348" type="curve" smooth="yes"/>
      <point x="241" y="348"/>
      <point x="191" y="308"/>
      <point x="191" y="236" type="curve"/>
      <point x="32" y="236" type="line"/>
      <point x="32" y="392"/>
      <point x="138" y="470"/>
      <point x="250" y="470" type="curve" smooth="yes"/>
      <point x="365" y="470"/>
      <point x="450" y="385"/>
    </contour>
    <contour>
      <point x="408" y="236" type="curve"/>
      <point x="450" y="236" type="line"/>
      <point x="450" y="87"/>
      <point x="365" y="2"/>
      <point x="250" y="2" type="curve" smooth="yes"/>
      <point x="138" y="2"/>
      <point x="32" y="80"/>
      <point x="32" y="236" type="curve"/>
      <point x="191" y="236" type="line"/>
      <point x="191" y="164"/>
      <point x="241" y="124"/>
      <point x="301" y="124" type="curve" smooth="yes"/>
      <point x="352" y="124"/>
      <point x="408" y="161"/>
    </contour>
    <contour>
      <point x="42" y="-33" type="curve"/>
      <point x="188" y="-33" type="line"/>
      <point x="193" y="-89"/>
      <point x="234" y="-118"/>
      <point x="293" y="-118" type="curve" smooth="yes"/>
      <point x="357" y="-118"/>
      <point x="408" y="-75"/>
      <point x="408" y="10" type="curve" smooth="yes"/>
      <point x="408" y="460" type="line"/>
      <point x="553" y="460" type="line"/>
      <point x="553" y="10" type="line" smooth="yes"/>
      <point x="553" y="-168"/>
      <point x="440" y="-240"/>
      <point x="300" y="-240" type="curve" smooth="yes"/>
      <point x="128" y="-240"/>
      <point x="53" y="-155"/>
    </contour>
    <contour>
      <point x="148" y="677" type="curve"/>
      <point x="248" y="677" type="line"/>
      <point x="248" y="641"/>
      <point x="274" y="618"/>
      <point x="313" y="618" type="curve" smooth="yes"/>
      <point x="352" y="618"/>
      <point x="378" y="641"/>
      <point x="378" y="677" type="curve"/>
      <point x="478" y="677" type="line"/>
      <point x="478" y="595"/>
      <point x="418" y="530"/>
      <point x="313" y="530" type="curve" smooth="yes"/>
      <point x="208" y="530"/>
      <point x="148" y="595"/>
    </contour>
  </outline>
</glyph>
<glyph name="Gdotaccent" format="1">
  <advance width="813"/>
  <unicode hex="0120"/>
  <outline>
    <contour>
      <point x="420" y="254" type="line"/>
      <point x="420" y="382" type="line"/>
      <point x="774" y="382" type="line"/>
      <point x="786" y="160"/>
      <point x="654" y="-22"/>
      <point x="416" y="-22" type="curve" smooth="yes"/>
      <point x="194" y="-22"/>
      <point x="34" y="128"/>
      <point x="34" y="350" type="curve" smooth="yes"/>
      <point x="34" y="572"/>
      <point x="200" y="716"/>
      <point x="422" y="716" type="curve" smooth="yes"/>
      <point x="570" y="716"/>
      <point x="673" y="647"/>
      <point x="739" y="550" type="curve"/>
      <point x="589" y="473" type="line"/>
      <point x="557" y="529"/>
      <point x="504" y="569"/>
      <point x="422" y="569" type="curve" smooth="yes"/>
      <point x="305" y="569"/>
      <point x="210" y="488"/>
      <point x="210" y="350" type="curve" smooth="yes"/>
      <point x="210" y="212"/>
      <point x="298" y="125"/>
      <point x="422" y="125" type="curve" smooth="yes"/>
      <point x="525" y="125"/>
      <point x="583" y="180"/>
      <point x="606" y="254" type="curve"/>
    </contour>
    <contour>
      <point x="336" y="858" type="curve" smooth="yes"/>
      <point x="336" y="906"/>
      <point x="374" y="940"/>
      <point x="422" y="940" type="curve" smooth="yes"/>
      <point x="470" y="940"/>
      <point x="510" y="906"/>
      <point x="510" y="858" type="curve" smooth="yes"/>
      <point x="510" y="810"/>
      <point x="470" y="776"/>
      <point x="422" y="776" type="curve" smooth="yes"/>
      <point x="374" y="776"/>
      <point x="336" y="810"/>
    </contour>
  </outline>
</glyph>
<glyph name="Hcircumflex" format="1">
  <advance width="785"/>
  <unicode hex="0124"/>
  <outline>
    <contour>
      <point x="121" y="294" type="line"/>
      <point x="121" y="444" type="line"/>
      <point x="650" y="444" type="line"/>
      <point x="650" y="294" type="line"/>
    </contour>
    <contour>
      <point x="544" y="700" type="line"/>
      <point x="712" y="700" type="line"/>
      <point x="712" y="0" type="line"/>
      <point x="544" y="0" type="line"/>
    </contour>
    <contour>
      <point x="74" y="700" type="line"/>
      <point x="242" y="700" type="line"/>
      <point x="242" y="0" type="line"/>
      <point x="74" y="0" type="line"/>
    </contour>
    <contour>
      <point x="394" y="862" type="line"/>
      <point x="302" y="776" type="line"/>
      <point x="196" y="847" type="line"/>
      <point x="394" y="987" type="line"/>
      <point x="591" y="847" type="line"/>
      <point x="485" y="776" type="line"/>
    </contour>
  </outline>
</glyph>
<glyph name="hcircumflex" format="1">
  <advance width="568"/>
  <unicode hex="0125"/>
  <outline>
    <contour>
      <point x="211" y="780" type="line"/>
      <point x="211" y="0" type="line"/>
      <point x="60" y="0" type="line"/>
      <point x="60" y="780" type="line"/>
    </contour>
    <contour>
      <point x="358" y="280" type="line" smooth="yes"/>
      <point x="358" y="334"/>
      <point x="340" y="365"/>
      <point x="290" y="365" type="curve" smooth="yes"/>
      <point x="242" y="365"/>
      <point x="211" y="334"/>
      <point x="211" y="280" type="curve"/>
      <point x="181" y="280" type="line"/>
      <point x="181" y="389"/>
      <point x="237" y="477"/>
      <point x="351" y="477" type="curve" smooth="yes"/>
      <point x="465" y="477"/>
      <point x="509" y="415"/>
      <point x="509" y="302" type="curve" smooth="yes"/>
      <point x="509" y="0" type="line"/>
      <point x="358" y="0" type="line"/>
    </contour>
    <contour>
      <point x="138" y="926" type="line"/>
      <point x="46" y="840" type="line"/>
      <point x="-60" y="911" type="line"/>
      <point x="138" y="1051" type="line"/>
      <point x="335" y="911" type="line"/>
      <point x="229" y="840" type="line"/>
    </contour>
  </outline>
</glyph>
<glyph name="Itilde" format="1">
  <advance width="318"/>
  <unicode hex="0128"/>
  <outline>
    <contour>
      <point x="74" y="700" type="line"/>
      <point x="246" y="700" type="line"/>
      <point x="246" y="0" type="line"/>
      <point x="74" y="0" type="line"/>
    </contour>
    <contour>
      <point x="-36" y="842" type="line"/>
      <point x="-26" y="891"/>
      <point x="20" y="936"/>
      <point x="84" y="936" type="curve" smooth="yes"/>
      <point x="150" y="936"/>
      <point x="163" y="884"/>
      <point x="219" y="884" type="curve" smooth="yes"/>
      <point x="244" y="884"/>
      <point x="265" y="905"/>
      <point x="285" y="937" type="curve"/>
      <point x="356" y="863" type="line"/>
      <point x="340" y="826"/>
      <point x="284" y="778"/>
      <point x="222" y="778" type="curve" smooth="yes"/>
      <point x="167" y="778"/>
      <point x="132" y="831"/>
      <point x="82" y="831" type="curve" smooth="yes"/>
      <point x="44" y="831"/>
      <point x="36" y="795"/>
      <point x="36" y="780" type="curve"/>
    </contour>
  </outline>
</glyph>
<glyph name="itilde" format="1">
  <advance width="275"/>
  <unicode hex="0129"/>
  <outline>
    <contour>
      <point x="64" y="460" type="line"/>
      <point x="211" y="460" type="line"/>
      <point x="211" y="0" type="line"/>
      <point x="64" y="0" type="line"/>
    </contour>
    <contour>
      <point x="-58" y="596" type="line"/>
      <point x="-48" y="645"/>
      <point x="-4" y="690"/>
      <point x="60" y="690" type="curve" smooth="yes"/>
      <point x="126" y="690"/>
      <point x="142" y="639"/>
      <point x="198" y="639" type="curve" smooth="yes"/>
      <point x="223" y="639"/>
      <point x="244" y="660"/>
      <point x="264" y="692" type="curve"/>
      <point x="334" y="618" type="line"/>
      <point x="318" y="581"/>
      <point x="262" y="532"/>
      <point x="200" y="532" type="curve" smooth="yes"/>
      <point x="145" y="532"/>
      <point x="110" y="586"/>
      <point x="60" y="586" type="curve" smooth="yes"/>
      <point x="22" y="586"/>
      <point x="14" y="549"/>
      <point x="14" y="534" type="curve"/>
    </contour>
  </outline>
</glyph>
<glyph name="Iogonek" format="1">
  <advance width="318"/>
  <unicode hex="012E"/>
  <outline>
    <contour>
      <point x="74" y="700" type="line"/>
      <point x="246" y="700" type="line"/>
      <point x="246" y="0" type="line"/>
      <point x="74" y="0" type="line"/>
    </contour>
    <contour>
      <point x="224" y="-110" type="curve"/>
      <point x="258" y="-178" type="line"/>
      <point x="243" y="-198"/>
      <point x="214" y="-218"/>
      <point x="158" y="-218" type="curve" smooth="yes"/>
      <point x="92" y="-218"/>
      <point x="40" y="-183"/>
      <point x="40" y="-118" type="curve" smooth="yes"/>
      <point x="40" y="-53"/>
      <point x="108" y="-10"/>
      <point x="178" y="26" type="curve"/>
      <point x="220" y="2" type="line"/>
      <point x="168" y="-26"/>
      <point x="139" y="-61"/>
      <point x="139" y="-92" type="curve" smooth="yes"/>
      <point x="139" y="-116"/>
      <point x="150" y="-130"/>
      <point x="174" y="-130" type="curve" smooth="yes"/>
      <point x="194" y="-130"/>
      <point x="210" y="-123"/>
    </contour>
  </outline>
</glyph>
<glyph name="dotlessi" format="1">
  <advance width="275"/>
  <unicode hex="0131"/>
  <outline>
    <contour>
      <point x="64" y="460" type="line"/>
      <point x="211" y="460" type="line"/>
      <point x="211" y="0" type="line"/>
      <point x="64" y="0" type="line"/>
    </contour>
  </outline>
</glyph>
<glyph name="ij" format="1">
  <advance width="544"/>
  <unicode hex="0133"/>
  <outline>
    <contour>
      <point x="319" y="632" type="curve" smooth="yes"/>
      <point x="319" y="680"/>
      <point x="359" y="714"/>
      <point x="407" y="714" type="curve" smooth="yes"/>
      <point x="455" y="714"/>
      <point x="495" y="680"/>
      <point x="495" y="632" type="curve" smooth="yes"/>
      <point x="495" y="584"/>
      <point x="455" y="551"/>
      <point x="407" y="551" type="curve" smooth="yes"/>
      <point x="359" y="551"/>
      <point x="319" y="584"/>
    </contour>
    <contour>
      <point x="239" y="-77" type="line"/>
      <point x="253" y="-95"/>
      <point x="268" y="-103"/>
      <point x="286" y="-103" type="curve" smooth="yes"/>
      <point x="316" y="-103"/>
      <point x="334" y="-82"/>
      <point x="334" y="-34" type="curve" smooth="yes"/>
      <point x="334" y="460" type="line"/>
      <point x="479" y="460" type="line"/>
      <point x="479" y="-72" type="line" smooth="yes"/>
      <point x="479" y="-175"/>
      <point x="421" y="-238"/>
      <point x="306" y="-238" type="curve" smooth="yes"/>
      <point x="238" y="-238"/>
      <point x="199" y="-208"/>
      <point x="178" y="-188" type="curve"/>
    </contour>
    <contour>
      <point x="50" y="632" type="curve" smooth="yes"/>
      <point x="50" y="680"/>
      <point x="90" y="714"/>
      <point x="138" y="714" type="curve" smooth="yes"/>
      <point x="186" y="714"/>
      <point x="226" y="680"/>
      <point x="226" y="632" type="curve" smooth="yes"/>
      <point x="226" y="584"/>
      <point x="186" y="551"/>
      <point x="138" y="551" type="curve" smooth="yes"/>
      <point x="90" y="551"/>
      <point x="50" y="584"/>
    </contour>
    <contour>
      <point x="64" y="460" type="line"/>
      <point x="211" y="460" type="line"/>
      <point x="211" y="0" type="line"/>
      <point x="64" y="0" type="line"/>
    </contour>
  </outline>
</glyph>
<glyph name="uni0136" format="1">
  <advance width="698"/>
  <unicode hex="0136"/>
  <outline>
    <contour>
      <point x="74" y="700" type="line"/>
      <point x="248" y="700" type="line"/>
      <point x="248" y="0" type="line"/>
      <point x="74" y="0" type="line"/>
    </contour>
    <contour>
      <point x="486" y="700" type="line"/>
      <point x="685" y="700" type="line"/>
      <point x="401" y="372" type="line"/>
      <point x="700" y="0" type="line"/>
      <point x="495" y="0" type="line"/>
      <point x="200" y="367" type="line"/>
    </contour>
    <contour>
      <point x="330" y="-60" type="line"/>
      <point x="482" y="-92" type="line"/>
      <point x="356" y="-342" type="line"/>
      <point x="242" y="-319" type="line"/>
    </contour>
  </outline>
</glyph>
<glyph name="kgreenlandic" format="1">
  <advance width="577"/>
  <unicode hex="0138"/>
  <outline>
    <contour>
      <point x="58" y="460" type="line"/>
      <point x="203" y="460" type="line"/>
      <point x="203" y="0" type="line"/>
      <point x="58" y="0" type="line"/>
    </contour>
    <contour>
      <point x="370" y="460" type="line"/>
      <point x="551" y="460" type="line"/>
      <point x="354" y="270" type="line"/>
      <point x="571" y="0" type="line"/>
      <point x="393" y="0" type="line"/>
      <point x="174" y="270" type="line"/>
    </contour>
  </outline>
</glyph>
<glyph name="lacute" format="1">
  <advance width="270"/>
  <unicode hex="013A"/>
  <outline>
    <contour>
      <point x="60" y="780" type="line"/>
      <point x="211" y="780" type="line"/>
      <point x="211" y="0" type="line"/>
      <point x="60" y="0" type="line"/>
    </contour>
    <contour>
      <point x="296" y="990" type="line"/>
      <point x="116" y="840" type="line"/>
      <point x="32" y="882" type="line"/>
      <point x="182" y="1042" type="line"/>
    </contour>
  </outline>
</glyph>
<glyph name="lcaron" format="1">
  <advance width="270"/>
  <unicode hex="013E"/>
  <outline>
    <contour>
      <point x="60" y="780" type="line"/>
      <point x="212" y="780" type="line"/>
      <point x="212" y="0" type="line"/>
      <point x="60" y="0" type="line"/>
    </contour>
    <contour>
      <point x="350" y="780" type="line"/>
      <point x="501" y="748" type="line"/>
      <point x="376" y="498" type="line"/>
      <point x="262" y="521" type="line"/>
    </contour>
  </outline>
</glyph>
<glyph name="Ldot" format="1">
  <advance width="527"/>
  <unicode hex="013F"/>
  <outline>
    <contour>
      <point x="74" y="700" type="line"/>
      <point x="242" y="700" type="line"/>
      <point x="242" y="145" type="line"/>
      <point x="524" y="145" type="line"/>
      <point x="524" y="0" type="line"/>
      <point x="74" y="0" type="line"/>
    </contour>
    <contour>
      <point x="322" y="430" type="curve" smooth="yes"/>
      <point x="322" y="480"/>
      <point x="363" y="523"/>
      <point x="417" y="523" type="curve" smooth="yes"/>
      <point x="471" y="523"/>
      <point x="511" y="480"/>
      <point x="511" y="430" type="curve" smooth="yes"/>
      <point x="511" y="380"/>
      <point x="471" y="338"/>
      <point x="417" y="338" type="curve" smooth="yes"/>
      <point x="363" y="338"/>
      <point x="322" y="380"/>
    </contour>
  </outline>
</glyph>
<glyph name="ldot" format="1">
  <advance width="476"/>
  <unicode hex="0140"/>
  <outline>
    <contour>
      <point x="60" y="780" type="line"/>
      <point x="212" y="780" type="line"/>
      <point x="212" y="0" type="line"/>
      <point x="60" y="0" type="line"/>
    </contour>
    <contour>
      <point x="252" y="408" type="curve" smooth="yes"/>
      <point x="252" y="458"/>
      <point x="292" y="501"/>
      <point x="347" y="501" type="curve" smooth="yes"/>
      <point x="402" y="501"/>
      <point x="442" y="458"/>
      <point x="442" y="408" type="curve" smooth="yes"/>
      <point x="442" y="358"/>
      <point x="402" y="316"/>
      <point x="347" y="316" type="curve" smooth="yes"/>
      <point x="292" y="316"/>
      <point x="252" y="358"/>
    </contour>
  </outline>
</glyph>
<glyph name="Lslash" format="1">
  <advance width="528"/>
  <unicode hex="0141"/>
  <outline>
    <contour>
      <point x="140" y="128" type="line"/>
      <point x="133" y="264" type="line"/>
      <point x="455" y="328" type="line"/>
      <point x="462" y="191" type="line"/>
    </contour>
    <contour>
      <point x="92" y="438" type="line"/>
      <point x="229" y="468" type="line"/>
      <point x="346" y="30" type="line"/>
      <point x="209" y="0" type="line"/>
    </contour>
    <contour>
      <point x="33" y="444" type="line"/>
      <point x="34" y="497" type="line"/>
      <point x="296" y="416" type="line"/>
      <point x="296" y="362" type="line"/>
    </contour>
  </outline>
</glyph>
<glyph name="lslash" format="1">
  <advance width="270"/>
  <unicode hex="0142"/>
  <outline>
    <contour>
      <point x="33" y="615" type="line"/>
      <point x="148" y="636" type="line"/>
      <point x="242" y="204" type="line"/>
      <point x="127" y="184" type="line"/>
    </contour>
    <contour>
      <point x="18" y="474" type="line"/>
      <point x="18" y="527" type="line"/>
      <point x="255" y="397" type="line"/>
      <point x="256" y="344" type="line"/>
    </contour>
  </outline>
</glyph>
<glyph name="nacute" format="1">
  <advance width="574"/>
  <unicode hex="0144"/>
  <outline>
    <contour>
      <point x="211" y="460" type="line"/>
      <point x="211" y="0" type="line"/>
      <point x="60" y="0" type="line"/>
      <point x="60" y="460" type="line"/>
    </contour>
    <contour>
      <point x="358" y="280" type="line" smooth="yes"/>
      <point x="358" y="334"/>
      <point x="340" y="365"/>
      <point x="290" y="365" type="curve" smooth="yes"/>
      <point x="242" y="365"/>
      <point x="211" y="334"/>
      <point x="211" y="280" type="curve"/>
      <point x="185" y="274" type="line"/>
      <point x="185" y="383"/>
      <point x="237" y="470"/>
      <point x="351" y="470" type="curve" smooth="yes"/>
      <point x="465" y="470"/>
      <point x="515" y="409"/>
      <point x="515" y="296" type="curve" smooth="yes"/>
      <point x="515" y="0" type="line"/>
      <point x="358" y="0" type="line"/>
    </contour>
    <contour>
      <point x="452" y="680" type="line"/>
      <point x="272" y="530" type="line"/>
      <point x="186" y="573" type="line"/>
      <point x="336" y="733" type="line"/>
    </contour>
  </outline>
</glyph>
<glyph name="uni0145" format="1">
  <advance width="792"/>
  <unicode hex="0145"/>
  <outline>
    <contour>
      <point x="364" y="-54" type="line"/>
      <point x="514" y="-86" type="line"/>
      <point x="390" y="-336" type="line"/>
      <point x="276" y="-312" type="line"/>
    </contour>
    <contour>
      <point x="557" y="700" type="line"/>
      <point x="720" y="700" type="line"/>
      <point x="720" y="-35" type="line"/>
      <point x="236" y="394" type="line"/>
      <point x="236" y="0" type="line"/>
      <point x="74" y="0" type="line"/>
      <point x="74" y="735" type="line"/>
      <point x="557" y="306" type="line"/>
    </contour>
  </outline>
</glyph>
<glyph name="Ncaron" format="1">
  <advance width="792"/>
  <unicode hex="0147"/>
  <outline>
    <contour>
      <point x="376" y="902" type="line"/>
      <point x="467" y="988" type="line"/>
      <point x="572" y="916" type="line"/>
      <point x="376" y="776" type="line"/>
      <point x="178" y="916" type="line"/>
      <point x="284" y="988" type="line"/>
    </contour>
    <contour>
      <point x="557" y="700" type="line"/>
      <point x="720" y="700" type="line"/>
      <point x="720" y="-35" type="line"/>
      <point x="236" y="394" type="line"/>
      <point x="236" y="0" type="line"/>
      <point x="74" y="0" type="line"/>
      <point x="74" y="735" type="line"/>
      <point x="557" y="306" type="line"/>
    </contour>
  </outline>
</glyph>
<glyph name="OE" format="1">
  <advance width="985"/>
  <unicode hex="0152"/>
  <outline>
    <contour>
      <point x="562" y="300" type="line"/>
      <point x="562" y="436" type="line"/>
      <point x="929" y="436" type="line"/>
      <point x="929" y="300" type="line"/>
    </contour>
    <contour>
      <point x="484" y="670" type="line"/>
      <point x="646" y="670" type="line"/>
      <point x="646" y="30" type="line"/>
      <point x="484" y="30" type="line"/>
    </contour>
    <contour>
      <point x="950" y="139" type="line"/>
      <point x="950" y="0" type="line"/>
      <point x="390" y="0" type="line" smooth="yes"/>
      <point x="187" y="0"/>
      <point x="34" y="141"/>
      <point x="34" y="350" type="curve" smooth="yes"/>
      <point x="34" y="559"/>
      <point x="186" y="700"/>
      <point x="390" y="700" type="curve" smooth="yes"/>
      <point x="949" y="700" type="line"/>
      <point x="949" y="561" type="line"/>
      <point x="568" y="561" type="line"/>
      <point x="551" y="552" type="line"/>
      <point x="421" y="552" type="line" smooth="yes"/>
      <point x="281" y="552"/>
      <point x="208" y="482"/>
      <point x="208" y="350" type="curve" smooth="yes"/>
      <point x="208" y="218"/>
      <point x="283" y="148"/>
      <point x="421" y="148" type="curve" smooth="yes"/>
      <point x="548" y="148" type="line"/>
      <point x="572" y="139" type="line"/>
    </contour>
  </outline>
</glyph>
<glyph name="rcaron" format="1">
  <advance width="410"/>
  <unicode hex="0159"/>
  <outline>
    <contour>
      <point x="208" y="460" type="line"/>
      <point x="208" y="0" type="line"/>
      <point x="60" y="0" type="line"/>
      <point x="60" y="460" type="line"/>
    </contour>
    <contour>
      <point x="340" y="304" type="line"/>
      <point x="324" y="320"/>
      <point x="308" y="330"/>
      <point x="282" y="330" type="curve" smooth="yes"/>
      <point x="238" y="330"/>
      <point x="208" y="293"/>
      <point x="208" y="227" type="curve"/>
      <point x="172" y="280" type="line"/>
      <point x="172" y="389"/>
      <point x="246" y="472"/>
      <point x="324" y="472" type="curve" smooth="yes"/>
      <point x="357" y="472"/>
      <point x="390" y="458"/>
      <point x="406" y="434" type="curve"/>
    </contour>
    <contour>
      <point x="233" y="656" type="line"/>
      <point x="324" y="742" type="line"/>
      <point x="430" y="672" type="line"/>
      <point x="233" y="532" type="line"/>
      <point x="36" y="672" type="line"/>
      <point x="142" y="742" type="line"/>
    </contour>
  </outline>
</glyph>
<glyph name="scedilla" format="1">
  <advance width="456"/>
  <unicode hex="015F"/>
  <outline>
    <contour>
      <point x="83" y="174" type="line"/>
      <point x="151" y="114"/>
      <point x="203" y="98"/>
      <point x="235" y="98" type="curve" smooth="yes"/>
      <point x="262" y="98"/>
      <point x="280" y="105"/>
      <point x="280" y="128" type="curve" smooth="yes"/>
      <point x="280" y="162"/>
      <point x="212" y="173"/>
      <point x="158" y="197" type="curve" smooth="yes"/>
      <point x="98" y="225"/>
      <point x="42" y="256"/>
      <point x="42" y="336" type="curve" smooth="yes"/>
      <point x="42" y="424"/>
      <point x="126" y="470"/>
      <point x="225" y="470" type="curve" smooth="yes"/>
      <point x="305" y="470"/>
      <point x="373" y="440"/>
      <point x="422" y="402" type="curve"/>
      <point x="368" y="304" type="line"/>
      <point x="332" y="340"/>
      <point x="272" y="360"/>
      <point x="235" y="360" type="curve" smooth="yes"/>
      <point x="203" y="360"/>
      <point x="187" y="352"/>
      <point x="187" y="332" type="curve" smooth="yes"/>
      <point x="187" y="305"/>
      <point x="248" y="290"/>
      <point x="306" y="268" type="curve" smooth="yes"/>
      <point x="371" y="243"/>
      <point x="432" y="210"/>
      <point x="432" y="130" type="curve" smooth="yes"/>
      <point x="432" y="24"/>
      <point x="367" y="-20"/>
      <point x="255" y="-20" type="curve" smooth="yes"/>
      <point x="157" y="-20"/>
      <point x="76" y="19"/>
      <point x="18" y="75" type="curve"/>
    </contour>
    <contour>
      <point x="214" y="70" type="line"/>
      <point x="326" y="66" type="line"/>
      <point x="220" y="-80" type="line"/>
      <point x="128" y="-124" type="line"/>
    </contour>
    <contour>
      <point x="367" y="-150" type="curve"/>
      <point x="270" y="-140" type="line"/>
      <point x="270" y="-114"/>
      <point x="240" y="-108"/>
      <point x="209" y="-108" type="curve" smooth="yes"/>
      <point x="199" y="-108"/>
      <point x="164" y="-109"/>
      <point x="128" y="-124" type="curve"/>
      <point x="192" y="-80" type="line"/>
      <point x="219" y="-55"/>
      <point x="243" y="-52"/>
      <point x="275" y="-52" type="curve" smooth="yes"/>
      <point x="315" y="-52"/>
      <point x="367" y="-84"/>
    </contour>
    <contour>
      <point x="367" y="-150" type="line"/>
      <point x="367" y="-222"/>
      <point x="299" y="-258"/>
      <point x="236" y="-258" type="curve" smooth="yes"/>
      <point x="180" y="-258"/>
      <point x="139" y="-250"/>
      <point x="92" y="-220" type="curve"/>
      <point x="137" y="-150" type="line"/>
      <point x="163" y="-168"/>
      <point x="196" y="-176"/>
      <point x="216" y="-176" type="curve" smooth="yes"/>
      <point x="250" y="-176"/>
      <point x="270" y="-164"/>
      <point x="270" y="-140" type="curve"/>
    </contour>
  </outline>
</glyph>
<glyph name="Tcaron" format="1">
  <advance width="561"/>
  <unicode hex="0164"/>
  <outline>
    <contour>
      <point x="4" y="548" type="line"/>
      <point x="4" y="700" type="line"/>
      <point x="557" y="700" type="line"/>
      <point x="557" y="548" type="line"/>
      <point x="365" y="548" type="line"/>
      <point x="365" y="0" type="line"/>
      <point x="196" y="0" type="line"/>
      <point x="196" y="548" type="line"/>
    </contour>
    <contour>
      <point x="280" y="901" type="line"/>
      <point x="372" y="987" type="line"/>
      <point x="478" y="916" type="line"/>
      <point x="280" y="776" type="line"/>
      <point x="84" y="916" type="line"/>
      <point x="189" y="987" type="line"/>
    </contour>
  </outline>
</glyph>
<glyph name="tcaron" format="1">
  <advance width="498"/>
  <unicode hex="0165"/>
  <outline>
    <contour>
      <point x="5" y="460" type="line"/>
      <point x="313" y="460" type="line"/>
      <point x="313" y="335" type="line"/>
      <point x="5" y="335" type="line"/>
    </contour>
    <contour>
      <point x="86" y="620" type="line"/>
      <point x="232" y="620" type="line"/>
      <point x="232" y="0" type="line"/>
      <point x="86" y="0" type="line"/>
    </contour>
    <contour>
      <point x="377" y="792" type="line"/>
      <point x="529" y="760" type="line"/>
      <point x="403" y="510" type="line"/>
      <point x="289" y="533" type="line"/>
    </contour>
  </outline>
</glyph>
<glyph name="Utilde" format="1">
  <advance width="699"/>
  <unicode hex="0168"/>
  <outline>
    <contour>
      <point x="69" y="700" type="line"/>
      <point x="238" y="700" type="line"/>
      <point x="238" y="242" type="line" smooth="yes"/>
      <point x="238" y="170"/>
      <point x="274" y="123"/>
      <point x="350" y="123" type="curve" smooth="yes"/>
      <point x="426" y="123"/>
      <point x="463" y="170"/>
      <point x="463" y="242" type="curve" smooth="yes"/>
      <point x="463" y="700" type="line"/>
      <point x="632" y="700" type="line"/>
      <point x="632" y="230" type="line" smooth="yes"/>
      <point x="632" y="54"/>
      <point x="508" y="-28"/>
      <point x="350" y="-28" type="curve" smooth="yes"/>
      <point x="192" y="-28"/>
      <point x="69" y="54"/>
      <point x="69" y="230" type="curve" smooth="yes"/>
    </contour>
    <contour>
      <point x="154" y="842" type="line"/>
      <point x="164" y="891"/>
      <point x="210" y="936"/>
      <point x="274" y="936" type="curve" smooth="yes"/>
      <point x="340" y="936"/>
      <point x="354" y="884"/>
      <point x="410" y="884" type="curve" smooth="yes"/>
      <point x="435" y="884"/>
      <point x="455" y="905"/>
      <point x="475" y="937" type="curve"/>
      <point x="546" y="863" type="line"/>
      <point x="530" y="826"/>
      <point x="474" y="778"/>
      <point x="412" y="778" type="curve" smooth="yes"/>
      <point x="357" y="778"/>
      <point x="322" y="831"/>
      <point x="272" y="831" type="curve" smooth="yes"/>
      <point x="234" y="831"/>
      <point x="226" y="795"/>
      <point x="226" y="780" type="curve"/>
    </contour>
  </outline>
</glyph>
<glyph name="Ubreve" format="1">
  <advance width="699"/>
  <unicode hex="016C"/>
  <outline>
    <contour>
      <point x="69" y="700" type="line"/>
      <point x="238" y="700" type="line"/>
      <point x="238" y="242" type="line" smooth="yes"/>
      <point x="238" y="170"/>
      <point x="274" y="123"/>
      <point x="350" y="123" type="curve" smooth="yes"/>
      <point x="426" y="123"/>
      <point x="463" y="170"/>
      <point x="463" y="242" type="curve" smooth="yes"/>
      <point x="463" y="700" type="line"/>
      <point x="632" y="700" type="line"/>
      <point x="632" y="230" type="line" smooth="yes"/>
      <point x="632" y="54"/>
      <point x="508" y="-28"/>
      <point x="350" y="-28" type="curve" smooth="yes"/>
      <point x="192" y="-28"/>
      <point x="69" y="54"/>
      <point x="69" y="230" type="curve" smooth="yes"/>
    </contour>
    <contour>
      <point x="186" y="922" type="curve"/>
      <point x="285" y="922" type="line"/>
      <point x="285" y="887"/>
      <point x="311" y="862"/>
      <point x="350" y="862" type="curve" smooth="yes"/>
      <point x="389" y="862"/>
      <point x="416" y="887"/>
      <point x="416" y="922" type="curve"/>
      <point x="514" y="922" type="line"/>
      <point x="514" y="840"/>
      <point x="455" y="776"/>
      <point x="350" y="776" type="curve" smooth="yes"/>
      <point x="245" y="776"/>
      <point x="186" y="840"/>
    </contour>
  </outline>
</glyph>
<glyph name="ubreve" format="1">
  <advance width="574"/>
  <unicode hex="016D"/>
  <outline>
    <contour>
      <point x="364" y="0" type="line"/>
      <point x="364" y="460" type="line"/>
      <point x="515" y="460" type="line"/>
      <point x="515" y="0" type="line"/>
    </contour>
    <contour>
      <point x="217" y="180" type="line" smooth="yes"/>
      <point x="217" y="126"/>
      <point x="234" y="95"/>
      <point x="284" y="95" type="curve" smooth="yes"/>
      <point x="332" y="95"/>
      <point x="364" y="126"/>
      <point x="364" y="180" type="curve"/>
      <point x="390" y="186" type="line"/>
      <point x="390" y="77"/>
      <point x="338" y="-10"/>
      <point x="224" y="-10" type="curve" smooth="yes"/>
      <point x="110" y="-10"/>
      <point x="60" y="51"/>
      <point x="60" y="164" type="curve" smooth="yes"/>
      <point x="60" y="460" type="line"/>
      <point x="217" y="460" type="line"/>
    </contour>
    <contour>
      <point x="123" y="677" type="curve"/>
      <point x="222" y="677" type="line"/>
      <point x="222" y="642"/>
      <point x="249" y="618"/>
      <point x="288" y="618" type="curve" smooth="yes"/>
      <point x="327" y="618"/>
      <point x="353" y="642"/>
      <point x="353" y="677" type="curve"/>
      <point x="452" y="677" type="line"/>
      <point x="452" y="595"/>
      <point x="393" y="530"/>
      <point x="288" y="530" type="curve" smooth="yes"/>
      <point x="183" y="530"/>
      <point x="123" y="595"/>
    </contour>
  </outline>
</glyph>
<glyph name="Uring" format="1">
  <advance width="699"/>
  <unicode hex="016E"/>
  <outline>
    <contour>
      <point x="69" y="700" type="line"/>
      <point x="238" y="700" type="line"/>
      <point x="238" y="242" type="line" smooth="yes"/>
      <point x="238" y="170"/>
      <point x="274" y="123"/>
      <point x="350" y="123" type="curve" smooth="yes"/>
      <point x="426" y="123"/>
      <point x="463" y="170"/>
      <point x="463" y="242" type="curve" smooth="yes"/>
      <point x="463" y="700" type="line"/>
      <point x="632" y="700" type="line"/>
      <point x="632" y="230" type="line" smooth="yes"/>
      <point x="632" y="54"/>
      <point x="508" y="-28"/>
      <point x="350" y="-28" type="curve" smooth="yes"/>
      <point x="192" y="-28"/>
      <point x="69" y="54"/>
      <point x="69" y="230" type="curve" smooth="yes"/>
    </contour>
    <contour>
      <point x="226" y="892" type="curve" smooth="yes"/>
      <point x="226" y="960"/>
      <point x="280" y="1007"/>
      <point x="350" y="1007" type="curve" smooth="yes"/>
      <point x="420" y="1007"/>
      <point x="475" y="960"/>
      <point x="475" y="892" type="curve" smooth="yes"/>
      <point x="475" y="824"/>
      <point x="420" y="776"/>
      <point x="350" y="776" type="curve" smooth="yes"/>
      <point x="280" y="776"/>
      <point x="226" y="824"/>
    </contour>
    <contour>
      <point x="304" y="892" type="curve" smooth="yes"/>
      <point x="304" y="862"/>
      <point x="325" y="844"/>
      <point x="350" y="844" type="curve" smooth="yes"/>
      <point x="375" y="844"/>
      <point x="396" y="862"/>
      <point x="396" y="892" type="curve" smooth="yes"/>
      <point x="396" y="922"/>
      <point x="375" y="940"/>
      <point x="350" y="940" type="curve" smooth="yes"/>
      <point x="325" y="940"/>
      <point x="304" y="922"/>
    </contour>
  </outline>
</glyph>
<glyph name="uring" format="1">
  <advance width="574"/>
  <unicode hex="016F"/>
  <outline>
    <contour>
      <point x="364" y="0" type="line"/>
      <point x="364" y="460" type="line"/>
      <point x="515" y="460" type="line"/>
      <point x="515" y="0" type="line"/>
    </contour>
    <contour>
      <point x="217" y="180" type="line" smooth="yes"/>
      <point x="217" y="126"/>
      <point x="234" y="95"/>
      <point x="284" y="95" type="curve" smooth="yes"/>
      <point x="332" y="95"/>
      <point x="364" y="126"/>
      <point x="364" y="180" type="curve"/>
      <point x="390" y="186" type="line"/>
      <point x="390" y="77"/>
      <point x="338" y="-10"/>
      <point x="224" y="-10" type="curve" smooth="yes"/>
      <point x="110" y="-10"/>
      <point x="60" y="51"/>
      <point x="60" y="164" type="curve" smooth="yes"/>
      <point x="60" y="460" type="line"/>
      <point x="217" y="460" type="line"/>
    </contour>
    <contour>
      <point x="162" y="646" type="curve" smooth="yes"/>
      <point x="162" y="714"/>
      <point x="216" y="762"/>
      <point x="286" y="762" type="curve" smooth="yes"/>
      <point x="356" y="762"/>
      <point x="412" y="714"/>
      <point x="412" y="646" type="curve" smooth="yes"/>
      <point x="412" y="578"/>
      <point x="356" y="530"/>
      <point x="286" y="530" type="curve" smooth="yes"/>
      <point x="216" y="530"/>
      <point x="162" y="578"/>
    </contour>
    <contour>
      <point x="240" y="646" type="curve" smooth="yes"/>
      <point x="240" y="616"/>
      <point x="261" y="598"/>
      <point x="286" y="598" type="curve" smooth="yes"/>
      <point x="311" y="598"/>
      <point x="333" y="616"/>
      <point x="333" y="646" type="curve" smooth="yes"/>
      <point x="333" y="676"/>
      <point x="311" y="694"/>
      <point x="286" y="694" type="curve" smooth="yes"/>
      <point x="261" y="694"/>
      <point x="240" y="676"/>
    </contour>
  </outline>
</glyph>
<glyph name="wcircumflex" format="1">
  <advance width="760"/>
  <unicode hex="0175"/>
  <outline>
    <contour>
      <point x="-8" y="460" type="line"/>
      <point x="151" y="460" type="line"/>
      <point x="247" y="224" type="line"/>
      <point x="378" y="495" type="line"/>
      <point x="514" y="224" type="line"/>
      <point x="610" y="460" type="line"/>
      <point x="768" y="460" type="line"/>
      <point x="531" y="-29" type="line"/>
      <point x="379" y="244" type="line"/>
      <point x="230" y="-29" type="line"/>
    </contour>
    <contour>
      <point x="378" y="641" type="line"/>
      <point x="287" y="555" type="line"/>
      <point x="181" y="626" type="line"/>
      <point x="378" y="766" type="line"/>
      <point x="576" y="626" type="line"/>
      <point x="470" y="555" type="line"/>
    </contour>
  </outline>
</glyph>
<glyph name="zacute" format="1">
  <advance width="521"/>
  <unicode hex="017A"/>
  <outline>
    <contour>
      <point x="257" y="323" type="line"/>
      <point x="58" y="323" type="line"/>
      <point x="58" y="460" type="line"/>
      <point x="507" y="460" type="line"/>
      <point x="278" y="137" type="line"/>
      <point x="475" y="137" type="line"/>
      <point x="475" y="0" type="line"/>
      <point x="15" y="0" type="line"/>
    </contour>
    <contour>
      <point x="455" y="688" type="line"/>
      <point x="275" y="538" type="line"/>
      <point x="189" y="580" type="line"/>
      <point x="339" y="740" type="line"/>
    </contour>
  </outline>
</glyph>
<glyph name="Zdotaccent" format="1">
  <advance width="618"/>
  <unicode hex="017B"/>
  <outline>
    <contour>
      <point x="56" y="548" type="line"/>
      <point x="56" y="700" type="line"/>
      <point x="606" y="700" type="line"/>
      <point x="274" y="145" type="line"/>
      <point x="570" y="145" type="line"/>
      <point x="570" y="0" type="line"/>
      <point x="9" y="0" type="line"/>
      <point x="336" y="548" type="line"/>
    </contour>
    <contour>
      <point x="244" y="858" type="curve" smooth="yes"/>
      <point x="244" y="906"/>
      <point x="283" y="940"/>
      <point x="331" y="940" type="curve" smooth="yes"/>
      <point x="379" y="940"/>
      <point x="418" y="906"/>
      <point x="418" y="858" type="curve" smooth="yes"/>
      <point x="418" y="810"/>
      <point x="379" y="776"/>
      <point x="331" y="776" type="curve" smooth="yes"/>
      <point x="283" y="776"/>
      <point x="244" y="810"/>
    </contour>
  </outline>
</glyph>
<glyph name="Zcaron" format="1">
  <advance width="620"/>
  <unicode hex="017D"/>
  <outline>
    <contour>
      <point x="57" y="548" type="line"/>
      <point x="57" y="700" type="line"/>
      <point x="606" y="700" type="line"/>
      <point x="276" y="146" type="line"/>
      <point x="570" y="146" type="line"/>
      <point x="570" y="0" type="line"/>
      <point x="8" y="0" type="line"/>
      <point x="335" y="548" type="line"/>
    </contour>
    <contour>
      <point x="331" y="902" type="line"/>
      <point x="422" y="988" type="line"/>
      <point x="529" y="916" type="line"/>
      <point x="331" y="776" type="line"/>
      <point x="134" y="916" type="line"/>
      <point x="240" y="988" type="line"/>
    </contour>
  </outline>
</glyph>
<glyph name="zcaron" format="1">
  <advance width="515"/>
  <unicode hex="017E"/>
  <outline>
    <contour>
      <point x="282" y="656" type="line"/>
      <point x="374" y="741" type="line"/>
      <point x="480" y="670" type="line"/>
      <point x="282" y="530" type="line"/>
      <point x="85" y="670" type="line"/>
      <point x="191" y="741" type="line"/>
    </contour>
    <contour>
      <point x="258" y="323" type="line"/>
      <point x="58" y="323" type="line"/>
      <point x="58" y="460" type="line"/>
      <point x="507" y="460" type="line"/>
      <point x="276" y="137" type="line"/>
      <point x="475" y="137" type="line"/>
      <point x="475" y="0" type="line"/>
      <point x="15" y="0" type="line"/>
    </contour>
  </outline>
</glyph>
<glyph name="uni0212" format="1">
  <advance width="647"/>
  <unicode hex="0212"/>
  <outline>
    <contour>
      <point x="248" y="317" type="line"/>
      <point x="425" y="317" type="line"/>
      <point x="644" y="0" type="line"/>
      <point x="445" y="0" type="line"/>
    </contour>
    <contour>
      <point x="74" y="700" type="line"/>
      <point x="243" y="700" type="line"/>
      <point x="243" y="0" type="line"/>
      <point x="74" y="0" type="line"/>
    </contour>
    <contour>
      <point x="180" y="556" type="line"/>
      <point x="180" y="700" type="line"/>
      <point x="330" y="700" type="line" smooth="yes"/>
      <point x="508" y="700"/>
      <point x="602" y="607"/>
      <point x="602" y="471" type="curve" smooth="yes"/>
      <point x="602" y="335"/>
      <point x="508" y="242"/>
      <point x="330" y="242" type="curve" smooth="yes"/>
      <point x="180" y="242" type="line"/>
      <point x="180" y="374" type="line"/>
      <point x="317" y="374" type="line" smooth="yes"/>
      <point x="385" y="374"/>
      <point x="426" y="407"/>
      <point x="426" y="465" type="curve" smooth="yes"/>
      <point x="426" y="523"/>
      <point x="385" y="556"/>
      <point x="317" y="556" type="curve" smooth="yes"/>
    </contour>
    <contour>
      <point x="162" y="776" type="curve"/>
      <point x="262" y="776" type="line"/>
      <point x="262" y="812"/>
      <point x="288" y="836"/>
      <point x="327" y="836" type="curve" smooth="yes"/>
      <point x="366" y="836"/>
      <point x="392" y="812"/>
      <point x="392" y="776" type="curve"/>
      <point x="491" y="776" type="line"/>
      <point x="491" y="858"/>
      <point x="432" y="922"/>
      <point x="327" y="922" type="curve" smooth="yes"/>
      <point x="222" y="922"/>
      <point x="162" y="858"/>
    </contour>
  </outline>
</glyph>
<glyph name="uni0219" format="1">
  <advance width="455"/>
  <unicode hex="0219"/>
  <outline>
    <contour>
      <point x="82" y="175" type="line"/>
      <point x="150" y="115"/>
      <point x="202" y="98"/>
      <point x="234" y="98" type="curve" smooth="yes"/>
      <point x="261" y="98"/>
      <point x="281" y="105"/>
      <point x="281" y="128" type="curve" smooth="yes"/>
      <point x="281" y="162"/>
      <point x="212" y="171"/>
      <point x="158" y="196" type="curve" smooth="yes"/>
      <point x="98" y="224"/>
      <point x="42" y="256"/>
      <point x="42" y="336" type="curve" smooth="yes"/>
      <point x="42" y="424"/>
      <point x="126" y="470"/>
      <point x="224" y="470" type="curve" smooth="yes"/>
      <point x="303" y="470"/>
      <point x="373" y="440"/>
      <point x="422" y="402" type="curve"/>
      <point x="368" y="304" type="line"/>
      <point x="332" y="340"/>
      <point x="272" y="360"/>
      <point x="235" y="360" type="curve" smooth="yes"/>
      <point x="203" y="360"/>
      <point x="187" y="352"/>
      <point x="187" y="332" type="curve" smooth="yes"/>
      <point x="187" y="304"/>
      <point x="247" y="290"/>
      <point x="305" y="268" type="curve" smooth="yes"/>
      <point x="370" y="242"/>
      <point x="432" y="210"/>
      <point x="432" y="130" type="curve" smooth="yes"/>
      <point x="432" y="25"/>
      <point x="367" y="-19"/>
      <point x="255" y="-19" type="curve" smooth="yes"/>
      <point x="157" y="-19"/>
      <point x="76" y="20"/>
      <point x="19" y="76" type="curve"/>
    </contour>
    <contour>
      <point x="198" y="-67" type="line"/>
      <point x="349" y="-100" type="line"/>
      <point x="224" y="-350" type="line"/>
      <point x="110" y="-326" type="line"/>
    </contour>
  </outline>
</glyph>
<glyph name="breve" format="1">
  <advance width="546"/>
  <unicode hex="02D8"/>
  <outline>
    <contour>
      <point x="109" y="850" type="curve"/>
      <point x="208" y="850" type="line"/>
      <point x="208" y="815"/>
      <point x="234" y="790"/>
      <point x="273" y="790" type="curve" smooth="yes"/>
      <point x="312" y="790"/>
      <point x="338" y="815"/>
      <point x="338" y="850" type="curve"/>
      <point x="437" y="850" type="line"/>
      <point x="437" y="768"/>
      <point x="378" y="704"/>
      <point x="273" y="704" type="curve" smooth="yes"/>
      <point x="168" y="704"/>
      <point x="109" y="768"/>
    </contour>
  </outline>
</glyph>
<glyph name="ring" format="1">
  <advance width="327"/>
  <unicode hex="02DA"/>
  <outline>
    <contour>
      <point x="38" y="770" type="curve" smooth="yes"/>
      <point x="38" y="838"/>
      <point x="94" y="885"/>
      <point x="164" y="885" type="curve" smooth="yes"/>
      <point x="234" y="885"/>
      <point x="288" y="838"/>
      <point x="288" y="770" type="curve" smooth="yes"/>
      <point x="288" y="702"/>
      <point x="234" y="654"/>
      <point x="164" y="654" type="curve" smooth="yes"/>
      <point x="94" y="654"/>
      <point x="38" y="702"/>
    </contour>
    <contour>
      <point x="117" y="770" type="curve" smooth="yes"/>
      <point x="117" y="740"/>
      <point x="139" y="722"/>
      <point x="164" y="722" type="curve" smooth="yes"/>
      <point x="189" y="722"/>
      <point x="210" y="740"/>
      <point x="210" y="770" type="curve" smooth="yes"/>
      <point x="210" y="800"/>
      <point x="189" y="818"/>
      <point x="164" y="818" type="curve" smooth="yes"/>
      <point x="139" y="818"/>
      <point x="117" y="800"/>
    </contour>
  </outline>
</glyph>
<glyph name="ogonek" format="1">
  <advance width="260"/>
  <unicode hex="02DB"/>
  <outline>
    <contour>
      <point x="194" y="-111" type="curve"/>
      <point x="227" y="-180" type="line"/>
      <point x="212" y="-200"/>
      <point x="182" y="-220"/>
      <point x="126" y="-220" type="curve" smooth="yes"/>
      <point x="61" y="-220"/>
      <point x="10" y="-186"/>
      <point x="10" y="-120" type="curve"/>
      <point x="108" y="-94" type="line"/>
      <point x="108" y="-119"/>
      <point x="120" y="-131"/>
      <point x="144" y="-131" type="curve" smooth="yes"/>
      <point x="164" y="-131"/>
      <point x="180" y="-124"/>
    </contour>
    <contour>
      <point x="108" y="-94" type="curve"/>
      <point x="10" y="-120" type="line"/>
      <point x="10" y="-54"/>
      <point x="78" y="-11"/>
      <point x="148" y="25" type="curve"/>
      <point x="189" y="0" type="line"/>
      <point x="137" y="-28"/>
      <point x="108" y="-64"/>
    </contour>
  </outline>
</glyph>
<glyph name="uni0401" format="1">
  <advance width="550"/>
  <unicode hex="0401"/>
  <outline>
    <contour>
      <point x="186" y="0" type="line"/>
      <point x="186" y="139" type="line"/>
      <point x="539" y="139" type="line"/>
      <point x="539" y="0" type="line"/>
    </contour>
    <contour>
      <point x="186" y="561" type="line"/>
      <point x="186" y="700" type="line"/>
      <point x="539" y="700" type="line"/>
      <point x="539" y="561" type="line"/>
    </contour>
    <contour>
      <point x="186" y="300" type="line"/>
      <point x="186" y="436" type="line"/>
      <point x="519" y="436" type="line"/>
      <point x="519" y="300" type="line"/>
    </contour>
    <contour>
      <point x="74" y="700" type="line"/>
      <point x="236" y="700" type="line"/>
      <point x="236" y="0" type="line"/>
      <point x="74" y="0" type="line"/>
    </contour>
    <contour>
      <point x="340" y="858" type="curve" smooth="yes"/>
      <point x="340" y="906"/>
      <point x="380" y="940"/>
      <point x="428" y="940" type="curve" smooth="yes"/>
      <point x="476" y="940"/>
      <point x="516" y="906"/>
      <point x="516" y="858" type="curve" smooth="yes"/>
      <point x="516" y="810"/>
      <point x="476" y="776"/>
      <point x="428" y="776" type="curve" smooth="yes"/>
      <point x="380" y="776"/>
      <point x="340" y="810"/>
    </contour>
    <contour>
      <point x="96" y="858" type="curve" smooth="yes"/>
      <point x="96" y="906"/>
      <point x="136" y="940"/>
      <point x="184" y="940" type="curve" smooth="yes"/>
      <point x="232" y="940"/>
      <point x="272" y="906"/>
      <point x="272" y="858" type="curve" smooth="yes"/>
      <point x="272" y="810"/>
      <point x="232" y="776"/>
      <point x="184" y="776" type="curve" smooth="yes"/>
      <point x="136" y="776"/>
      <point x="96" y="810"/>
    </contour>
  </outline>
</glyph>
<glyph name="uni0403" format="1">
  <advance width="505"/>
  <unicode hex="0403"/>
  <outline>
    <contour>
      <point x="80" y="700" type="line"/>
      <point x="496" y="700" type="line"/>
      <point x="496" y="548" type="line"/>
      <point x="248" y="548" type="line"/>
      <point x="248" y="0" type="line"/>
      <point x="80" y="0" type="line"/>
    </contour>
    <contour>
      <point x="468" y="926" type="line"/>
      <point x="288" y="776" type="line"/>
      <point x="202" y="818" type="line"/>
      <point x="352" y="978" type="line"/>
    </contour>
  </outline>
</glyph>
<glyph name="uni040C" format="1">
  <advance width="565"/>
  <unicode hex="040C"/>
  <outline>
    <contour>
      <point x="74" y="700" type="line"/>
      <point x="248" y="700" type="line"/>
      <point x="248" y="0" type="line"/>
      <point x="74" y="0" type="line"/>
    </contour>
    <contour>
      <point x="486" y="700" type="line"/>
      <point x="685" y="700" type="line"/>
      <point x="401" y="372" type="line"/>
      <point x="700" y="0" type="line"/>
      <point x="495" y="0" type="line"/>
      <point x="200" y="367" type="line"/>
    </contour>
    <contour>
      <point x="511" y="914" type="line"/>
      <point x="331" y="764" type="line"/>
      <point x="246" y="806" type="line"/>
      <point x="396" y="966" type="line"/>
    </contour>
  </outline>
</glyph>
<glyph name="uni040D" format="1">
  <advance width="792"/>
  <unicode hex="040D"/>
  <outline>
    <contour>
      <point x="714" y="524" type="line"/>
      <point x="74" y="-35" type="line"/>
      <point x="79" y="176" type="line"/>
      <point x="720" y="735" type="line"/>
    </contour>
    <contour>
      <point x="236" y="700" type="line"/>
      <point x="236" y="131" type="line"/>
      <point x="74" y="-35" type="line"/>
      <point x="74" y="700" type="line"/>
    </contour>
    <contour>
      <point x="720" y="735" type="line"/>
      <point x="720" y="0" type="line"/>
      <point x="557" y="0" type="line"/>
      <point x="557" y="563" type="line"/>
    </contour>
    <contour>
      <point x="249" y="908" type="line"/>
      <point x="364" y="960" type="line"/>
      <point x="514" y="800" type="line"/>
      <point x="429" y="758" type="line"/>
    </contour>
  </outline>
</glyph>
<glyph name="uni040E" format="1">
  <advance width="605"/>
  <unicode hex="040E"/>
  <outline>
    <contour>
      <point x="615" y="700" type="line"/>
      <point x="286" y="0" type="line"/>
      <point x="120" y="0" type="line"/>
      <point x="214" y="213" type="line"/>
      <point x="-9" y="700" type="line"/>
      <point x="174" y="700" type="line"/>
      <point x="332" y="283" type="line"/>
      <point x="260" y="284" type="line"/>
      <point x="446" y="700" type="line"/>
    </contour>
    <contour>
      <point x="140" y="922" type="curve"/>
      <point x="238" y="922" type="line"/>
      <point x="238" y="887"/>
      <point x="265" y="862"/>
      <point x="304" y="862" type="curve" smooth="yes"/>
      <point x="343" y="862"/>
      <point x="369" y="887"/>
      <point x="369" y="922" type="curve"/>
      <point x="468" y="922" type="line"/>
      <point x="468" y="840"/>
      <point x="409" y="776"/>
      <point x="304" y="776" type="curve" smooth="yes"/>
      <point x="199" y="776"/>
      <point x="140" y="840"/>
    </contour>
  </outline>
</glyph>
<glyph name="uni0410" format="1">
  <advance width="733"/>
  <unicode hex="0410"/>
  <outline>
    <contour>
      <point x="184" y="136" type="line"/>
      <point x="196" y="264" type="line"/>
      <point x="543" y="264" type="line"/>
      <point x="554" y="136" type="line"/>
    </contour>
    <contour>
      <point x="367" y="443" type="line"/>
      <point x="269" y="218" type="line"/>
      <point x="277" y="180" type="line"/>
      <point x="190" y="0" type="line"/>
      <point x="-1" y="0" type="line"/>
      <point x="367" y="744" type="line"/>
      <point x="736" y="0" type="line"/>
      <point x="544" y="0" type="line"/>
      <point x="460" y="173" type="line"/>
      <point x="466" y="216" type="line"/>
    </contour>
  </outline>
</glyph>
<glyph name="uni0412" format="1">
  <advance width="663"/>
  <unicode hex="0412"/>
  <outline>
    <contour>
      <point x="200" y="348" type="line"/>
      <point x="200" y="422" type="line"/>
      <point x="313" y="422" type="line" smooth="yes"/>
      <point x="371" y="422"/>
      <point x="404" y="449"/>
      <point x="404" y="497" type="curve" smooth="yes"/>
      <point x="404" y="545"/>
      <point x="371" y="569"/>
      <point x="313" y="569" type="curve" smooth="yes"/>
      <point x="242" y="569" type="line"/>
      <point x="242" y="131" type="line"/>
      <point x="329" y="131" type="line" smooth="yes"/>
      <point x="395" y="131"/>
      <point x="444" y="152"/>
      <point x="444" y="220" type="curve" smooth="yes"/>
      <point x="444" y="282"/>
      <point x="395" y="304"/>
      <point x="329" y="304" type="curve" smooth="yes"/>
      <point x="200" y="304" type="line"/>
      <point x="200" y="396" type="line"/>
      <point x="348" y="396" type="line" smooth="yes"/>
      <point x="483" y="396"/>
      <point x="620" y="338"/>
      <point x="620" y="196" type="curve" smooth="yes"/>
      <point x="620" y="57"/>
      <point x="514" y="0"/>
      <point x="348" y="0" type="curve" smooth="yes"/>
      <point x="74" y="0" type="line"/>
      <point x="74" y="700" type="line"/>
      <point x="332" y="700" type="line" smooth="yes"/>
      <point x="476" y="700"/>
      <point x="580" y="641"/>
      <point x="580" y="522" type="curve" smooth="yes"/>
      <point x="580" y="410"/>
      <point x="476" y="348"/>
      <point x="332" y="348" type="curve" smooth="yes"/>
    </contour>
  </outline>
</glyph>
<glyph name="uni0413" format="1">
  <advance width="505"/>
  <unicode hex="0413"/>
  <outline>
    <contour>
      <point x="80" y="700" type="line"/>
      <point x="496" y="700" type="line"/>
      <point x="496" y="548" type="line"/>
      <point x="248" y="548" type="line"/>
      <point x="248" y="0" type="line"/>
      <point x="80" y="0" type="line"/>
    </contour>
  </outline>
</glyph>
<glyph name="uni0414" format="1">
  <advance width="881"/>
  <unicode hex="0414"/>
  <outline>
    <contour>
      <point x="438" y="430" type="line"/>
      <point x="293" y="30" type="line"/>
      <point x="98" y="30" type="line"/>
      <point x="438" y="735" type="line"/>
      <point x="779" y="30" type="line"/>
      <point x="584" y="30" type="line"/>
    </contour>
    <contour>
      <point x="669" y="0" type="line"/>
      <point x="208" y="0" type="line"/>
      <point x="208" y="-110" type="line"/>
      <point x="40" y="-110" type="line"/>
      <point x="40" y="145" type="line"/>
      <point x="837" y="145" type="line"/>
      <point x="837" y="-110" type="line"/>
      <point x="669" y="-110" type="line"/>
    </contour>
  </outline>
</glyph>
<glyph name="uni0417" format="1">
  <advance width="667"/>
  <unicode hex="0417"/>
  <outline>
    <contour>
      <point x="304" y="339" type="curve"/>
      <point x="304" y="414" type="line"/>
      <point x="402" y="414"/>
      <point x="452" y="452"/>
      <point x="452" y="502" type="curve" smooth="yes"/>
      <point x="452" y="546"/>
      <point x="415" y="578"/>
      <point x="348" y="578" type="curve" smooth="yes"/>
      <point x="276" y="578"/>
      <point x="233" y="543"/>
      <point x="233" y="495" type="curve"/>
      <point x="78" y="495" type="line"/>
      <point x="78" y="619"/>
      <point x="173" y="713"/>
      <point x="348" y="713" type="curve" smooth="yes"/>
      <point x="525" y="713"/>
      <point x="618" y="628"/>
      <point x="618" y="520" type="curve" smooth="yes"/>
      <point x="618" y="400"/>
      <point x="478" y="339"/>
    </contour>
    <contour>
      <point x="353" y="-16" type="curve" smooth="yes"/>
      <point x="142" y="-16"/>
      <point x="48" y="98"/>
      <point x="48" y="222" type="curve"/>
      <point x="214" y="222" type="line"/>
      <point x="216" y="153"/>
      <point x="271" y="120"/>
      <point x="347" y="120" type="curve" smooth="yes"/>
      <point x="423" y="120"/>
      <point x="472" y="148"/>
      <point x="472" y="208" type="curve" smooth="yes"/>
      <point x="472" y="266"/>
      <point x="420" y="306"/>
      <point x="304" y="306" type="curve"/>
      <point x="304" y="392" type="line"/>
      <point x="496" y="392"/>
      <point x="638" y="333"/>
      <point x="638" y="191" type="curve" smooth="yes"/>
      <point x="638" y="69"/>
      <point x="542" y="-16"/>
    </contour>
  </outline>
</glyph>
<glyph name="uni0418" format="1">
  <advance width="792"/>
  <unicode hex="0418"/>
  <outline>
    <contour>
      <point x="714" y="524" type="line"/>
      <point x="74" y="-35" type="line"/>
      <point x="79" y="176" type="line"/>
      <point x="720" y="735" type="line"/>
    </contour>
    <contour>
      <point x="236" y="700" type="line"/>
      <point x="236" y="131" type="line"/>
      <point x="74" y="-35" type="line"/>
      <point x="74" y="700" type="line"/>
    </contour>
    <contour>
      <point x="720" y="735" type="line"/>
      <point x="720" y="0" type="line"/>
      <point x="557" y="0" type="line"/>
      <point x="557" y="563" type="line"/>
    </contour>
  </outline>
</glyph>
<glyph name="uni0419" format="1">
  <advance width="792"/>
  <unicode hex="0419"/>
  <outline>
    <contour>
      <point x="714" y="524" type="line"/>
      <point x="74" y="-35" type="line"/>
      <point x="79" y="176" type="line"/>
      <point x="720" y="735" type="line"/>
    </contour>
    <contour>
      <point x="236" y="700" type="line"/>
      <point x="236" y="131" type="line"/>
      <point x="74" y="-35" type="line"/>
      <point x="74" y="700" type="line"/>
    </contour>
    <contour>
      <point x="720" y="735" type="line"/>
      <point x="720" y="0" type="line"/>
      <point x="557" y="0" type="line"/>
      <point x="557" y="563" type="line"/>
    </contour>
    <contour>
      <point x="257" y="918" type="curve"/>
      <point x="356" y="918" type="line"/>
      <point x="356" y="883"/>
      <point x="382" y="858"/>
      <point x="421" y="858" type="curve" smooth="yes"/>
      <point x="460" y="858"/>
      <point x="486" y="883"/>
      <point x="486" y="918" type="curve"/>
      <point x="586" y="918" type="line"/>
      <point x="586" y="836"/>
      <point x="526" y="771"/>
      <point x="421" y="771" type="curve" smooth="yes"/>
      <point x="316" y="771"/>
      <point x="257" y="836"/>
    </contour>
  </outline>
</glyph>
<glyph name="uni041A" format="1">
  <advance width="698"/>
  <unicode hex="041A"/>
  <outline>
    <contour>
      <point x="74" y="700" type="line"/>
      <point x="248" y="700" type="line"/>
      <point x="248" y="0" type="line"/>
      <point x="74" y="0" type="line"/>
    </contour>
    <contour>
      <point x="486" y="700" type="line"/>
      <point x="685" y="700" type="line"/>
      <point x="401" y="372" type="line"/>
      <point x="700" y="0" type="line"/>
      <point x="495" y="0" type="line"/>
      <point x="200" y="367" type="line"/>
    </contour>
  </outline>
</glyph>
<glyph name="uni041D" format="1">
  <advance width="785"/>
  <unicode hex="041D"/>
  <outline>
    <contour>
      <point x="121" y="294" type="line"/>
      <point x="121" y="444" type="line"/>
      <point x="650" y="444" type="line"/>
      <point x="650" y="294" type="line"/>
    </contour>
    <contour>
      <point x="544" y="700" type="line"/>
      <point x="712" y="700" type="line"/>
      <point x="712" y="0" type="line"/>
      <point x="544" y="0" type="line"/>
    </contour>
    <contour>
      <point x="74" y="700" type="line"/>
      <point x="242" y="700" type="line"/>
      <point x="242" y="0" type="line"/>
      <point x="74" y="0" type="line"/>
    </contour>
  </outline>
</glyph>
<glyph name="uni0423" format="1">
  <advance width="617"/>
  <unicode hex="0423"/>
  <outline>
    <contour>
      <point x="627" y="700" type="line"/>
      <point x="298" y="0" type="line"/>
      <point x="126" y="0" type="line"/>
      <point x="220" y="213" type="line"/>
      <point x="-9" y="700" type="line"/>
      <point x="180" y="700" type="line"/>
      <point x="338" y="283" type="line"/>
      <point x="266" y="284" type="line"/>
      <point x="452" y="700" type="line"/>
    </contour>
  </outline>
</glyph>
